<svg width="80" height="80" viewBox="0 0 80 80" fill="none" xmlns="http://www.w3.org/2000/svg">
<circle cx="40" cy="40" r="39.5" stroke="url(#paint0_linear_36_644)" stroke-opacity="0.25"/>
<circle cx="40" cy="40" r="29.5" stroke="url(#paint1_linear_36_644)"/>
<path d="M28.6667 29.0333C28.6667 27.5222 29.1222 26.3111 30.0333 25.4C30.9444 24.4889 32.1556 24.0333 33.6667 24.0333H35.9667C37.4778 24.0333 38.6889 24.4889 39.6 25.4C40.5111 26.3111 40.9667 27.5222 40.9667 29.0333V48.1667C40.9667 49.6778 40.5111 50.8889 39.6 51.8C38.6889 52.7111 37.4778 53.1667 35.9667 53.1667H33.6667C32.1556 53.1667 30.9444 52.7111 30.0333 51.8C29.1222 50.8889 28.6667 49.6778 28.6667 48.1667V29.0333ZM33.6333 50.5333H36C36.7111 50.5333 37.2778 50.3222 37.7 49.9C38.1222 49.4778 38.3333 48.9111 38.3333 48.2V29C38.3333 28.2889 38.1222 27.7222 37.7 27.3C37.2778 26.8778 36.7111 26.6667 36 26.6667H33.6333C32.9222 26.6667 32.3556 26.8778 31.9333 27.3C31.5111 27.7222 31.3 28.2889 31.3 29V48.2C31.3 48.9111 31.5111 49.4778 31.9333 49.9C32.3556 50.3222 32.9222 50.5333 33.6333 50.5333Z" fill="white"/>
<path d="M28.6667 29.0333C28.6667 27.5222 29.1222 26.3111 30.0333 25.4C30.9444 24.4889 32.1556 24.0333 33.6667 24.0333H35.9667C37.4778 24.0333 38.6889 24.4889 39.6 25.4C40.5111 26.3111 40.9667 27.5222 40.9667 29.0333V48.1667C40.9667 49.6778 40.5111 50.8889 39.6 51.8C38.6889 52.7111 37.4778 53.1667 35.9667 53.1667H33.6667C32.1556 53.1667 30.9444 52.7111 30.0333 51.8C29.1222 50.8889 28.6667 49.6778 28.6667 48.1667V29.0333ZM33.6333 50.5333H36C36.7111 50.5333 37.2778 50.3222 37.7 49.9C38.1222 49.4778 38.3333 48.9111 38.3333 48.2V29C38.3333 28.2889 38.1222 27.7222 37.7 27.3C37.2778 26.8778 36.7111 26.6667 36 26.6667H33.6333C32.9222 26.6667 32.3556 26.8778 31.9333 27.3C31.5111 27.7222 31.3 28.2889 31.3 29V48.2C31.3 48.9111 31.5111 49.4778 31.9333 49.9C32.3556 50.3222 32.9222 50.5333 33.6333 50.5333Z" fill="url(#paint2_linear_36_644)"/>
<path d="M44.6667 24.4667V24.2H49.9V53H47.3V26.8H47C46.2889 26.8 45.7222 26.5889 45.3 26.1667C44.8778 25.7444 44.6667 25.1778 44.6667 24.4667Z" fill="white"/>
<path d="M44.6667 24.4667V24.2H49.9V53H47.3V26.8H47C46.2889 26.8 45.7222 26.5889 45.3 26.1667C44.8778 25.7444 44.6667 25.1778 44.6667 24.4667Z" fill="url(#paint3_linear_36_644)"/>
<defs>
<linearGradient id="paint0_linear_36_644" x1="40" y1="0" x2="40" y2="70" gradientUnits="userSpaceOnUse">
<stop stop-color="#7E7E7E"/>
<stop offset="0.46875" stop-color="#F1F1F1"/>
<stop offset="1" stop-color="#7E7E7E"/>
</linearGradient>
<linearGradient id="paint1_linear_36_644" x1="10.7614" y1="70" x2="70" y2="13.8095" gradientUnits="userSpaceOnUse">
<stop stop-color="#DDB489"/>
<stop offset="0.489583" stop-color="#FED29F"/>
<stop offset="1" stop-color="#EBB37E"/>
</linearGradient>
<linearGradient id="paint2_linear_36_644" x1="27.203" y1="60" x2="53.4366" y2="50.0465" gradientUnits="userSpaceOnUse">
<stop stop-color="#DDB489"/>
<stop offset="0.489583" stop-color="#FED29F"/>
<stop offset="1" stop-color="#EBB37E"/>
</linearGradient>
<linearGradient id="paint3_linear_36_644" x1="43.1142" y1="60" x2="59.2595" y2="56.5542" gradientUnits="userSpaceOnUse">
<stop stop-color="#DDB489"/>
<stop offset="0.489583" stop-color="#FED29F"/>
<stop offset="1" stop-color="#EBB37E"/>
</linearGradient>
</defs>
</svg>
