<svg width="80" height="80" viewBox="0 0 80 80" fill="none" xmlns="http://www.w3.org/2000/svg">
<circle cx="40" cy="40" r="39.5" stroke="url(#paint0_linear_36_631)" stroke-opacity="0.25"/>
<circle cx="40" cy="40" r="29.5" stroke="url(#paint1_linear_36_631)"/>
<path d="M25.6667 29.0333C25.6667 27.5222 26.1222 26.3111 27.0333 25.4C27.9444 24.4889 29.1556 24.0333 30.6667 24.0333H32.9667C34.4778 24.0333 35.6889 24.4889 36.6 25.4C37.5111 26.3111 37.9667 27.5222 37.9667 29.0333V48.1667C37.9667 49.6778 37.5111 50.8889 36.6 51.8C35.6889 52.7111 34.4778 53.1667 32.9667 53.1667H30.6667C29.1556 53.1667 27.9444 52.7111 27.0333 51.8C26.1222 50.8889 25.6667 49.6778 25.6667 48.1667V29.0333ZM30.6333 50.5333H33C33.7111 50.5333 34.2778 50.3222 34.7 49.9C35.1222 49.4778 35.3333 48.9111 35.3333 48.2V29C35.3333 28.2889 35.1222 27.7222 34.7 27.3C34.2778 26.8778 33.7111 26.6667 33 26.6667H30.6333C29.9222 26.6667 29.3556 26.8778 28.9333 27.3C28.5111 27.7222 28.3 28.2889 28.3 29V48.2C28.3 48.9111 28.5111 49.4778 28.9333 49.9C29.3556 50.3222 29.9222 50.5333 30.6333 50.5333Z" fill="white"/>
<path d="M25.6667 29.0333C25.6667 27.5222 26.1222 26.3111 27.0333 25.4C27.9444 24.4889 29.1556 24.0333 30.6667 24.0333H32.9667C34.4778 24.0333 35.6889 24.4889 36.6 25.4C37.5111 26.3111 37.9667 27.5222 37.9667 29.0333V48.1667C37.9667 49.6778 37.5111 50.8889 36.6 51.8C35.6889 52.7111 34.4778 53.1667 32.9667 53.1667H30.6667C29.1556 53.1667 27.9444 52.7111 27.0333 51.8C26.1222 50.8889 25.6667 49.6778 25.6667 48.1667V29.0333ZM30.6333 50.5333H33C33.7111 50.5333 34.2778 50.3222 34.7 49.9C35.1222 49.4778 35.3333 48.9111 35.3333 48.2V29C35.3333 28.2889 35.1222 27.7222 34.7 27.3C34.2778 26.8778 33.7111 26.6667 33 26.6667H30.6333C29.9222 26.6667 29.3556 26.8778 28.9333 27.3C28.5111 27.7222 28.3 28.2889 28.3 29V48.2C28.3 48.9111 28.5111 49.4778 28.9333 49.9C29.3556 50.3222 29.9222 50.5333 30.6333 50.5333Z" fill="url(#paint2_linear_36_631)"/>
<path d="M41.6667 44.3C41.6667 42.7889 42.1 41.4667 42.9667 40.3333C43.8556 39.2 45.0333 38.4222 46.5 38L48.7333 37.3667C49.4222 37.1667 49.9667 36.8111 50.3667 36.3C50.7889 35.7667 51 35.1444 51 34.4333V29C51 28.2889 50.7889 27.7222 50.3667 27.3C49.9444 26.8778 49.3778 26.6667 48.6667 26.6667H46.6333C45.9222 26.6667 45.3556 26.8778 44.9333 27.3C44.5111 27.7222 44.3 28.2889 44.3 29V29.7333C44.3 30.4444 44.0889 31.0111 43.6667 31.4333C43.2444 31.8556 42.6778 32.0667 41.9667 32.0667H41.6667V29.0333C41.6667 27.5222 42.1222 26.3111 43.0333 25.4C43.9444 24.4889 45.1556 24.0333 46.6667 24.0333H48.6333C50.1444 24.0333 51.3556 24.4889 52.2667 25.4C53.1778 26.3111 53.6333 27.5222 53.6333 29.0333V33.9333C53.6333 35.4444 53.1889 36.7667 52.3 37.9C51.4333 39.0333 50.2667 39.8111 48.8 40.2333L46.5667 40.8667C45.8778 41.0667 45.3222 41.4333 44.9 41.9667C44.5 42.4778 44.3 43.0889 44.3 43.8V50.3667H53.6333V53H41.6667V44.3Z" fill="white"/>
<path d="M41.6667 44.3C41.6667 42.7889 42.1 41.4667 42.9667 40.3333C43.8556 39.2 45.0333 38.4222 46.5 38L48.7333 37.3667C49.4222 37.1667 49.9667 36.8111 50.3667 36.3C50.7889 35.7667 51 35.1444 51 34.4333V29C51 28.2889 50.7889 27.7222 50.3667 27.3C49.9444 26.8778 49.3778 26.6667 48.6667 26.6667H46.6333C45.9222 26.6667 45.3556 26.8778 44.9333 27.3C44.5111 27.7222 44.3 28.2889 44.3 29V29.7333C44.3 30.4444 44.0889 31.0111 43.6667 31.4333C43.2444 31.8556 42.6778 32.0667 41.9667 32.0667H41.6667V29.0333C41.6667 27.5222 42.1222 26.3111 43.0333 25.4C43.9444 24.4889 45.1556 24.0333 46.6667 24.0333H48.6333C50.1444 24.0333 51.3556 24.4889 52.2667 25.4C53.1778 26.3111 53.6333 27.5222 53.6333 29.0333V33.9333C53.6333 35.4444 53.1889 36.7667 52.3 37.9C51.4333 39.0333 50.2667 39.8111 48.8 40.2333L46.5667 40.8667C45.8778 41.0667 45.3222 41.4333 44.9 41.9667C44.5 42.4778 44.3 43.0889 44.3 43.8V50.3667H53.6333V53H41.6667V44.3Z" fill="url(#paint3_linear_36_631)"/>
<defs>
<linearGradient id="paint0_linear_36_631" x1="40" y1="0" x2="40" y2="70" gradientUnits="userSpaceOnUse">
<stop stop-color="#7E7E7E"/>
<stop offset="0.46875" stop-color="#F1F1F1"/>
<stop offset="1" stop-color="#7E7E7E"/>
</linearGradient>
<linearGradient id="paint1_linear_36_631" x1="10.7614" y1="70" x2="70" y2="13.8095" gradientUnits="userSpaceOnUse">
<stop stop-color="#DDB489"/>
<stop offset="0.489583" stop-color="#FED29F"/>
<stop offset="1" stop-color="#EBB37E"/>
</linearGradient>
<linearGradient id="paint2_linear_36_631" x1="24.203" y1="60" x2="50.4366" y2="50.0465" gradientUnits="userSpaceOnUse">
<stop stop-color="#DDB489"/>
<stop offset="0.489583" stop-color="#FED29F"/>
<stop offset="1" stop-color="#EBB37E"/>
</linearGradient>
<linearGradient id="paint3_linear_36_631" x1="40.203" y1="60" x2="66.4366" y2="50.0465" gradientUnits="userSpaceOnUse">
<stop stop-color="#DDB489"/>
<stop offset="0.489583" stop-color="#FED29F"/>
<stop offset="1" stop-color="#EBB37E"/>
</linearGradient>
</defs>
</svg>
