<svg width="80" height="80" viewBox="0 0 80 80" fill="none" xmlns="http://www.w3.org/2000/svg">
<circle cx="40" cy="40" r="39.5" stroke="url(#paint0_linear_36_654)" stroke-opacity="0.25"/>
<circle cx="40" cy="40" r="29.5" stroke="url(#paint1_linear_36_654)"/>
<path d="M25.6667 29.0333C25.6667 27.5222 26.1222 26.3111 27.0333 25.4C27.9444 24.4889 29.1556 24.0333 30.6667 24.0333H32.9667C34.4778 24.0333 35.6889 24.4889 36.6 25.4C37.5111 26.3111 37.9667 27.5222 37.9667 29.0333V48.1667C37.9667 49.6778 37.5111 50.8889 36.6 51.8C35.6889 52.7111 34.4778 53.1667 32.9667 53.1667H30.6667C29.1556 53.1667 27.9444 52.7111 27.0333 51.8C26.1222 50.8889 25.6667 49.6778 25.6667 48.1667V29.0333ZM30.6333 50.5333H33C33.7111 50.5333 34.2778 50.3222 34.7 49.9C35.1222 49.4778 35.3333 48.9111 35.3333 48.2V29C35.3333 28.2889 35.1222 27.7222 34.7 27.3C34.2778 26.8778 33.7111 26.6667 33 26.6667H30.6333C29.9222 26.6667 29.3556 26.8778 28.9333 27.3C28.5111 27.7222 28.3 28.2889 28.3 29V48.2C28.3 48.9111 28.5111 49.4778 28.9333 49.9C29.3556 50.3222 29.9222 50.5333 30.6333 50.5333Z" fill="white"/>
<path d="M25.6667 29.0333C25.6667 27.5222 26.1222 26.3111 27.0333 25.4C27.9444 24.4889 29.1556 24.0333 30.6667 24.0333H32.9667C34.4778 24.0333 35.6889 24.4889 36.6 25.4C37.5111 26.3111 37.9667 27.5222 37.9667 29.0333V48.1667C37.9667 49.6778 37.5111 50.8889 36.6 51.8C35.6889 52.7111 34.4778 53.1667 32.9667 53.1667H30.6667C29.1556 53.1667 27.9444 52.7111 27.0333 51.8C26.1222 50.8889 25.6667 49.6778 25.6667 48.1667V29.0333ZM30.6333 50.5333H33C33.7111 50.5333 34.2778 50.3222 34.7 49.9C35.1222 49.4778 35.3333 48.9111 35.3333 48.2V29C35.3333 28.2889 35.1222 27.7222 34.7 27.3C34.2778 26.8778 33.7111 26.6667 33 26.6667H30.6333C29.9222 26.6667 29.3556 26.8778 28.9333 27.3C28.5111 27.7222 28.3 28.2889 28.3 29V48.2C28.3 48.9111 28.5111 49.4778 28.9333 49.9C29.3556 50.3222 29.9222 50.5333 30.6333 50.5333Z" fill="url(#paint2_linear_36_654)"/>
<path d="M46.6667 24.0333H48.6333C50.1444 24.0333 51.3556 24.4889 52.2667 25.4C53.1778 26.3111 53.6333 27.5222 53.6333 29.0333V35.3C53.6333 36.3 53.3333 37.1 52.7333 37.7C52.1333 38.3 51.3333 38.6 50.3333 38.6H50.3V38.6333H50.3333C51.3333 38.6333 52.1333 38.9333 52.7333 39.5333C53.3333 40.1333 53.6333 40.9333 53.6333 41.9333V48.1667C53.6333 49.6778 53.1778 50.8889 52.2667 51.8C51.3556 52.7111 50.1444 53.1667 48.6333 53.1667H46.6667C45.1556 53.1667 43.9444 52.7111 43.0333 51.8C42.1222 50.8889 41.6667 49.6778 41.6667 48.1667V44.4333H41.9667C42.6778 44.4333 43.2444 44.6444 43.6667 45.0667C44.0889 45.4889 44.3 46.0556 44.3 46.7667V48.2333C44.3 48.9444 44.5111 49.5111 44.9333 49.9333C45.3556 50.3556 45.9222 50.5667 46.6333 50.5667H48.6667C49.3778 50.5667 49.9444 50.3556 50.3667 49.9333C50.7889 49.5111 51 48.9444 51 48.2333V42.2333C51 41.5222 50.7889 40.9556 50.3667 40.5333C49.9444 40.1111 49.3778 39.9 48.6667 39.9H46.3V37.3H48.6667C49.3778 37.3 49.9444 37.0889 50.3667 36.6667C50.7889 36.2444 51 35.6778 51 34.9667V28.9667C51 28.2556 50.7889 27.6889 50.3667 27.2667C49.9444 26.8444 49.3778 26.6333 48.6667 26.6333H46.6333C45.9222 26.6333 45.3556 26.8444 44.9333 27.2667C44.5111 27.6889 44.3 28.2556 44.3 28.9667V30.4333C44.3 31.1444 44.0889 31.7111 43.6667 32.1333C43.2444 32.5556 42.6778 32.7667 41.9667 32.7667H41.6667V29.0333C41.6667 27.5222 42.1222 26.3111 43.0333 25.4C43.9444 24.4889 45.1556 24.0333 46.6667 24.0333Z" fill="white"/>
<path d="M46.6667 24.0333H48.6333C50.1444 24.0333 51.3556 24.4889 52.2667 25.4C53.1778 26.3111 53.6333 27.5222 53.6333 29.0333V35.3C53.6333 36.3 53.3333 37.1 52.7333 37.7C52.1333 38.3 51.3333 38.6 50.3333 38.6H50.3V38.6333H50.3333C51.3333 38.6333 52.1333 38.9333 52.7333 39.5333C53.3333 40.1333 53.6333 40.9333 53.6333 41.9333V48.1667C53.6333 49.6778 53.1778 50.8889 52.2667 51.8C51.3556 52.7111 50.1444 53.1667 48.6333 53.1667H46.6667C45.1556 53.1667 43.9444 52.7111 43.0333 51.8C42.1222 50.8889 41.6667 49.6778 41.6667 48.1667V44.4333H41.9667C42.6778 44.4333 43.2444 44.6444 43.6667 45.0667C44.0889 45.4889 44.3 46.0556 44.3 46.7667V48.2333C44.3 48.9444 44.5111 49.5111 44.9333 49.9333C45.3556 50.3556 45.9222 50.5667 46.6333 50.5667H48.6667C49.3778 50.5667 49.9444 50.3556 50.3667 49.9333C50.7889 49.5111 51 48.9444 51 48.2333V42.2333C51 41.5222 50.7889 40.9556 50.3667 40.5333C49.9444 40.1111 49.3778 39.9 48.6667 39.9H46.3V37.3H48.6667C49.3778 37.3 49.9444 37.0889 50.3667 36.6667C50.7889 36.2444 51 35.6778 51 34.9667V28.9667C51 28.2556 50.7889 27.6889 50.3667 27.2667C49.9444 26.8444 49.3778 26.6333 48.6667 26.6333H46.6333C45.9222 26.6333 45.3556 26.8444 44.9333 27.2667C44.5111 27.6889 44.3 28.2556 44.3 28.9667V30.4333C44.3 31.1444 44.0889 31.7111 43.6667 32.1333C43.2444 32.5556 42.6778 32.7667 41.9667 32.7667H41.6667V29.0333C41.6667 27.5222 42.1222 26.3111 43.0333 25.4C43.9444 24.4889 45.1556 24.0333 46.6667 24.0333Z" fill="url(#paint3_linear_36_654)"/>
<defs>
<linearGradient id="paint0_linear_36_654" x1="40" y1="0" x2="40" y2="70" gradientUnits="userSpaceOnUse">
<stop stop-color="#7E7E7E"/>
<stop offset="0.46875" stop-color="#F1F1F1"/>
<stop offset="1" stop-color="#7E7E7E"/>
</linearGradient>
<linearGradient id="paint1_linear_36_654" x1="10.7614" y1="70" x2="70" y2="13.8095" gradientUnits="userSpaceOnUse">
<stop stop-color="#DDB489"/>
<stop offset="0.489583" stop-color="#FED29F"/>
<stop offset="1" stop-color="#EBB37E"/>
</linearGradient>
<linearGradient id="paint2_linear_36_654" x1="24.203" y1="60" x2="50.4366" y2="50.0465" gradientUnits="userSpaceOnUse">
<stop stop-color="#DDB489"/>
<stop offset="0.489583" stop-color="#FED29F"/>
<stop offset="1" stop-color="#EBB37E"/>
</linearGradient>
<linearGradient id="paint3_linear_36_654" x1="40.203" y1="60" x2="66.4366" y2="50.0465" gradientUnits="userSpaceOnUse">
<stop stop-color="#DDB489"/>
<stop offset="0.489583" stop-color="#FED29F"/>
<stop offset="1" stop-color="#EBB37E"/>
</linearGradient>
</defs>
</svg>
