<svg width="80" height="80" viewBox="0 0 80 80" fill="none" xmlns="http://www.w3.org/2000/svg">
<circle cx="40" cy="40" r="29.5" stroke="url(#paint0_linear_36_729)"/>
<circle cx="40" cy="40" r="39.5" stroke="url(#paint1_linear_36_729)" stroke-opacity="0.25"/>
<path d="M25.6667 29.0333C25.6667 27.5222 26.1222 26.3111 27.0333 25.4C27.9444 24.4889 29.1556 24.0333 30.6667 24.0333H32.9667C34.4778 24.0333 35.6889 24.4889 36.6 25.4C37.5111 26.3111 37.9667 27.5222 37.9667 29.0333V48.1667C37.9667 49.6778 37.5111 50.8889 36.6 51.8C35.6889 52.7111 34.4778 53.1667 32.9667 53.1667H30.6667C29.1556 53.1667 27.9444 52.7111 27.0333 51.8C26.1222 50.8889 25.6667 49.6778 25.6667 48.1667V29.0333ZM30.6333 50.5333H33C33.7111 50.5333 34.2778 50.3222 34.7 49.9C35.1222 49.4778 35.3333 48.9111 35.3333 48.2V29C35.3333 28.2889 35.1222 27.7222 34.7 27.3C34.2778 26.8778 33.7111 26.6667 33 26.6667H30.6333C29.9222 26.6667 29.3556 26.8778 28.9333 27.3C28.5111 27.7222 28.3 28.2889 28.3 29V48.2C28.3 48.9111 28.5111 49.4778 28.9333 49.9C29.3556 50.3222 29.9222 50.5333 30.6333 50.5333Z" fill="white"/>
<path d="M25.6667 29.0333C25.6667 27.5222 26.1222 26.3111 27.0333 25.4C27.9444 24.4889 29.1556 24.0333 30.6667 24.0333H32.9667C34.4778 24.0333 35.6889 24.4889 36.6 25.4C37.5111 26.3111 37.9667 27.5222 37.9667 29.0333V48.1667C37.9667 49.6778 37.5111 50.8889 36.6 51.8C35.6889 52.7111 34.4778 53.1667 32.9667 53.1667H30.6667C29.1556 53.1667 27.9444 52.7111 27.0333 51.8C26.1222 50.8889 25.6667 49.6778 25.6667 48.1667V29.0333ZM30.6333 50.5333H33C33.7111 50.5333 34.2778 50.3222 34.7 49.9C35.1222 49.4778 35.3333 48.9111 35.3333 48.2V29C35.3333 28.2889 35.1222 27.7222 34.7 27.3C34.2778 26.8778 33.7111 26.6667 33 26.6667H30.6333C29.9222 26.6667 29.3556 26.8778 28.9333 27.3C28.5111 27.7222 28.3 28.2889 28.3 29V48.2C28.3 48.9111 28.5111 49.4778 28.9333 49.9C29.3556 50.3222 29.9222 50.5333 30.6333 50.5333Z" fill="url(#paint2_linear_36_729)"/>
<path d="M41.1667 45.1L50.5 24.2H53.1333V42.5H55.7667V42.7667C55.7667 43.4778 55.5556 44.0444 55.1333 44.4667C54.7111 44.8889 54.1444 45.1 53.4333 45.1H53.1333V53H50.5V45.1H41.1667ZM45.3333 42.5H50.5V30.3667L45.3333 42.5Z" fill="white"/>
<path d="M41.1667 45.1L50.5 24.2H53.1333V42.5H55.7667V42.7667C55.7667 43.4778 55.5556 44.0444 55.1333 44.4667C54.7111 44.8889 54.1444 45.1 53.4333 45.1H53.1333V53H50.5V45.1H41.1667ZM45.3333 42.5H50.5V30.3667L45.3333 42.5Z" fill="url(#paint3_linear_36_729)"/>
<defs>
<linearGradient id="paint0_linear_36_729" x1="10.7614" y1="70" x2="70" y2="13.8095" gradientUnits="userSpaceOnUse">
<stop stop-color="#DDB489"/>
<stop offset="0.489583" stop-color="#FED29F"/>
<stop offset="1" stop-color="#EBB37E"/>
</linearGradient>
<linearGradient id="paint1_linear_36_729" x1="40" y1="0" x2="40" y2="70" gradientUnits="userSpaceOnUse">
<stop stop-color="#7E7E7E"/>
<stop offset="0.46875" stop-color="#F1F1F1"/>
<stop offset="1" stop-color="#7E7E7E"/>
</linearGradient>
<linearGradient id="paint2_linear_36_729" x1="24.203" y1="60" x2="50.4366" y2="50.0465" gradientUnits="userSpaceOnUse">
<stop stop-color="#DDB489"/>
<stop offset="0.489583" stop-color="#FED29F"/>
<stop offset="1" stop-color="#EBB37E"/>
</linearGradient>
<linearGradient id="paint3_linear_36_729" x1="40.203" y1="60" x2="66.4366" y2="50.0465" gradientUnits="userSpaceOnUse">
<stop stop-color="#DDB489"/>
<stop offset="0.489583" stop-color="#FED29F"/>
<stop offset="1" stop-color="#EBB37E"/>
</linearGradient>
</defs>
</svg>
