<svg width="80" height="80" viewBox="0 0 80 80" fill="none" xmlns="http://www.w3.org/2000/svg">
<circle cx="40" cy="40" r="39.5" stroke="url(#paint0_linear_208_41)" stroke-opacity="0.25"/>
<circle cx="40" cy="40" r="29.5" stroke="url(#paint1_linear_208_41)"/>
<path d="M25.6667 29.0333C25.6667 27.5222 26.1222 26.3111 27.0333 25.4C27.9444 24.4889 29.1556 24.0333 30.6667 24.0333H32.9667C34.4778 24.0333 35.6889 24.4889 36.6 25.4C37.5111 26.3111 37.9667 27.5222 37.9667 29.0333V48.1667C37.9667 49.6778 37.5111 50.8889 36.6 51.8C35.6889 52.7111 34.4778 53.1667 32.9667 53.1667H30.6667C29.1556 53.1667 27.9444 52.7111 27.0333 51.8C26.1222 50.8889 25.6667 49.6778 25.6667 48.1667V29.0333ZM30.6333 50.5333H33C33.7111 50.5333 34.2778 50.3222 34.7 49.9C35.1222 49.4778 35.3333 48.9111 35.3333 48.2V29C35.3333 28.2889 35.1222 27.7222 34.7 27.3C34.2778 26.8778 33.7111 26.6667 33 26.6667H30.6333C29.9222 26.6667 29.3556 26.8778 28.9333 27.3C28.5111 27.7222 28.3 28.2889 28.3 29V48.2C28.3 48.9111 28.5111 49.4778 28.9333 49.9C29.3556 50.3222 29.9222 50.5333 30.6333 50.5333Z" fill="white"/>
<path d="M25.6667 29.0333C25.6667 27.5222 26.1222 26.3111 27.0333 25.4C27.9444 24.4889 29.1556 24.0333 30.6667 24.0333H32.9667C34.4778 24.0333 35.6889 24.4889 36.6 25.4C37.5111 26.3111 37.9667 27.5222 37.9667 29.0333V48.1667C37.9667 49.6778 37.5111 50.8889 36.6 51.8C35.6889 52.7111 34.4778 53.1667 32.9667 53.1667H30.6667C29.1556 53.1667 27.9444 52.7111 27.0333 51.8C26.1222 50.8889 25.6667 49.6778 25.6667 48.1667V29.0333ZM30.6333 50.5333H33C33.7111 50.5333 34.2778 50.3222 34.7 49.9C35.1222 49.4778 35.3333 48.9111 35.3333 48.2V29C35.3333 28.2889 35.1222 27.7222 34.7 27.3C34.2778 26.8778 33.7111 26.6667 33 26.6667H30.6333C29.9222 26.6667 29.3556 26.8778 28.9333 27.3C28.5111 27.7222 28.3 28.2889 28.3 29V48.2C28.3 48.9111 28.5111 49.4778 28.9333 49.9C29.3556 50.3222 29.9222 50.5333 30.6333 50.5333Z" fill="url(#paint2_linear_208_41)"/>
<path d="M41.6667 35.6333V24.2H53.6333V24.5C53.6333 25.2111 53.4222 25.7778 53 26.2C52.5778 26.6222 52.0111 26.8333 51.3 26.8333H44.3V35.4667C44.3 35.7778 44.3889 36.0222 44.5667 36.2C44.7444 36.3778 44.9889 36.4667 45.3 36.4667H47.6333C48.5444 36.4667 49.3667 36.6111 50.1 36.9C50.8333 37.1889 51.4556 37.6 51.9667 38.1333C52.5 38.6444 52.9111 39.2667 53.2 40C53.4889 40.7333 53.6333 41.5556 53.6333 42.4667V48.1667C53.6333 49.6778 53.1778 50.8889 52.2667 51.8C51.3556 52.7111 50.1444 53.1667 48.6333 53.1667H46.6667C45.1556 53.1667 43.9444 52.7111 43.0333 51.8C42.1222 50.8889 41.6667 49.6778 41.6667 48.1667V45.1333L44.3 46.4667V48.2C44.3 48.9111 44.5111 49.4778 44.9333 49.9C45.3556 50.3222 45.9222 50.5333 46.6333 50.5333H48.6667C49.3778 50.5333 49.9444 50.3222 50.3667 49.9C50.7889 49.4778 51 48.9111 51 48.2V41.9667C51 41.0556 50.7222 40.3333 50.1667 39.8C49.6333 39.2444 48.9111 38.9667 48 38.9667H45C44 38.9667 43.1889 38.6667 42.5667 38.0667C41.9667 37.4444 41.6667 36.6333 41.6667 35.6333Z" fill="white"/>
<path d="M41.6667 35.6333V24.2H53.6333V24.5C53.6333 25.2111 53.4222 25.7778 53 26.2C52.5778 26.6222 52.0111 26.8333 51.3 26.8333H44.3V35.4667C44.3 35.7778 44.3889 36.0222 44.5667 36.2C44.7444 36.3778 44.9889 36.4667 45.3 36.4667H47.6333C48.5444 36.4667 49.3667 36.6111 50.1 36.9C50.8333 37.1889 51.4556 37.6 51.9667 38.1333C52.5 38.6444 52.9111 39.2667 53.2 40C53.4889 40.7333 53.6333 41.5556 53.6333 42.4667V48.1667C53.6333 49.6778 53.1778 50.8889 52.2667 51.8C51.3556 52.7111 50.1444 53.1667 48.6333 53.1667H46.6667C45.1556 53.1667 43.9444 52.7111 43.0333 51.8C42.1222 50.8889 41.6667 49.6778 41.6667 48.1667V45.1333L44.3 46.4667V48.2C44.3 48.9111 44.5111 49.4778 44.9333 49.9C45.3556 50.3222 45.9222 50.5333 46.6333 50.5333H48.6667C49.3778 50.5333 49.9444 50.3222 50.3667 49.9C50.7889 49.4778 51 48.9111 51 48.2V41.9667C51 41.0556 50.7222 40.3333 50.1667 39.8C49.6333 39.2444 48.9111 38.9667 48 38.9667H45C44 38.9667 43.1889 38.6667 42.5667 38.0667C41.9667 37.4444 41.6667 36.6333 41.6667 35.6333Z" fill="url(#paint3_linear_208_41)"/>
<defs>
<linearGradient id="paint0_linear_208_41" x1="40" y1="0" x2="40" y2="70" gradientUnits="userSpaceOnUse">
<stop stop-color="#7E7E7E"/>
<stop offset="0.46875" stop-color="#F1F1F1"/>
<stop offset="1" stop-color="#7E7E7E"/>
</linearGradient>
<linearGradient id="paint1_linear_208_41" x1="10.7614" y1="70" x2="70" y2="13.8095" gradientUnits="userSpaceOnUse">
<stop stop-color="#DDB489"/>
<stop offset="0.489583" stop-color="#FED29F"/>
<stop offset="1" stop-color="#EBB37E"/>
</linearGradient>
<linearGradient id="paint2_linear_208_41" x1="24.203" y1="60" x2="50.4366" y2="50.0465" gradientUnits="userSpaceOnUse">
<stop stop-color="#DDB489"/>
<stop offset="0.489583" stop-color="#FED29F"/>
<stop offset="1" stop-color="#EBB37E"/>
</linearGradient>
<linearGradient id="paint3_linear_208_41" x1="40.203" y1="60" x2="66.4366" y2="50.0465" gradientUnits="userSpaceOnUse">
<stop stop-color="#DDB489"/>
<stop offset="0.489583" stop-color="#FED29F"/>
<stop offset="1" stop-color="#EBB37E"/>
</linearGradient>
</defs>
</svg>
