<svg width="1442" height="802" viewBox="0 0 1442 802" fill="none" xmlns="http://www.w3.org/2000/svg">
<path d="M1441 201H1081L1441 1V201Z" stroke="#161D28" stroke-width="2" stroke-linejoin="round"/>
<path d="M1081 1L901 101V1H1081Z" stroke="#161D28" stroke-width="2" stroke-linejoin="round"/>
<path d="M721 1V101H901L721 1Z" stroke="#161D28" stroke-width="2" stroke-linejoin="round"/>
<path d="M901 101V201H721L901 101Z" stroke="#161D28" stroke-width="2" stroke-linejoin="round"/>
<path d="M1081 201V101H901L1081 201Z" stroke="#161D28" stroke-width="2" stroke-linejoin="round"/>
<path d="M1081 301L901 201V301H1081Z" stroke="#161D28" stroke-width="2" stroke-linejoin="round"/>
<path d="M811 201H901L811 251V201Z" stroke="#161D28" stroke-width="2" stroke-linejoin="round"/>
<path d="M811 201V251L721 201H811Z" stroke="#161D28" stroke-width="2" stroke-linejoin="round"/>
<path d="M721 251H811L721 301V251Z" stroke="#161D28" stroke-width="2" stroke-linejoin="round"/>
<path d="M901 301H811V251L901 301Z" stroke="#161D28" stroke-width="2" stroke-linejoin="round"/>
<path d="M901 301V351L811 301H901Z" stroke="#161D28" stroke-width="2" stroke-linejoin="round"/>
<path d="M721 351V301H811L721 351Z" stroke="#161D28" stroke-width="2" stroke-linejoin="round"/>
<path d="M721 351L811 401H721V351Z" stroke="#161D28" stroke-width="2" stroke-linejoin="round"/>
<path d="M901 401V351H811L901 401Z" stroke="#161D28" stroke-width="2" stroke-linejoin="round"/>
<path d="M1081 401H901L1081 301V401Z" stroke="#161D28" stroke-width="2" stroke-linejoin="round"/>
<path d="M1261 301L1441 201H1261V301Z" stroke="#161D28" stroke-width="2" stroke-linejoin="round"/>
<path d="M1261 201H1081L1261 301V201Z" stroke="#161D28" stroke-width="2" stroke-linejoin="round"/>
<path d="M1261 401V301H1081L1261 401Z" stroke="#161D28" stroke-width="2" stroke-linejoin="round"/>
<path d="M1441 401H1261V301L1441 401Z" stroke="#161D28" stroke-width="2" stroke-linejoin="round"/>
<path d="M541 101H721L541 1V101Z" stroke="#161D28" stroke-width="2" stroke-linejoin="round"/>
<path d="M541 101V1L361 101H541Z" stroke="#161D28" stroke-width="2" stroke-linejoin="round"/>
<path d="M361 101L541 201H361V101Z" stroke="#161D28" stroke-width="2" stroke-linejoin="round"/>
<path d="M541 101V201H721L541 101Z" stroke="#161D28" stroke-width="2" stroke-linejoin="round"/>
<path d="M361 1L181 101H361V1Z" stroke="#161D28" stroke-width="2" stroke-linejoin="round"/>
<path d="M181 1V101L1 1H181Z" stroke="#161D28" stroke-width="2" stroke-linejoin="round"/>
<path d="M181 201L1 101V201H181Z" stroke="#161D28" stroke-width="2" stroke-linejoin="round"/>
<path d="M181 101L361 201H181V101Z" stroke="#161D28" stroke-width="2" stroke-linejoin="round"/>
<path d="M361 201V301H181L361 201Z" stroke="#161D28" stroke-width="2" stroke-linejoin="round"/>
<path d="M181 301L1 201V301H181Z" stroke="#161D28" stroke-width="2" stroke-linejoin="round"/>
<path d="M181 301H1V401L181 301Z" stroke="#161D28" stroke-width="2" stroke-linejoin="round"/>
<path d="M361 301H181L361 401V301Z" stroke="#161D28" stroke-width="2" stroke-linejoin="round"/>
<path d="M721 301V201L541 301H721Z" stroke="#161D28" stroke-width="2" stroke-linejoin="round"/>
<path d="M451 201V251H541L451 201Z" stroke="#161D28" stroke-width="2" stroke-linejoin="round"/>
<path d="M361 201H451V251L361 201Z" stroke="#161D28" stroke-width="2" stroke-linejoin="round"/>
<path d="M451 251V301L361 251H451Z" stroke="#161D28" stroke-width="2" stroke-linejoin="round"/>
<path d="M541 301V251H451L541 301Z" stroke="#161D28" stroke-width="2" stroke-linejoin="round"/>
<path d="M361 301L541 401H361V301Z" stroke="#161D28" stroke-width="2" stroke-linejoin="round"/>
<path d="M631 351H721V301L631 351Z" stroke="#161D28" stroke-width="2" stroke-linejoin="round"/>
<path d="M541 301V351L631 301H541Z" stroke="#161D28" stroke-width="2" stroke-linejoin="round"/>
<path d="M631 401V351L541 401H631Z" stroke="#161D28" stroke-width="2" stroke-linejoin="round"/>
<path d="M631 401L721 351H631V401Z" stroke="#161D28" stroke-width="2" stroke-linejoin="round"/>
<path d="M721 501V401H541L721 501Z" stroke="#161D28" stroke-width="2" stroke-linejoin="round"/>
<path d="M361 501L541 401V501H361Z" stroke="#161D28" stroke-width="2" stroke-linejoin="round"/>
<path d="M541 601L361 501H541V601Z" stroke="#161D28" stroke-width="2" stroke-linejoin="round"/>
<path d="M631 551H721L631 501V551Z" stroke="#161D28" stroke-width="2" stroke-linejoin="round"/>
<path d="M631 551V501H541L631 551Z" stroke="#161D28" stroke-width="2" stroke-linejoin="round"/>
<path d="M541 551V601L631 551H541Z" stroke="#161D28" stroke-width="2" stroke-linejoin="round"/>
<path d="M631 601L721 551V601H631Z" stroke="#161D28" stroke-width="2" stroke-linejoin="round"/>
<path d="M361 501H181L361 401V501Z" stroke="#161D28" stroke-width="2" stroke-linejoin="round"/>
<path d="M1 401L181 501H1V401Z" stroke="#161D28" stroke-width="2" stroke-linejoin="round"/>
<path d="M181 501V601H1L181 501Z" stroke="#161D28" stroke-width="2" stroke-linejoin="round"/>
<path d="M361 501H181L361 601V501Z" stroke="#161D28" stroke-width="2" stroke-linejoin="round"/>
<path d="M361 801L1 601V801H361Z" stroke="#161D28" stroke-width="2" stroke-linejoin="round"/>
<path d="M541 601L721 701H541V601Z" stroke="#161D28" stroke-width="2" stroke-linejoin="round"/>
<path d="M361 701H541V601L361 701Z" stroke="#161D28" stroke-width="2" stroke-linejoin="round"/>
<path d="M541 701H361V801L541 701Z" stroke="#161D28" stroke-width="2" stroke-linejoin="round"/>
<path d="M721 801V701H541L721 801Z" stroke="#161D28" stroke-width="2" stroke-linejoin="round"/>
<path d="M1441 501L1261 401H1441V501Z" stroke="#161D28" stroke-width="2" stroke-linejoin="round"/>
<path d="M1261 401V501H1081L1261 401Z" stroke="#161D28" stroke-width="2" stroke-linejoin="round"/>
<path d="M1261 501L1081 601V501H1261Z" stroke="#161D28" stroke-width="2" stroke-linejoin="round"/>
<path d="M1261 601H1441V501L1261 601Z" stroke="#161D28" stroke-width="2" stroke-linejoin="round"/>
<path d="M1081 401L901 501H1081V401Z" stroke="#161D28" stroke-width="2" stroke-linejoin="round"/>
<path d="M901 501V401L721 501H901Z" stroke="#161D28" stroke-width="2" stroke-linejoin="round"/>
<path d="M901 501V601L721 501H901Z" stroke="#161D28" stroke-width="2" stroke-linejoin="round"/>
<path d="M1081 501V601L901 501H1081Z" stroke="#161D28" stroke-width="2" stroke-linejoin="round"/>
<path d="M1081 601L901 701H1081V601Z" stroke="#161D28" stroke-width="2" stroke-linejoin="round"/>
<path d="M901 601V701L721 601H901Z" stroke="#161D28" stroke-width="2" stroke-linejoin="round"/>
<path d="M901 801H721L901 701V801Z" stroke="#161D28" stroke-width="2" stroke-linejoin="round"/>
<path d="M1081 801V701H901L1081 801Z" stroke="#161D28" stroke-width="2" stroke-linejoin="round"/>
<path d="M1441 701H1261V601L1441 701Z" stroke="#161D28" stroke-width="2" stroke-linejoin="round"/>
<path d="M1261 601V701L1081 601H1261Z" stroke="#161D28" stroke-width="2" stroke-linejoin="round"/>
<path d="M1081 701V801H1261L1081 701Z" stroke="#161D28" stroke-width="2" stroke-linejoin="round"/>
<path d="M1261 801H1441L1261 701V801Z" stroke="#161D28" stroke-width="2" stroke-linejoin="round"/>
<mask id="mask0_215_13" style="mask-type:alpha" maskUnits="userSpaceOnUse" x="1" y="1" width="1440" height="800">
<rect x="1" y="1" width="1440" height="800" fill="#D9D9D9"/>
</mask>
<g mask="url(#mask0_215_13)">
<path fill-rule="evenodd" clip-rule="evenodd" d="M-27.9917 7.29495C-27.9917 28.9022 -27.6865 35.7339 -26.6983 36.2027C-25.6842 36.6831 -25.679 36.9459 -26.6734 37.42C-27.6709 37.8962 -27.9493 95.8611 -27.9741 308.073C-28.0021 548.221 -27.8334 578.052 -26.4468 577.511C-25.589 577.177 -24.8874 577.442 -24.8874 578.1C-24.8874 578.759 -25.5776 579.566 -26.422 579.895C-27.7661 580.419 -27.9596 595.445 -27.9783 700.747L-28 821L715.992 820.998L1459.98 820.996L1459.98 646.086C1459.98 492.063 1459.8 471.104 1458.44 470.574C1456.43 469.793 1456.44 467.805 1458.45 467.805C1459.82 467.805 1460 439.948 1460 223.402V-21H1111.89C851.628 -21 763.676 -20.6962 763.382 -19.7985C763.086 -18.8966 762.435 -18.8966 760.776 -19.7985C759.129 -20.6941 658.376 -21 365.287 -21H-27.9917V7.29495ZM277.264 -16.7952C277.264 -16.2171 276.77 -15.744 276.168 -15.744C275.566 -15.744 275.36 -16.2171 275.712 -16.7952C276.064 -17.3734 276.556 -17.8464 276.808 -17.8464C277.059 -17.8464 277.264 -17.3734 277.264 -16.7952ZM1193.03 -16.7952C1193.03 -16.2171 1192.54 -15.744 1191.93 -15.744C1191.33 -15.744 1191.13 -16.2171 1191.48 -16.7952C1191.83 -17.3734 1192.32 -17.8464 1192.57 -17.8464C1192.83 -17.8464 1193.03 -17.3734 1193.03 -16.7952ZM12.3641 -9.43688C12.3641 -8.85873 11.8705 -8.38569 11.2683 -8.38569C10.6661 -8.38569 10.4601 -8.85873 10.812 -9.43688C11.1638 -10.015 11.6563 -10.4881 11.9078 -10.4881C12.1592 -10.4881 12.3641 -10.015 12.3641 -9.43688ZM421.569 -9.50941C421.897 -8.9712 421.691 -8.23432 421.113 -7.87061C420.534 -7.50794 420.061 -7.94839 420.061 -8.84926C420.061 -10.6962 420.682 -10.9674 421.569 -9.50941ZM927.613 -9.43688C927.965 -8.85873 927.759 -8.38569 927.157 -8.38569C926.555 -8.38569 926.061 -8.85873 926.061 -9.43688C926.061 -10.015 926.266 -10.4881 926.518 -10.4881C926.769 -10.4881 927.262 -10.015 927.613 -9.43688ZM1336.53 -8.18807C1336.2 -7.35026 1335.96 -7.5994 1335.91 -8.82404C1335.87 -9.93199 1336.11 -10.5522 1336.45 -10.2032C1336.8 -9.85421 1336.83 -8.94703 1336.53 -8.18807ZM349.697 -4.62662C349.697 -3.78672 349.057 -3.44508 348.145 -3.80039C347.292 -4.13362 346.593 -5.05026 346.593 -5.8376C346.593 -6.6775 347.234 -7.01914 348.145 -6.66384C348.999 -6.33061 349.697 -5.41397 349.697 -4.62662ZM1264.51 -4.94303C1264.38 -3.68581 1262.96 -3.92968 1262.52 -5.28467C1262.29 -5.97846 1262.66 -6.35689 1263.34 -6.12563C1264.03 -5.89436 1264.55 -5.36246 1264.51 -4.94303ZM342.454 -4.18092C342.454 -3.60276 341.988 -3.12973 341.419 -3.12973C340.85 -3.12973 340.384 -3.60276 340.384 -4.18092C340.384 -4.75907 340.85 -5.23211 341.419 -5.23211C341.988 -5.23211 342.454 -4.75907 342.454 -4.18092ZM606.836 -4.18092C606.485 -3.60276 605.526 -3.12973 604.706 -3.12973C603.885 -3.12973 603.215 -3.60276 603.215 -4.18092C603.215 -4.75907 604.174 -5.23211 605.345 -5.23211C606.517 -5.23211 607.188 -4.75907 606.836 -4.18092ZM1258.22 -4.18092C1258.22 -3.60276 1257.76 -3.12973 1257.19 -3.12973C1256.62 -3.12973 1256.15 -3.60276 1256.15 -4.18092C1256.15 -4.75907 1256.62 -5.23211 1257.19 -5.23211C1257.76 -5.23211 1258.22 -4.75907 1258.22 -4.18092ZM442.442 11.2769C441.59 12.1431 438.687 10.7555 438.687 9.48038C438.687 8.70355 439.348 8.71932 440.846 9.53294C442.033 10.1784 442.751 10.9626 442.442 11.2769ZM1357.78 11.3368C1355.84 11.9948 1353.18 10.7208 1353.93 9.48879C1354.36 8.78975 1355.35 8.84651 1356.84 9.65803C1358.31 10.4538 1358.64 11.0467 1357.78 11.3368ZM828.276 10.5358C827.924 11.1139 827.199 11.587 826.663 11.587C826.127 11.587 825.689 11.1139 825.689 10.5358C825.689 9.95762 826.416 9.48458 827.302 9.48458C828.189 9.48458 828.628 9.95762 828.276 10.5358ZM241.146 12.2335C242.347 13.703 242.27 13.8796 240.582 13.5474C239.509 13.3362 238.437 12.573 238.201 11.8498C237.587 9.97444 239.505 10.2246 241.146 12.2335ZM1156.91 12.2335C1158.11 13.703 1158.04 13.8796 1156.35 13.5474C1155.28 13.3362 1154.2 12.573 1153.97 11.8498C1153.35 9.97444 1155.27 10.2246 1156.91 12.2335ZM713.373 24.1287C713.701 24.667 713.495 25.4038 712.916 25.7676C712.338 26.1302 711.865 25.6898 711.865 24.7889C711.865 22.942 712.486 22.6707 713.373 24.1287ZM760.962 25.3418C760.628 25.8895 759.915 26.0608 759.376 25.7224C758.837 25.3839 758.668 24.6596 759.002 24.1119C759.335 23.5643 760.048 23.3929 760.587 23.7314C761.126 24.0699 761.295 24.7942 760.962 25.3418ZM874.323 26.3037C874.323 26.8818 873.829 27.3549 873.227 27.3549C872.625 27.3549 872.419 26.8818 872.771 26.3037C873.123 25.7255 873.615 25.2525 873.867 25.2525C874.118 25.2525 874.323 25.7255 874.323 26.3037ZM638.461 28.9316C638.461 29.5098 637.282 30.1321 635.842 30.315C633.975 30.5526 633.223 30.1552 633.223 28.9316C633.223 27.7081 633.975 27.3107 635.842 27.5483C637.282 27.7312 638.461 28.3535 638.461 28.9316ZM439.722 32.0232C439.722 32.2786 439.256 32.779 438.687 33.1364C438.118 33.4938 437.652 33.2846 437.652 32.6728C437.652 32.061 438.118 31.5596 438.687 31.5596C439.256 31.5596 439.722 31.7678 439.722 32.0232ZM1355.49 32.0232C1355.49 32.2786 1355.02 32.779 1354.45 33.1364C1353.88 33.4938 1353.42 33.2846 1353.42 32.6728C1353.42 32.061 1353.88 31.5596 1354.45 31.5596C1355.02 31.5596 1355.49 31.7678 1355.49 32.0232ZM383.845 34.7132C383.845 35.2914 383.379 35.7644 382.81 35.7644C382.241 35.7644 381.775 35.2914 381.775 34.7132C381.775 34.1351 382.241 33.662 382.81 33.662C383.379 33.662 383.845 34.1351 383.845 34.7132ZM1299.09 34.7132C1299.45 35.2914 1299.24 35.7644 1298.64 35.7644C1298.04 35.7644 1297.54 35.2914 1297.54 34.7132C1297.54 34.1351 1297.75 33.662 1298 33.662C1298.25 33.662 1298.74 34.1351 1299.09 34.7132ZM1399.98 37.8668C1399.98 38.4449 1399.78 38.918 1399.53 38.918C1399.28 38.918 1398.78 38.4449 1398.43 37.8668C1398.08 37.2886 1398.29 36.8156 1398.89 36.8156C1399.49 36.8156 1399.98 37.2886 1399.98 37.8668ZM836.554 38.918C836.906 39.4961 836.467 39.9692 835.581 39.9692C834.694 39.9692 833.967 39.4961 833.967 38.918C833.967 38.3398 834.405 37.8668 834.941 37.8668C835.477 37.8668 836.202 38.3398 836.554 38.918ZM372.225 47.1309C372.451 47.8174 371.897 48.3787 370.996 48.3787C370.095 48.3787 369.358 47.6292 369.358 46.7147C369.358 44.8583 371.586 45.181 372.225 47.1309ZM1090.59 46.2763C1090.59 46.8545 1090.1 47.3275 1089.49 47.3275C1088.89 47.3275 1088.68 46.8545 1089.04 46.2763C1089.39 45.6982 1089.88 45.2251 1090.13 45.2251C1090.38 45.2251 1090.59 45.6982 1090.59 46.2763ZM1287.99 47.1309C1288.22 47.8174 1287.66 48.3787 1286.76 48.3787C1285.86 48.3787 1285.12 47.6292 1285.12 46.7147C1285.12 44.8583 1287.35 45.181 1287.99 47.1309ZM136.536 49.4299C136.536 50.0081 135.837 50.4811 134.984 50.4811C134.13 50.4811 133.432 50.0081 133.432 49.4299C133.432 48.8517 134.13 48.3787 134.984 48.3787C135.837 48.3787 136.536 48.8517 136.536 49.4299ZM477.491 49.4299C477.843 50.0081 477.637 50.4811 477.034 50.4811C476.432 50.4811 475.939 50.0081 475.939 49.4299C475.939 48.8517 476.144 48.3787 476.395 48.3787C476.646 48.3787 477.139 48.8517 477.491 49.4299ZM1052.3 49.4299C1052.3 50.0081 1051.6 50.4811 1050.75 50.4811C1049.9 50.4811 1049.2 50.0081 1049.2 49.4299C1049.2 48.8517 1049.9 48.3787 1050.75 48.3787C1051.6 48.3787 1052.3 48.8517 1052.3 49.4299ZM1393.26 49.4299C1393.61 50.0081 1393.14 50.4811 1392.22 50.4811C1391.3 50.4811 1390.84 50.0081 1391.19 49.4299C1391.54 48.8517 1392.01 48.3787 1392.22 48.3787C1392.44 48.3787 1392.91 48.8517 1393.26 49.4299ZM198.104 53.6347C198.456 54.2128 197.991 54.6859 197.07 54.6859C196.149 54.6859 195.683 54.2128 196.035 53.6347C196.387 53.0565 196.852 52.5835 197.07 52.5835C197.287 52.5835 197.753 53.0565 198.104 53.6347ZM1113.87 53.6347C1114.22 54.2128 1113.76 54.6859 1112.84 54.6859C1111.92 54.6859 1111.45 54.2128 1111.8 53.6347C1112.15 53.0565 1112.62 52.5835 1112.84 52.5835C1113.05 52.5835 1113.52 53.0565 1113.87 53.6347ZM797.751 57.8394C797.751 58.4176 797.285 58.8906 796.716 58.8906C796.147 58.8906 795.681 58.4176 795.681 57.8394C795.681 57.2613 796.147 56.7882 796.716 56.7882C797.285 56.7882 797.751 57.2613 797.751 57.8394ZM-12.4703 58.303C-12.4703 58.5585 -12.9359 59.0588 -13.505 59.4162C-14.0741 59.7736 -14.5398 59.5644 -14.5398 58.9527C-14.5398 58.3409 -14.0741 57.8394 -13.505 57.8394C-12.9359 57.8394 -12.4703 58.0476 -12.4703 58.303ZM3.5686 62.0442C3.92042 62.6224 3.7145 63.0954 3.11227 63.0954C2.51004 63.0954 2.01645 62.6224 2.01645 62.0442C2.01645 61.4661 2.22134 60.993 2.47279 60.993C2.72423 60.993 3.21678 61.4661 3.5686 62.0442ZM414.888 70.9793C414.888 72.4247 414.422 73.6073 413.853 73.6073C413.284 73.6073 412.818 72.4247 412.818 70.9793C412.818 69.534 413.284 68.3514 413.853 68.3514C414.422 68.3514 414.888 69.534 414.888 70.9793ZM1330.65 70.9793C1330.65 72.4247 1330.19 73.6073 1329.62 73.6073C1329.05 73.6073 1328.58 72.4247 1328.58 70.9793C1328.58 69.534 1329.05 68.3514 1329.62 68.3514C1330.19 68.3514 1330.65 69.534 1330.65 70.9793ZM1215.8 78.364C1215.8 81.4745 1205.1 83.2363 1199.76 81.0046C1197.85 80.2099 1197.83 80.0795 1199.5 79.3878C1200.5 78.9747 1202.52 78.9442 1204 79.3206C1205.47 79.6969 1207.22 79.5571 1207.88 79.0094C1208.53 78.4617 1210.23 77.7963 1211.66 77.5304C1213.08 77.2644 1214.59 76.9827 1215.02 76.9039C1215.45 76.825 1215.8 77.482 1215.8 78.364ZM383.845 78.8633C383.845 79.4415 383.379 79.9145 382.81 79.9145C382.241 79.9145 381.775 79.4415 381.775 78.8633C381.775 78.2851 382.241 77.8121 382.81 77.8121C383.379 77.8121 383.845 78.2851 383.845 78.8633ZM1299.09 78.8633C1299.45 79.4415 1299.24 79.9145 1298.64 79.9145C1298.04 79.9145 1297.54 79.4415 1297.54 78.8633C1297.54 78.2851 1297.75 77.8121 1298 77.8121C1298.25 77.8121 1298.74 78.2851 1299.09 78.8633ZM89.9715 86.2216C89.9715 86.7998 89.5338 87.2728 88.9977 87.2728C88.4617 87.2728 87.7364 86.7998 87.3845 86.2216C87.0327 85.6435 87.4715 85.1704 88.3583 85.1704C89.2451 85.1704 89.9715 85.6435 89.9715 86.2216ZM1005.74 85.634C1005.74 86.743 1003.75 87.2098 1003.16 86.2385C1002.8 85.6508 1003.24 85.1704 1004.12 85.1704C1005.01 85.1704 1005.74 85.3786 1005.74 85.634ZM1249.43 87.2728C1249.78 87.851 1249.57 88.324 1248.97 88.324C1248.37 88.324 1247.87 87.851 1247.87 87.2728C1247.87 86.6947 1248.08 86.2216 1248.33 86.2216C1248.58 86.2216 1249.07 86.6947 1249.43 87.2728ZM225.526 89.3752C225.526 89.9534 225.06 90.4264 224.491 90.4264C223.922 90.4264 223.456 89.9534 223.456 89.3752C223.456 88.7971 223.922 88.324 224.491 88.324C225.06 88.324 225.526 88.7971 225.526 89.3752ZM1141.29 89.3752C1141.29 89.9534 1140.57 90.4264 1139.68 90.4264C1138.79 90.4264 1138.35 89.9534 1138.71 89.3752C1139.06 88.7971 1139.78 88.324 1140.32 88.324C1140.85 88.324 1141.29 88.7971 1141.29 89.3752ZM615.632 91.3147C615.632 93.0386 611.55 95.9294 609.979 95.3176C607.722 94.4378 608.009 93.0365 610.717 91.7089C613.589 90.3024 615.632 90.1384 615.632 91.3147ZM206.382 92.5288C206.031 93.107 205.305 93.58 204.769 93.58C204.233 93.58 203.796 93.107 203.796 92.5288C203.796 91.9506 204.522 91.4776 205.409 91.4776C206.296 91.4776 206.734 91.9506 206.382 92.5288ZM1121.63 92.5288C1121.63 93.107 1121.17 93.58 1120.6 93.58C1120.03 93.58 1119.56 93.107 1119.56 92.5288C1119.56 91.9506 1120.03 91.4776 1120.6 91.4776C1121.17 91.4776 1121.63 91.9506 1121.63 92.5288ZM450.07 103.041C450.07 103.619 449.604 104.092 449.035 104.092C448.466 104.092 448 103.619 448 103.041C448 102.463 448.466 101.99 449.035 101.99C449.604 101.99 450.07 102.463 450.07 103.041ZM1365.84 103.041C1365.84 103.619 1365.37 104.092 1364.8 104.092C1364.23 104.092 1363.77 103.619 1363.77 103.041C1363.77 102.463 1364.23 101.99 1364.8 101.99C1365.37 101.99 1365.84 102.463 1365.84 103.041ZM750.669 104.092C751.021 104.67 750.815 105.143 750.212 105.143C749.61 105.143 749.117 104.67 749.117 104.092C749.117 103.514 749.321 103.041 749.573 103.041C749.824 103.041 750.317 103.514 750.669 104.092ZM304.168 106.194C304.168 106.772 303.441 107.245 302.555 107.245C301.668 107.245 301.229 106.772 301.581 106.194C301.933 105.616 302.658 105.143 303.194 105.143C303.73 105.143 304.168 105.616 304.168 106.194ZM1218.9 106.194C1218.9 106.772 1218.41 107.245 1217.8 107.245C1217.2 107.245 1217 106.772 1217.35 106.194C1217.7 105.616 1218.19 105.143 1218.44 105.143C1218.69 105.143 1218.9 105.616 1218.9 106.194ZM295.89 107.245C295.89 107.824 295.452 108.297 294.916 108.297C294.38 108.297 293.655 107.824 293.303 107.245C292.951 106.667 293.39 106.194 294.276 106.194C295.163 106.194 295.89 106.667 295.89 107.245ZM1211.66 107.245C1211.66 107.824 1211.22 108.297 1210.68 108.297C1210.15 108.297 1209.42 107.824 1209.07 107.245C1208.72 106.667 1209.16 106.194 1210.04 106.194C1210.93 106.194 1211.66 106.667 1211.66 107.245ZM289.87 113.781C289.128 114.534 288.646 114.596 288.646 113.938C288.646 112.535 289.87 111.292 290.561 111.994C290.854 112.292 290.544 113.096 289.87 113.781ZM1206.48 112.965C1206.48 113.22 1206.02 113.721 1205.45 114.078C1204.88 114.436 1204.41 114.226 1204.41 113.615C1204.41 113.003 1204.88 112.501 1205.45 112.501C1206.02 112.501 1206.48 112.71 1206.48 112.965ZM635.292 117.757C635.292 118.336 634.827 118.809 634.258 118.809C633.689 118.809 633.223 118.336 633.223 117.757C633.223 117.179 633.689 116.706 634.258 116.706C634.827 116.706 635.292 117.179 635.292 117.757ZM1034.71 117.757C1034.71 118.336 1034.22 118.809 1033.62 118.809C1033.01 118.809 1032.81 118.336 1033.16 117.757C1033.51 117.179 1034 116.706 1034.26 116.706C1034.51 116.706 1034.71 117.179 1034.71 117.757ZM280.886 118.809C281.237 119.387 281.031 119.86 280.429 119.86C279.827 119.86 279.333 119.387 279.333 118.809C279.333 118.23 279.538 117.757 279.79 117.757C280.041 117.757 280.534 118.23 280.886 118.809ZM1197.17 119.327C1197.17 119.489 1195.77 119.829 1194.07 120.084C1190.79 120.573 1189.67 119.253 1192.77 118.554C1194.45 118.175 1197.17 118.653 1197.17 119.327ZM277.264 119.272C277.264 119.528 276.798 120.028 276.229 120.385C275.66 120.743 275.194 120.534 275.194 119.922C275.194 119.31 275.66 118.809 276.229 118.809C276.798 118.809 277.264 119.017 277.264 119.272ZM366.254 123.539C366.254 124.406 365.788 125.116 365.219 125.116C364.65 125.116 364.184 124.406 364.184 123.539C364.184 122.672 364.65 121.962 365.219 121.962C365.788 121.962 366.254 122.672 366.254 123.539ZM1282.02 123.539C1282.02 124.406 1281.55 125.116 1280.99 125.116C1280.42 125.116 1279.95 124.406 1279.95 123.539C1279.95 122.672 1280.42 121.962 1280.99 121.962C1281.55 121.962 1282.02 122.672 1282.02 123.539ZM523.538 124.065C523.538 124.643 523.072 125.116 522.503 125.116C521.934 125.116 521.468 124.643 521.468 124.065C521.468 123.486 521.934 123.013 522.503 123.013C523.072 123.013 523.538 123.486 523.538 124.065ZM676.683 126.167C676.683 126.745 675.985 127.218 675.131 127.218C674.277 127.218 673.579 126.745 673.579 126.167C673.579 125.589 674.277 125.116 675.131 125.116C675.985 125.116 676.683 125.589 676.683 126.167ZM303.65 131.423C304.002 132.001 303.537 132.474 302.616 132.474C301.695 132.474 301.229 132.001 301.581 131.423C301.933 130.845 302.398 130.372 302.616 130.372C302.833 130.372 303.299 130.845 303.65 131.423ZM625.98 131.423C625.98 132.001 625.514 132.474 624.945 132.474C624.376 132.474 623.91 132.001 623.91 131.423C623.91 130.845 624.376 130.372 624.945 130.372C625.514 130.372 625.98 130.845 625.98 131.423ZM1218.9 131.423C1218.9 132.001 1218.41 132.474 1217.8 132.474C1217.2 132.474 1217 132.001 1217.35 131.423C1217.7 130.845 1218.19 130.372 1218.44 130.372C1218.69 130.372 1218.9 130.845 1218.9 131.423ZM516.295 131.886C516.295 132.142 515.829 132.642 515.26 133C514.691 133.357 514.225 133.148 514.225 132.536C514.225 131.924 514.691 131.423 515.26 131.423C515.829 131.423 516.295 131.631 516.295 131.886ZM210.004 134.576C210.004 135.155 209.539 135.628 208.969 135.628C208.4 135.628 207.935 135.155 207.935 134.576C207.935 133.998 208.4 133.525 208.969 133.525C209.539 133.525 210.004 133.998 210.004 134.576ZM346.008 134.466C346.324 134.984 345.885 135.678 345.035 136.01C344.096 136.376 343.489 136.007 343.489 135.07C343.489 133.369 345.106 132.982 346.008 134.466ZM1125.77 134.576C1125.77 135.155 1125.31 135.628 1124.74 135.628C1124.17 135.628 1123.7 135.155 1123.7 134.576C1123.7 133.998 1124.17 133.525 1124.74 133.525C1125.31 133.525 1125.77 133.998 1125.77 134.576ZM1261.23 135.69C1260.48 136.157 1259.45 136.275 1258.94 135.953C1258.42 135.63 1258.61 134.982 1259.35 134.514C1260.1 134.047 1261.13 133.929 1261.64 134.252C1262.16 134.574 1261.97 135.222 1261.23 135.69ZM443.861 136.566C443.861 137.505 441.428 138.781 439.637 138.781C439.115 138.781 438.687 138.072 438.687 137.204C438.687 136.224 439.664 135.628 441.274 135.628C442.697 135.628 443.861 136.05 443.861 136.566ZM1359.63 136.608C1359.63 137.894 1355.81 139.105 1354.45 138.25C1353.86 137.885 1353.65 137.145 1353.98 136.606C1354.76 135.33 1359.63 135.332 1359.63 136.608ZM16.2445 141.146C16.0075 141.87 14.9593 142.46 13.9162 142.46C12.8732 142.46 11.825 141.87 11.588 141.146C11.3148 140.314 12.1685 139.832 13.9162 139.832C15.664 139.832 16.5176 140.314 16.2445 141.146ZM931.235 140.822C931.235 141.366 930.812 142.077 930.294 142.402C928.957 143.241 925.959 141.903 926.646 140.773C927.408 139.521 931.235 139.562 931.235 140.822ZM1082.31 141.935C1082.31 142.513 1081.82 142.986 1081.22 142.986C1080.61 142.986 1080.41 142.513 1080.76 141.935C1081.11 141.357 1081.6 140.884 1081.85 140.884C1082.11 140.884 1082.31 141.357 1082.31 141.935ZM454.209 147.191C454.209 147.769 453.743 148.242 453.174 148.242C452.605 148.242 452.139 147.769 452.139 147.191C452.139 146.613 452.605 146.14 453.174 146.14C453.743 146.14 454.209 146.613 454.209 147.191ZM1369.46 147.191C1369.81 147.769 1369.6 148.242 1369 148.242C1368.4 148.242 1367.91 147.769 1367.91 147.191C1367.91 146.613 1368.11 146.14 1368.36 146.14C1368.61 146.14 1369.11 146.613 1369.46 147.191ZM1302.72 152.91C1302.72 153.166 1302.25 153.666 1301.68 154.024C1301.11 154.381 1300.65 154.172 1300.65 153.56C1300.65 152.948 1301.11 152.447 1301.68 152.447C1302.25 152.447 1302.72 152.655 1302.72 152.91ZM143.439 157.348C143.132 157.659 142.336 157.57 141.668 157.151C140.768 156.585 140.817 156.16 141.858 155.503C143.238 154.632 144.575 156.193 143.439 157.348ZM737.217 155.6C737.569 156.179 737.103 156.652 736.182 156.652C735.261 156.652 734.795 156.179 735.147 155.6C735.499 155.022 735.965 154.549 736.182 154.549C736.399 154.549 736.865 155.022 737.217 155.6ZM796.923 157.913C795.957 158.894 795.681 158.614 795.681 156.652C795.681 154.689 795.957 154.409 796.923 155.39C797.888 156.371 797.888 156.932 796.923 157.913ZM1059.55 156.126C1059.55 156.993 1059.11 157.703 1058.57 157.703C1057.27 157.703 1056.33 156.061 1057.16 155.221C1058.32 154.037 1059.55 154.501 1059.55 156.126ZM713.417 157.703C713.769 158.281 713.563 158.754 712.961 158.754C712.359 158.754 711.865 158.281 711.865 157.703C711.865 157.125 712.07 156.652 712.321 156.652C712.573 156.652 713.065 157.125 713.417 157.703ZM166.544 159.805C166.544 160.383 166.078 160.856 165.509 160.856C164.94 160.856 164.475 160.383 164.475 159.805C164.475 159.227 164.94 158.754 165.509 158.754C166.078 158.754 166.544 159.227 166.544 159.805ZM919.853 159.805C919.853 160.383 919.387 160.856 918.818 160.856C918.249 160.856 917.783 160.383 917.783 159.805C917.783 159.227 918.249 158.754 918.818 158.754C919.387 158.754 919.853 159.227 919.853 159.805ZM1082.31 159.805C1082.31 160.383 1081.85 160.856 1081.28 160.856C1080.71 160.856 1080.24 160.383 1080.24 159.805C1080.24 159.227 1080.71 158.754 1081.28 158.754C1081.85 158.754 1082.31 159.227 1082.31 159.805ZM564.074 165.299C563.505 165.877 562.483 166.001 561.803 165.574C560.865 164.984 560.894 164.594 561.922 163.948C563.688 162.84 565.422 163.929 564.074 165.299ZM570.102 167.163C570.102 167.742 569.637 168.215 569.068 168.215C568.498 168.215 568.033 167.742 568.033 167.163C568.033 166.585 568.498 166.112 569.068 166.112C569.637 166.112 570.102 166.585 570.102 167.163ZM184.135 169.266C184.135 169.844 183.641 170.317 183.039 170.317C182.437 170.317 182.231 169.844 182.583 169.266C182.935 168.688 183.427 168.215 183.679 168.215C183.93 168.215 184.135 168.688 184.135 169.266ZM1099.9 169.266C1099.9 169.844 1099.41 170.317 1098.81 170.317C1098.2 170.317 1098 169.844 1098.35 169.266C1098.7 168.688 1099.19 168.215 1099.45 168.215C1099.7 168.215 1099.9 168.688 1099.9 169.266ZM529.746 171.368C529.746 171.946 529.281 172.419 528.712 172.419C528.143 172.419 527.677 171.946 527.677 171.368C527.677 170.79 528.143 170.317 528.712 170.317C529.281 170.317 529.746 170.79 529.746 171.368ZM226.56 172.419C226.56 172.998 226.095 173.471 225.526 173.471C224.956 173.471 224.491 172.998 224.491 172.419C224.491 171.841 224.956 171.368 225.526 171.368C226.095 171.368 226.56 171.841 226.56 172.419ZM1142.33 172.419C1142.33 172.998 1141.86 173.471 1141.29 173.471C1140.72 173.471 1140.26 172.998 1140.26 172.419C1140.26 171.841 1140.72 171.368 1141.29 171.368C1141.86 171.368 1142.33 171.841 1142.33 172.419ZM456.278 186.085C456.278 186.663 455.813 187.136 455.243 187.136C454.674 187.136 454.209 186.663 454.209 186.085C454.209 185.507 454.674 185.034 455.243 185.034C455.813 185.034 456.278 185.507 456.278 186.085ZM1372.04 186.085C1372.04 186.663 1371.58 187.136 1371.01 187.136C1370.44 187.136 1369.98 186.663 1369.98 186.085C1369.98 185.507 1370.44 185.034 1371.01 185.034C1371.58 185.034 1372.04 185.507 1372.04 186.085ZM389.018 187.136C389.018 187.714 388.292 188.187 387.405 188.187C386.518 188.187 386.08 187.714 386.432 187.136C386.783 186.558 387.509 186.085 388.045 186.085C388.581 186.085 389.018 186.558 389.018 187.136ZM1303.75 187.136C1303.75 187.714 1303.28 188.187 1302.72 188.187C1302.15 188.187 1301.68 187.714 1301.68 187.136C1301.68 186.558 1302.15 186.085 1302.72 186.085C1303.28 186.085 1303.75 186.558 1303.75 187.136ZM338.522 190.5C337.858 191.175 336.971 191.378 336.552 190.951C336.132 190.524 336.46 189.754 337.28 189.239C339.213 188.025 340.085 188.912 338.522 190.5ZM1255.12 189.176C1255.12 190.417 1253.1 191.744 1252.36 190.991C1251.62 190.237 1252.92 188.187 1254.14 188.187C1254.68 188.187 1255.12 188.632 1255.12 189.176ZM568.033 190.29C568.033 190.868 567.567 191.341 566.998 191.341C566.429 191.341 565.963 190.868 565.963 190.29C565.963 189.712 566.429 189.239 566.998 189.239C567.567 189.239 568.033 189.712 568.033 190.29ZM298.757 205.204C298.117 207.153 295.89 207.476 295.89 205.619C295.89 204.705 296.626 203.955 297.528 203.955C298.429 203.955 298.983 204.517 298.757 205.204ZM1214.52 205.204C1213.88 207.153 1211.66 207.476 1211.66 205.619C1211.66 204.705 1212.39 203.955 1213.29 203.955C1214.2 203.955 1214.75 204.517 1214.52 205.204ZM867.597 209.211C867.949 209.789 867.483 210.262 866.562 210.262C865.641 210.262 865.176 209.789 865.528 209.211C865.879 208.633 866.345 208.16 866.562 208.16C866.78 208.16 867.245 208.633 867.597 209.211ZM847.419 210.262C847.419 210.841 846.954 211.314 846.384 211.314C845.815 211.314 845.35 210.841 845.35 210.262C845.35 209.684 845.815 209.211 846.384 209.211C846.954 209.211 847.419 209.684 847.419 210.262ZM823.62 216.044C823.62 216.92 822.7 217.621 821.55 217.621C819.489 217.621 818.859 216.5 820.171 215.168C821.431 213.888 823.62 214.444 823.62 216.044ZM692.204 220.187C692.204 221.296 690.219 221.762 689.628 220.791C689.271 220.204 689.704 219.723 690.591 219.723C691.478 219.723 692.204 219.931 692.204 220.187ZM1378.77 221.825C1379.12 222.404 1378.92 222.877 1378.31 222.877C1377.71 222.877 1377.22 222.404 1377.22 221.825C1377.22 221.247 1377.42 220.774 1377.68 220.774C1377.93 220.774 1378.42 221.247 1378.77 221.825ZM436.618 224.979C436.618 225.557 436.413 226.03 436.161 226.03C435.91 226.03 435.417 225.557 435.065 224.979C434.714 224.401 434.92 223.928 435.522 223.928C436.124 223.928 436.618 224.401 436.618 224.979ZM1352.38 224.979C1352.38 225.557 1352.18 226.03 1351.93 226.03C1351.68 226.03 1351.18 225.557 1350.83 224.979C1350.48 224.401 1350.69 223.928 1351.29 223.928C1351.89 223.928 1352.38 224.401 1352.38 224.979ZM219.834 228.133C219.483 228.711 218.757 229.184 218.221 229.184C217.685 229.184 217.248 228.711 217.248 228.133C217.248 227.554 217.974 227.081 218.861 227.081C219.748 227.081 220.186 227.554 219.834 228.133ZM1135.6 228.133C1135.25 228.711 1134.52 229.184 1133.99 229.184C1133.45 229.184 1133.01 228.711 1133.01 228.133C1133.01 227.554 1133.74 227.081 1134.63 227.081C1135.51 227.081 1135.95 227.554 1135.6 228.133ZM406.609 233.852C406.609 234.108 406.144 234.608 405.575 234.965C405.006 235.323 404.54 235.114 404.54 234.502C404.54 233.89 405.006 233.389 405.575 233.389C406.144 233.389 406.609 233.597 406.609 233.852ZM844.832 234.44C845.184 235.018 844.978 235.491 844.376 235.491C843.774 235.491 843.28 235.018 843.28 234.44C843.28 233.862 843.485 233.389 843.736 233.389C843.988 233.389 844.48 233.862 844.832 234.44ZM1322.38 233.852C1322.38 234.108 1321.91 234.608 1321.34 234.965C1320.77 235.323 1320.31 235.114 1320.31 234.502C1320.31 233.89 1320.77 233.389 1321.34 233.389C1321.91 233.389 1322.38 233.597 1322.38 233.852ZM483.182 235.491C483.182 236.069 482.716 236.542 482.147 236.542C481.578 236.542 481.113 236.069 481.113 235.491C481.113 234.913 481.578 234.44 482.147 234.44C482.716 234.44 483.182 234.913 483.182 235.491ZM1398.43 235.491C1398.78 236.069 1398.61 236.542 1398.04 236.542C1397.47 236.542 1396.71 236.069 1396.36 235.491C1396.01 234.913 1396.19 234.44 1396.76 234.44C1397.33 234.44 1398.08 234.913 1398.43 235.491ZM438.687 236.48C438.687 237.721 436.669 239.047 435.927 238.295C435.187 237.541 436.492 235.491 437.713 235.491C438.249 235.491 438.687 235.936 438.687 236.48ZM655.988 236.542C655.988 237.12 655.522 237.593 654.953 237.593C654.384 237.593 653.918 237.12 653.918 236.542C653.918 235.964 654.384 235.491 654.953 235.491C655.522 235.491 655.988 235.964 655.988 236.542ZM1354.45 236.48C1354.45 237.721 1352.44 239.047 1351.69 238.295C1350.95 237.541 1352.26 235.491 1353.48 235.491C1354.02 235.491 1354.45 235.936 1354.45 236.48ZM765.673 237.593C765.673 238.172 765.468 238.645 765.217 238.645C764.965 238.645 764.473 238.172 764.121 237.593C763.769 237.015 763.975 236.542 764.577 236.542C765.179 236.542 765.673 237.015 765.673 237.593ZM43.407 242.849C43.407 243.428 42.9414 243.901 42.3723 243.901C41.8032 243.901 41.3375 243.428 41.3375 242.849C41.3375 242.271 41.8032 241.798 42.3723 241.798C42.9414 241.798 43.407 242.271 43.407 242.849ZM179.759 243.047C179.12 244.996 176.892 245.319 176.892 243.462C176.892 242.548 177.629 241.798 178.53 241.798C179.431 241.798 179.985 242.359 179.759 243.047ZM959.174 242.849C959.174 243.428 958.708 243.901 958.139 243.901C957.57 243.901 957.104 243.428 957.104 242.849C957.104 242.271 957.57 241.798 958.139 241.798C958.708 241.798 959.174 242.271 959.174 242.849ZM1095.53 243.047C1094.89 244.996 1092.66 245.319 1092.66 243.462C1092.66 242.548 1093.4 241.798 1094.3 241.798C1095.2 241.798 1095.75 242.359 1095.53 243.047ZM703.587 244.952C703.587 245.53 702.888 246.003 702.035 246.003C701.181 246.003 700.483 245.53 700.483 244.952C700.483 244.374 701.181 243.901 702.035 243.901C702.888 243.901 703.587 244.374 703.587 244.952ZM752.221 246.992C752.221 247.537 751.755 248.273 751.186 248.631C750.617 248.988 750.151 248.543 750.151 247.642C750.151 246.741 750.617 246.003 751.186 246.003C751.755 246.003 752.221 246.448 752.221 246.992ZM318.654 248.105C318.654 248.683 318.189 249.156 317.62 249.156C317.051 249.156 316.585 248.683 316.585 248.105C316.585 247.527 317.051 247.054 317.62 247.054C318.189 247.054 318.654 247.527 318.654 248.105ZM1234.42 248.105C1234.42 248.683 1233.96 249.156 1233.39 249.156C1232.82 249.156 1232.35 248.683 1232.35 248.105C1232.35 247.527 1232.82 247.054 1233.39 247.054C1233.96 247.054 1234.42 247.527 1234.42 248.105ZM458.348 251.239C458.348 253.629 453.678 255.345 451.95 253.589C451.208 252.836 451.792 251.995 453.836 250.87C457.748 248.717 458.348 248.765 458.348 251.239ZM1374.11 250.523C1374.11 252.453 1371.95 254.412 1369.83 254.412C1366.75 254.412 1366.67 252.485 1369.69 250.826C1373.27 248.851 1374.11 248.793 1374.11 250.523ZM289.091 252.19C289.736 253.251 285.64 254.599 284.311 253.764C283.832 253.462 283.706 252.776 284.034 252.238C284.791 250.994 288.343 250.96 289.091 252.19ZM1204.41 252.187C1204.41 253.156 1200.15 254.637 1199.44 253.915C1199.22 253.687 1199.34 252.996 1199.71 252.38C1200.53 251.031 1204.41 250.872 1204.41 252.187ZM34.0942 255.464C34.0942 256.042 33.8893 256.515 33.6378 256.515C33.3864 256.515 32.8938 256.042 32.542 255.464C32.1902 254.885 32.3961 254.412 32.9983 254.412C33.6006 254.412 34.0942 254.885 34.0942 255.464ZM949.861 255.464C949.861 256.042 949.656 256.515 949.405 256.515C949.153 256.515 948.661 256.042 948.309 255.464C947.957 254.885 948.163 254.412 948.765 254.412C949.367 254.412 949.861 254.885 949.861 255.464ZM555.616 257.04C555.616 257.908 555.178 258.617 554.642 258.617C553.337 258.617 552.403 256.975 553.229 256.135C554.395 254.952 555.616 255.415 555.616 257.04ZM377.636 259.668C377.636 260.247 377.17 260.72 376.601 260.72C376.032 260.72 375.567 260.247 375.567 259.668C375.567 259.09 376.032 258.617 376.601 258.617C377.17 258.617 377.636 259.09 377.636 259.668ZM1293.4 259.668C1293.4 260.247 1292.94 260.72 1292.37 260.72C1291.8 260.72 1291.33 260.247 1291.33 259.668C1291.33 259.09 1291.8 258.617 1292.37 258.617C1292.94 258.617 1293.4 259.09 1293.4 259.668ZM434.031 263.873C434.383 264.451 433.917 264.924 432.996 264.924C432.075 264.924 431.609 264.451 431.961 263.873C432.313 263.295 432.779 262.822 432.996 262.822C433.213 262.822 433.679 263.295 434.031 263.873ZM1349.8 263.873C1350.15 264.451 1349.68 264.924 1348.76 264.924C1347.84 264.924 1347.38 264.451 1347.73 263.873C1348.08 263.295 1348.55 262.822 1348.76 262.822C1348.98 262.822 1349.45 263.295 1349.8 263.873ZM101.354 264.862C101.354 266.103 99.3361 267.429 98.5942 266.677C97.8533 265.923 99.1591 263.873 100.38 263.873C100.916 263.873 101.354 264.318 101.354 264.862ZM725.317 264.924C725.317 266.253 723.203 266.253 721.178 264.924C719.968 264.131 720.254 263.902 722.471 263.889C724.037 263.881 725.317 264.346 725.317 264.924ZM1017.12 264.862C1017.12 266.103 1015.1 267.429 1014.36 266.677C1013.62 265.923 1014.93 263.873 1016.15 263.873C1016.68 263.873 1017.12 264.318 1017.12 264.862ZM1089.55 264.924C1089.55 265.503 1089.35 265.976 1089.1 265.976C1088.85 265.976 1088.35 265.503 1088 264.924C1087.65 264.346 1087.86 263.873 1088.46 263.873C1089.06 263.873 1089.55 264.346 1089.55 264.924ZM139.123 265.976C139.475 266.554 139.036 267.027 138.149 267.027C137.262 267.027 136.536 266.554 136.536 265.976C136.536 265.397 136.974 264.924 137.51 264.924C138.046 264.924 138.771 265.397 139.123 265.976ZM1055.21 266.962C1055.47 267.75 1055.08 268.144 1054.31 267.881C1053.56 267.628 1052.75 266.8 1052.5 266.042C1052.24 265.253 1052.63 264.859 1053.4 265.122C1054.15 265.374 1054.96 266.203 1055.21 266.962ZM791.815 266.604C792.803 267.607 791.454 270.18 789.94 270.18C788.207 270.18 787.076 268.414 787.92 267.027C788.627 265.865 790.851 265.623 791.815 266.604ZM74.45 272.221C74.45 273.461 72.4322 274.788 71.6903 274.035C70.9494 273.281 72.2553 271.232 73.4763 271.232C74.0123 271.232 74.45 271.676 74.45 272.221ZM990.217 272.221C990.217 273.461 988.199 274.788 987.457 274.035C986.716 273.281 988.022 271.232 989.243 271.232C989.779 271.232 990.217 271.676 990.217 272.221ZM830.863 273.334C830.863 273.912 830.397 274.385 829.828 274.385C829.259 274.385 828.793 273.912 828.793 273.334C828.793 272.756 829.259 272.283 829.828 272.283C830.397 272.283 830.863 272.756 830.863 273.334ZM311.411 274.385C311.411 274.963 310.713 275.436 309.859 275.436C309.005 275.436 308.307 274.963 308.307 274.385C308.307 273.807 309.005 273.334 309.859 273.334C310.713 273.334 311.411 273.807 311.411 274.385ZM1226.66 274.385C1227.01 274.963 1226.57 275.436 1225.69 275.436C1224.8 275.436 1224.07 274.963 1224.07 274.385C1224.07 273.807 1224.51 273.334 1225.05 273.334C1225.58 273.334 1226.31 273.807 1226.66 274.385ZM640.466 275.436C640.466 276.014 640.001 276.488 639.431 276.488C638.862 276.488 638.397 276.014 638.397 275.436C638.397 274.858 638.862 274.385 639.431 274.385C640.001 274.385 640.466 274.858 640.466 275.436ZM-22.3005 276.488C-22.6523 277.066 -23.6105 277.539 -24.4311 277.539C-25.2517 277.539 -25.9222 277.066 -25.9222 276.488C-25.9222 275.909 -24.963 275.436 -23.7916 275.436C-22.6203 275.436 -21.9487 275.909 -22.3005 276.488ZM480.854 278.152C479.868 279.153 477.89 277.531 478.626 276.323C479.063 275.606 479.641 275.623 480.384 276.378C480.994 276.997 481.205 277.795 480.854 278.152ZM893.466 276.488C893.114 277.066 892.156 277.539 891.336 277.539C890.515 277.539 889.845 277.066 889.845 276.488C889.845 275.909 890.804 275.436 891.975 275.436C893.147 275.436 893.818 275.909 893.466 276.488ZM887.775 277.539C887.775 278.117 887.309 278.59 886.74 278.59C886.171 278.59 885.706 278.117 885.706 277.539C885.706 276.961 886.171 276.488 886.74 276.488C887.309 276.488 887.775 276.961 887.775 277.539ZM1396.88 277.539C1396.88 278.117 1396.44 278.59 1395.91 278.59C1395.37 278.59 1394.64 278.117 1394.29 277.539C1393.94 276.961 1394.38 276.488 1395.27 276.488C1396.15 276.488 1396.88 276.961 1396.88 277.539ZM410.231 278.59C410.583 279.168 410.377 279.641 409.775 279.641C409.173 279.641 408.679 279.168 408.679 278.59C408.679 278.012 408.884 277.539 409.135 277.539C409.387 277.539 409.879 278.012 410.231 278.59ZM1326 278.59C1326.35 279.168 1326.14 279.641 1325.54 279.641C1324.94 279.641 1324.45 279.168 1324.45 278.59C1324.45 278.012 1324.65 277.539 1324.9 277.539C1325.15 277.539 1325.65 278.012 1326 278.59ZM646.157 283.846C645.806 284.424 645.08 284.897 644.544 284.897C644.008 284.897 643.571 284.424 643.571 283.846C643.571 283.268 644.297 282.795 645.184 282.795C646.071 282.795 646.509 283.268 646.157 283.846ZM652.366 284.897C652.718 285.475 652.512 285.948 651.91 285.948C651.308 285.948 650.814 285.475 650.814 284.897C650.814 284.319 651.019 283.846 651.27 283.846C651.522 283.846 652.014 284.319 652.366 284.897ZM543.716 286.999C544.068 287.578 543.602 288.051 542.681 288.051C541.76 288.051 541.294 287.578 541.646 286.999C541.998 286.421 542.464 285.948 542.681 285.948C542.898 285.948 543.364 286.421 543.716 286.999ZM1458.97 286.999C1458.97 287.578 1458.47 288.051 1457.87 288.051C1457.27 288.051 1457.06 287.578 1457.41 286.999C1457.76 286.421 1458.26 285.948 1458.51 285.948C1458.76 285.948 1458.97 286.421 1458.97 286.999ZM641.501 288.051C641.501 288.629 641.035 289.102 640.466 289.102C639.897 289.102 639.431 288.629 639.431 288.051C639.431 287.472 639.897 286.999 640.466 286.999C641.035 286.999 641.501 287.472 641.501 288.051ZM949.861 288.051C949.861 288.629 949.367 289.102 948.765 289.102C948.163 289.102 947.957 288.629 948.309 288.051C948.661 287.472 949.153 286.999 949.405 286.999C949.656 286.999 949.861 287.472 949.861 288.051ZM251.395 289.102C251.395 289.68 251.19 290.153 250.938 290.153C250.687 290.153 250.194 289.68 249.843 289.102C249.491 288.524 249.697 288.051 250.299 288.051C250.901 288.051 251.395 288.524 251.395 289.102ZM627.014 289.102C627.014 289.68 626.549 290.153 625.98 290.153C625.41 290.153 624.945 289.68 624.945 289.102C624.945 288.524 625.41 288.051 625.98 288.051C626.549 288.051 627.014 288.524 627.014 289.102ZM1167.16 289.102C1167.16 289.68 1166.96 290.153 1166.71 290.153C1166.45 290.153 1165.96 289.68 1165.61 289.102C1165.26 288.524 1165.46 288.051 1166.07 288.051C1166.67 288.051 1167.16 288.524 1167.16 289.102ZM170.093 290.033C170.738 291.094 166.642 292.441 165.313 291.607C164.834 291.305 164.708 290.619 165.036 290.08C165.793 288.837 169.345 288.803 170.093 290.033ZM1085.42 290.041C1085.42 290.979 1082.98 292.255 1081.19 292.255C1080.67 292.255 1080.24 291.546 1080.24 290.679C1080.24 289.698 1081.22 289.102 1082.83 289.102C1084.25 289.102 1085.42 289.524 1085.42 290.041ZM1359.11 294.358C1359.46 294.936 1359.26 295.409 1358.65 295.409C1358.05 295.409 1357.56 294.936 1357.56 294.358C1357.56 293.78 1357.76 293.307 1358.01 293.307C1358.27 293.307 1358.76 293.78 1359.11 294.358ZM547.855 295.409C548.207 295.987 547.796 296.46 546.942 296.46C546.088 296.46 545.102 295.987 544.751 295.409C544.399 294.831 544.81 294.358 545.663 294.358C546.517 294.358 547.503 294.831 547.855 295.409ZM527.406 299.288C526.443 300.265 525.366 300.77 525.011 300.409C523.992 299.375 525.556 297.511 527.442 297.511C529.022 297.511 529.019 297.65 527.406 299.288ZM724.282 298.563C724.282 299.141 723.817 299.614 723.247 299.614C722.678 299.614 722.213 299.141 722.213 298.563C722.213 297.984 722.678 297.511 723.247 297.511C723.817 297.511 724.282 297.984 724.282 298.563ZM1443.44 298.501C1443.44 299.741 1441.43 301.068 1440.68 300.315C1439.94 299.561 1441.25 297.511 1442.47 297.511C1443.01 297.511 1443.44 297.956 1443.44 298.501ZM755.843 300.665C756.194 301.243 755.988 301.716 755.386 301.716C754.784 301.716 754.29 301.243 754.29 300.665C754.29 300.087 754.495 299.614 754.747 299.614C754.998 299.614 755.491 300.087 755.843 300.665ZM420.579 302.767C420.931 303.345 420.259 303.818 419.088 303.818C417.916 303.818 416.957 303.345 416.957 302.767C416.957 302.189 417.628 301.716 418.448 301.716C419.269 301.716 420.227 302.189 420.579 302.767ZM568.563 304.682C567.741 305.517 565.961 303.621 566.593 302.582C567.023 301.876 567.556 301.984 568.106 302.887C568.573 303.656 568.779 304.463 568.563 304.682ZM870.634 302.657C870.95 303.175 870.527 303.864 869.694 304.189C868.077 304.818 866.696 303.507 867.798 302.388C868.733 301.438 869.964 301.554 870.634 302.657ZM1336.35 302.767C1336.71 303.363 1335.84 303.818 1334.34 303.818C1332.88 303.818 1331.69 303.345 1331.69 302.767C1331.69 302.189 1332.59 301.716 1333.7 301.716C1334.8 301.716 1335.99 302.189 1336.35 302.767ZM600.11 304.87C600.11 305.448 599.645 305.921 599.076 305.921C598.507 305.921 598.041 305.448 598.041 304.87C598.041 304.292 598.507 303.818 599.076 303.818C599.645 303.818 600.11 304.292 600.11 304.87ZM285.542 309.074C285.542 309.653 284.816 310.126 283.929 310.126C283.042 310.126 282.603 309.653 282.955 309.074C283.307 308.496 284.032 308.023 284.568 308.023C285.104 308.023 285.542 308.496 285.542 309.074ZM1200.79 309.074C1201.14 309.653 1200.68 310.126 1199.76 310.126C1198.84 310.126 1198.37 309.653 1198.72 309.074C1199.07 308.496 1199.54 308.023 1199.76 308.023C1199.97 308.023 1200.44 308.496 1200.79 309.074ZM327.45 313.279C327.098 313.857 326.373 314.33 325.837 314.33C325.301 314.33 324.863 313.857 324.863 313.279C324.863 312.701 325.589 312.228 326.476 312.228C327.363 312.228 327.802 312.701 327.45 313.279ZM1243.22 313.279C1242.86 313.857 1242.14 314.33 1241.6 314.33C1241.07 314.33 1240.63 313.857 1240.63 313.279C1240.63 312.701 1241.36 312.228 1242.24 312.228C1243.13 312.228 1243.57 312.701 1243.22 313.279ZM670.474 318.535C670.474 319.113 670.009 319.586 669.44 319.586C668.871 319.586 668.405 319.113 668.405 318.535C668.405 317.957 668.871 317.484 669.44 317.484C670.009 317.484 670.474 317.957 670.474 318.535ZM880.532 322.214C880.532 323.082 879.833 323.791 878.98 323.791C877.363 323.791 876.927 322.548 878.118 321.339C879.308 320.129 880.532 320.572 880.532 322.214ZM32.0246 323.204C32.0246 323.459 31.559 323.959 30.9899 324.317C30.4207 324.674 29.9551 324.465 29.9551 323.853C29.9551 323.241 30.4207 322.74 30.9899 322.74C31.559 322.74 32.0246 322.948 32.0246 323.204ZM607.871 325.894C607.519 326.472 606.794 326.945 606.258 326.945C605.722 326.945 605.284 326.472 605.284 325.894C605.284 325.315 606.011 324.842 606.897 324.842C607.784 324.842 608.223 325.315 607.871 325.894ZM705.656 326.945C705.656 327.523 705.163 327.996 704.561 327.996C703.958 327.996 703.753 327.523 704.104 326.945C704.456 326.367 704.949 325.894 705.2 325.894C705.452 325.894 705.656 326.367 705.656 326.945ZM762.288 327.58C761.945 327.929 761.052 327.967 760.305 327.663C759.48 327.327 759.725 327.078 760.93 327.028C762.021 326.983 762.632 327.231 762.288 327.58ZM501.808 330.16C501.808 330.705 501.109 331.15 500.256 331.15C498.656 331.15 498.2 329.909 499.365 328.725C500.191 327.886 501.808 328.835 501.808 330.16ZM1417.06 330.098C1416.71 330.676 1415.98 331.15 1415.44 331.15C1414.91 331.15 1414.47 330.676 1414.47 330.098C1414.47 329.52 1415.2 329.047 1416.08 329.047C1416.97 329.047 1417.41 329.52 1417.06 330.098ZM872.254 340.023C872.254 341.132 870.268 341.598 869.677 340.627C869.32 340.039 869.754 339.559 870.64 339.559C871.527 339.559 872.254 339.767 872.254 340.023ZM688.644 344.323C686.442 346.014 683.926 346.371 683.926 344.991C683.926 343.44 685.242 342.712 687.98 342.746C690.553 342.778 690.578 342.837 688.644 344.323ZM874.323 343.764C874.323 344.342 873.829 344.815 873.227 344.815C872.625 344.815 872.419 344.342 872.771 343.764C873.123 343.186 873.615 342.713 873.867 342.713C874.118 342.713 874.323 343.186 874.323 343.764ZM399.839 344.742C400.605 346.001 398.658 347.246 397.28 346.381C396.122 345.655 396.883 343.764 398.331 343.764C398.833 343.764 399.512 344.204 399.839 344.742ZM452.656 344.815C453.008 345.393 452.802 345.866 452.2 345.866C451.598 345.866 451.104 345.393 451.104 344.815C451.104 344.237 451.309 343.764 451.561 343.764C451.812 343.764 452.305 344.237 452.656 344.815ZM1315.13 345.341C1315.13 346.208 1314.43 346.917 1313.58 346.917C1311.96 346.917 1311.53 345.674 1312.72 344.465C1313.91 343.255 1315.13 343.699 1315.13 345.341ZM623.657 348.231C623.423 348.955 622.125 349.709 620.775 349.909C618.63 350.227 618.492 350.06 619.688 348.595C621.309 346.612 624.27 346.34 623.657 348.231ZM594.937 356.378C594.937 356.956 594.471 357.429 593.902 357.429C593.333 357.429 592.867 356.956 592.867 356.378C592.867 355.8 593.333 355.327 593.902 355.327C594.471 355.327 594.937 355.8 594.937 356.378ZM1103.01 357.429C1103.01 358.007 1102.51 358.481 1101.91 358.481C1101.31 358.481 1101.1 358.007 1101.45 357.429C1101.81 356.851 1102.3 356.378 1102.55 356.378C1102.8 356.378 1103.01 356.851 1103.01 357.429ZM578.898 366.89C579.25 367.468 579.044 367.941 578.441 367.941C577.839 367.941 577.346 367.468 577.346 366.89C577.346 366.312 577.551 365.839 577.802 365.839C578.053 365.839 578.546 366.312 578.898 366.89ZM728.939 366.89C729.29 367.468 729.085 367.941 728.482 367.941C727.88 367.941 727.386 367.468 727.386 366.89C727.386 366.312 727.591 365.839 727.843 365.839C728.094 365.839 728.587 366.312 728.939 366.89ZM320.724 367.941C320.724 368.519 319.998 368.992 319.111 368.992C318.224 368.992 317.785 368.519 318.137 367.941C318.489 367.363 319.214 366.89 319.75 366.89C320.286 366.89 320.724 367.363 320.724 367.941ZM1236.49 367.941C1236.49 368.519 1235.79 368.992 1234.94 368.992C1234.08 368.992 1233.39 368.519 1233.39 367.941C1233.39 367.363 1234.08 366.89 1234.94 366.89C1235.79 366.89 1236.49 367.363 1236.49 367.941ZM449.035 373.259C449.035 373.804 448.336 374.248 447.483 374.248C445.883 374.248 445.427 373.008 446.592 371.824C447.419 370.984 449.035 371.934 449.035 373.259ZM1363.92 372.672C1363.92 373.22 1363.42 373.84 1362.81 374.047C1362.2 374.254 1361.7 373.636 1361.7 372.672C1361.7 371.708 1362.2 371.09 1362.81 371.297C1363.42 371.504 1363.92 372.123 1363.92 372.672ZM606.319 378.453C606.319 379.031 605.621 379.504 604.767 379.504C603.913 379.504 603.215 379.031 603.215 378.453C603.215 377.875 603.913 377.402 604.767 377.402C605.621 377.402 606.319 377.875 606.319 378.453ZM755.325 381.607C756.26 383.379 756.112 383.709 754.388 383.709C752.082 383.709 750.742 382.136 751.704 380.556C752.707 378.906 754.119 379.316 755.325 381.607ZM280.368 383.184C280.368 384.051 279.93 384.76 279.394 384.76C278.09 384.76 277.155 383.118 277.982 382.278C279.147 381.095 280.368 381.558 280.368 383.184ZM1195.9 382.856C1195.26 384.804 1193.03 385.127 1193.03 383.271C1193.03 382.355 1193.77 381.607 1194.67 381.607C1195.57 381.607 1196.12 382.168 1195.9 382.856ZM644.605 383.709C644.605 384.287 644.14 384.76 643.571 384.76C643.001 384.76 642.536 384.287 642.536 383.709C642.536 383.131 643.001 382.658 643.571 382.658C644.14 382.658 644.605 383.131 644.605 383.709ZM504.912 384.76C504.912 385.338 504.707 385.812 504.456 385.812C504.204 385.812 503.712 385.338 503.36 384.76C503.008 384.182 503.214 383.709 503.816 383.709C504.418 383.709 504.912 384.182 504.912 384.76ZM691.448 387.552C690.748 387.84 689.351 387.858 688.344 387.591C687.337 387.324 687.91 387.089 689.618 387.068C691.325 387.047 692.149 387.264 691.448 387.552ZM452.139 389.378C452.139 391.421 449.415 392.273 448.085 390.646C446.765 389.029 447.645 387.914 450.242 387.914C451.285 387.914 452.139 388.573 452.139 389.378ZM1367.91 389.378C1367.91 390.183 1367.28 391.086 1366.52 391.383C1364.62 392.122 1362.3 390.522 1363.18 389.083C1364.2 387.406 1367.91 387.639 1367.91 389.378ZM406.609 390.016C406.609 390.594 406.116 391.067 405.514 391.067C404.911 391.067 404.705 390.594 405.057 390.016C405.409 389.438 405.902 388.965 406.153 388.965C406.405 388.965 406.609 389.438 406.609 390.016ZM1322.38 390.016C1322.38 390.594 1321.88 391.067 1321.28 391.067C1320.68 391.067 1320.47 390.594 1320.82 390.016C1321.18 389.438 1321.67 388.965 1321.92 388.965C1322.17 388.965 1322.38 389.438 1322.38 390.016ZM449.035 394.221C449.035 394.799 448.569 395.272 448 395.272C447.431 395.272 446.965 394.799 446.965 394.221C446.965 393.643 447.431 393.17 448 393.17C448.569 393.17 449.035 393.643 449.035 394.221ZM1364.8 394.221C1364.8 394.799 1364.08 395.272 1363.19 395.272C1362.3 395.272 1361.86 394.799 1362.21 394.221C1362.57 393.643 1363.29 393.17 1363.83 393.17C1364.36 393.17 1364.8 393.643 1364.8 394.221ZM720.143 396.323C720.143 396.902 719.705 397.375 719.169 397.375C718.633 397.375 717.908 396.902 717.556 396.323C717.204 395.745 717.643 395.272 718.53 395.272C719.417 395.272 720.143 395.745 720.143 396.323ZM704.622 403.094C704.622 403.35 704.156 403.85 703.587 404.207C703.018 404.565 702.552 404.356 702.552 403.744C702.552 403.132 703.018 402.631 703.587 402.631C704.156 402.631 704.622 402.839 704.622 403.094ZM127.223 411.04C127.223 411.618 127.018 412.091 126.767 412.091C126.515 412.091 126.023 411.618 125.671 411.04C125.319 410.462 125.525 409.989 126.127 409.989C126.729 409.989 127.223 410.462 127.223 411.04ZM680.305 412.091C680.657 412.669 680.451 413.143 679.848 413.143C679.246 413.143 678.753 412.669 678.753 412.091C678.753 411.513 678.957 411.04 679.209 411.04C679.46 411.04 679.953 411.513 680.305 412.091ZM-21.2658 417.347C-20.9139 417.925 -21.3527 418.399 -22.2395 418.399C-23.1263 418.399 -23.8527 417.925 -23.8527 417.347C-23.8527 416.769 -23.415 416.296 -22.8789 416.296C-22.3429 416.296 -21.6176 416.769 -21.2658 417.347ZM893.984 417.347C893.984 417.925 893.518 418.399 892.949 418.399C892.38 418.399 891.914 417.925 891.914 417.347C891.914 416.769 892.38 416.296 892.949 416.296C893.518 416.296 893.984 416.769 893.984 417.347ZM65.1371 418.399C65.1371 418.977 64.4107 419.45 63.5239 419.45C62.6371 419.45 62.1984 418.977 62.5502 418.399C62.902 417.82 63.6274 417.347 64.1634 417.347C64.6994 417.347 65.1371 417.82 65.1371 418.399ZM605.284 417.811C605.284 418.92 603.299 419.387 602.708 418.415C602.351 417.828 602.784 417.347 603.671 417.347C604.558 417.347 605.284 417.555 605.284 417.811ZM980.904 418.399C980.904 418.977 980.205 419.45 979.352 419.45C978.498 419.45 977.8 418.977 977.8 418.399C977.8 417.82 978.498 417.347 979.352 417.347C980.205 417.347 980.904 417.82 980.904 418.399ZM113.771 420.501C113.771 421.079 113.305 421.552 112.736 421.552C112.167 421.552 111.702 421.079 111.702 420.501C111.702 419.923 112.167 419.45 112.736 419.45C113.305 419.45 113.771 419.923 113.771 420.501ZM719.581 420.428C719.909 420.967 719.703 421.703 719.125 422.067C718.547 422.43 718.074 421.989 718.074 421.088C718.074 419.242 718.694 418.97 719.581 420.428ZM1029.54 420.501C1029.54 421.079 1029.07 421.552 1028.5 421.552C1027.93 421.552 1027.47 421.079 1027.47 420.501C1027.47 419.923 1027.93 419.45 1028.5 419.45C1029.07 419.45 1029.54 419.923 1029.54 420.501ZM437.652 424.706C437.652 425.284 437.159 425.757 436.557 425.757C435.954 425.757 435.748 425.284 436.1 424.706C436.452 424.128 436.945 423.654 437.196 423.654C437.447 423.654 437.652 424.128 437.652 424.706ZM832.415 424.706C832.767 425.284 832.068 425.757 830.863 425.757C829.657 425.757 828.959 425.284 829.311 424.706C829.663 424.128 830.361 423.654 830.863 423.654C831.365 423.654 832.063 424.128 832.415 424.706ZM1352.9 424.706C1353.25 425.284 1353.05 425.757 1352.45 425.757C1351.84 425.757 1351.35 425.284 1351.35 424.706C1351.35 424.128 1351.55 423.654 1351.81 423.654C1352.06 423.654 1352.55 424.128 1352.9 424.706ZM1215.8 425.757C1215.8 426.335 1215.33 426.808 1214.76 426.808C1214.19 426.808 1213.73 426.335 1213.73 425.757C1213.73 425.179 1214.19 424.706 1214.76 424.706C1215.33 424.706 1215.8 425.179 1215.8 425.757ZM880.532 426.808C880.532 427.386 880.066 427.859 879.497 427.859C878.928 427.859 878.462 427.386 878.462 426.808C878.462 426.23 878.928 425.757 879.497 425.757C880.066 425.757 880.532 426.23 880.532 426.808ZM271.055 429.962C271.055 430.54 270.628 431.013 270.105 431.013C269.583 431.013 268.419 431.3 267.518 431.651C266.444 432.069 265.881 431.709 265.881 430.6C265.881 429.499 266.782 428.91 268.468 428.91C269.891 428.91 271.055 429.383 271.055 429.962ZM1186.82 429.839C1186.82 430.963 1182.67 432.182 1181.45 431.415C1180.97 431.114 1180.85 430.427 1181.18 429.889C1181.93 428.643 1186.82 428.6 1186.82 429.839ZM1054.37 433.115C1054.37 433.693 1053.91 434.166 1053.34 434.166C1052.77 434.166 1052.3 433.693 1052.3 433.115C1052.3 432.537 1052.77 432.064 1053.34 432.064C1053.91 432.064 1054.37 432.537 1054.37 433.115ZM1062.65 433.115C1062.65 433.693 1062.45 434.166 1062.19 434.166C1061.94 434.166 1061.45 433.693 1061.1 433.115C1060.75 432.537 1060.95 432.064 1061.55 432.064C1062.16 432.064 1062.65 432.537 1062.65 433.115ZM397.297 434.606C397.297 436.851 395.581 438.371 393.047 438.371C389.485 438.371 389.105 436.588 392.381 435.25C394.909 434.218 397.297 433.906 397.297 434.606ZM1312.03 436.269C1310.91 438.39 1305.82 439.295 1305.82 437.373C1305.82 436.059 1308.96 434.239 1311.29 434.198C1312.82 434.172 1312.95 434.529 1312.03 436.269ZM540.094 437.32C540.094 437.898 539.889 438.371 539.638 438.371C539.386 438.371 538.894 437.898 538.542 437.32C538.19 436.742 538.396 436.269 538.998 436.269C539.6 436.269 540.094 436.742 540.094 437.32ZM1455.86 437.32C1455.86 437.898 1455.4 438.371 1454.83 438.371C1454.26 438.371 1453.79 437.898 1453.79 437.32C1453.79 436.742 1454.26 436.269 1454.83 436.269C1455.4 436.269 1455.86 436.742 1455.86 437.32ZM86.8672 438.371C86.8672 439.605 86.0714 439.605 83.2455 438.371C81.4119 437.57 81.4998 437.46 84.0216 437.394C85.5872 437.354 86.8672 437.793 86.8672 438.371ZM1002.63 438.371C1002.63 439.7 1000.52 439.7 998.495 438.371C997.285 437.578 997.571 437.348 999.788 437.336C1001.35 437.327 1002.63 437.793 1002.63 438.371ZM-10.7287 440.671C-11.0588 441.509 -11.3041 441.26 -11.3537 440.035C-11.3982 438.927 -11.154 438.307 -10.8105 438.656C-10.4669 439.005 -10.4297 439.912 -10.7287 440.671ZM905.366 440.01C905.366 440.911 904.893 441.351 904.315 440.989C903.736 440.625 903.53 439.888 903.858 439.35C904.745 437.892 905.366 438.163 905.366 440.01ZM153.092 440.937C153.092 441.771 152.586 442.769 151.967 443.158C150.506 444.076 148.511 442.049 149.415 440.565C150.429 438.898 153.092 439.167 153.092 440.937ZM1068.86 440.937C1068.86 441.771 1068.35 442.769 1067.73 443.158C1066.27 444.076 1064.28 442.049 1065.18 440.565C1066.2 438.898 1068.86 439.167 1068.86 440.937ZM853.628 444.678C853.628 445.256 852.464 445.729 851.041 445.729C849.618 445.729 848.454 445.256 848.454 444.678C848.454 444.1 849.618 443.627 851.041 443.627C852.464 443.627 853.628 444.1 853.628 444.678ZM4.08599 447.832C4.08599 449.852 2.06198 450.682 0.64539 449.243C-0.137927 448.447 1.82088 445.729 3.17746 445.729C3.67725 445.729 4.08599 446.676 4.08599 447.832ZM919.853 448.419C919.853 450.203 917.186 450.454 916.16 448.765C915.379 447.483 917.704 445.555 919.027 446.387C919.481 446.671 919.853 447.586 919.853 448.419ZM381.19 449.824C381.878 450.954 378.88 452.292 377.543 451.452C377.024 451.127 376.601 450.417 376.601 449.872C376.601 448.613 380.429 448.572 381.19 449.824ZM1296.25 450.197C1296.01 450.92 1295.2 451.511 1294.44 451.511C1293.68 451.511 1292.86 450.92 1292.63 450.197C1292.37 449.415 1293.1 448.883 1294.44 448.883C1295.77 448.883 1296.51 449.415 1296.25 450.197ZM419.544 461.497C419.896 462.076 419.457 462.549 418.57 462.549C417.683 462.549 416.957 462.076 416.957 461.497C416.957 460.919 417.395 460.446 417.931 460.446C418.467 460.446 419.192 460.919 419.544 461.497ZM1334.79 461.497C1334.79 462.076 1334.33 462.549 1333.76 462.549C1333.19 462.549 1332.72 462.076 1332.72 461.497C1332.72 460.919 1333.19 460.446 1333.76 460.446C1334.33 460.446 1334.79 460.919 1334.79 461.497ZM154.127 465.702C154.127 466.28 153.633 466.753 153.031 466.753C152.429 466.753 152.223 466.28 152.575 465.702C152.927 465.124 153.419 464.651 153.671 464.651C153.922 464.651 154.127 465.124 154.127 465.702ZM1069.89 465.702C1069.89 466.28 1069.43 466.753 1068.86 466.753C1068.29 466.753 1067.82 466.28 1067.82 465.702C1067.82 465.124 1068.29 464.651 1068.86 464.651C1069.43 464.651 1069.89 465.124 1069.89 465.702ZM635.292 467.805C635.292 468.383 634.827 468.856 634.258 468.856C633.689 468.856 633.223 468.383 633.223 467.805C633.223 467.226 633.689 466.753 634.258 466.753C634.827 466.753 635.292 467.226 635.292 467.805ZM544.233 469.469C544.233 470.384 543.681 470.947 543.005 470.717C541.085 470.068 540.768 467.805 542.595 467.805C543.496 467.805 544.233 468.553 544.233 469.469ZM648.744 469.907C648.744 470.485 648.279 470.958 647.71 470.958C647.14 470.958 646.675 470.485 646.675 469.907C646.675 469.329 647.14 468.856 647.71 468.856C648.279 468.856 648.744 469.329 648.744 469.907ZM738.769 470.958C738.769 471.536 738.303 472.009 737.734 472.009C737.165 472.009 736.699 471.536 736.699 470.958C736.699 470.38 737.165 469.907 737.734 469.907C738.303 469.907 738.769 470.38 738.769 470.958ZM238.978 475.163C238.978 475.741 238.512 476.214 237.943 476.214C237.374 476.214 236.908 475.741 236.908 475.163C236.908 474.585 237.374 474.112 237.943 474.112C238.512 474.112 238.978 474.585 238.978 475.163ZM1154.23 475.163C1154.58 475.741 1154.37 476.214 1153.77 476.214C1153.17 476.214 1152.67 475.741 1152.67 475.163C1152.67 474.585 1152.88 474.112 1153.13 474.112C1153.38 474.112 1153.88 474.585 1154.23 475.163ZM148.953 476.214C148.953 476.792 148.459 477.265 147.857 477.265C147.255 477.265 147.049 476.792 147.401 476.214C147.753 475.636 148.245 475.163 148.497 475.163C148.748 475.163 148.953 475.636 148.953 476.214ZM220.352 477.265C220.352 477.843 219.886 478.316 219.317 478.316C218.748 478.316 218.282 477.843 218.282 477.265C218.282 476.687 218.748 476.214 219.317 476.214C219.886 476.214 220.352 476.687 220.352 477.265ZM1136.12 477.265C1136.12 477.843 1135.65 478.316 1135.08 478.316C1134.51 478.316 1134.05 477.843 1134.05 477.265C1134.05 476.687 1134.51 476.214 1135.08 476.214C1135.65 476.214 1136.12 476.687 1136.12 477.265ZM121.014 478.316C121.014 478.895 120.549 479.368 119.98 479.368C119.411 479.368 118.945 478.895 118.945 478.316C118.945 477.738 119.411 477.265 119.98 477.265C120.549 477.265 121.014 477.738 121.014 478.316ZM752.738 479.382C752.738 481.635 749.731 481.31 749.296 479.009C749.03 477.605 749.451 477.177 750.833 477.447C751.881 477.652 752.738 478.523 752.738 479.382ZM1036.78 478.316C1036.78 478.895 1036.32 479.368 1035.75 479.368C1035.18 479.368 1034.71 478.895 1034.71 478.316C1034.71 477.738 1035.18 477.265 1035.75 477.265C1036.32 477.265 1036.78 477.738 1036.78 478.316ZM101.354 478.78C101.354 479.036 100.888 479.536 100.319 479.893C99.75 480.251 99.2843 480.041 99.2843 479.43C99.2843 478.818 99.75 478.316 100.319 478.316C100.888 478.316 101.354 478.525 101.354 478.78ZM382.292 479.368C381.941 479.946 381.215 480.419 380.679 480.419C380.143 480.419 379.706 479.946 379.706 479.368C379.706 478.79 380.432 478.316 381.319 478.316C382.206 478.316 382.644 478.79 382.292 479.368ZM1017.12 478.78C1017.12 479.036 1016.65 479.536 1016.09 479.893C1015.52 480.251 1015.05 480.041 1015.05 479.43C1015.05 478.818 1015.52 478.316 1016.09 478.316C1016.65 478.316 1017.12 478.525 1017.12 478.78ZM1297.54 479.368C1297.54 479.946 1297.08 480.419 1296.51 480.419C1295.94 480.419 1295.47 479.946 1295.47 479.368C1295.47 478.79 1295.94 478.316 1296.51 478.316C1297.08 478.316 1297.54 478.79 1297.54 479.368ZM77.2956 484.886C76.6437 486.875 73.4152 487.158 73.4152 485.226C73.4152 484.251 74.2999 483.572 75.5706 483.572C76.8351 483.572 77.5491 484.116 77.2956 484.886ZM992.6 485.134C992.712 485.705 991.988 486.331 990.993 486.526C989.86 486.747 989.182 486.232 989.182 485.149C989.182 483.32 992.24 483.308 992.6 485.134ZM868.115 485.675C868.115 486.253 867.649 486.726 867.08 486.726C866.511 486.726 866.045 486.253 866.045 485.675C866.045 485.097 866.511 484.624 867.08 484.624C867.649 484.624 868.115 485.097 868.115 485.675ZM475.939 487.252C475.939 488.119 475.473 488.828 474.904 488.828C474.335 488.828 473.869 488.119 473.869 487.252C473.869 486.384 474.335 485.675 474.904 485.675C475.473 485.675 475.939 486.384 475.939 487.252ZM556.65 486.726C556.65 487.304 556.185 487.777 555.616 487.777C555.046 487.777 554.581 487.304 554.581 486.726C554.581 486.148 555.046 485.675 555.616 485.675C556.185 485.675 556.65 486.148 556.65 486.726ZM1391.71 487.252C1391.71 488.119 1391.24 488.828 1390.67 488.828C1390.1 488.828 1389.64 488.119 1389.64 487.252C1389.64 486.384 1390.1 485.675 1390.67 485.675C1391.24 485.675 1391.71 486.384 1391.71 487.252ZM1333.76 487.777C1333.76 488.355 1333.27 488.828 1332.66 488.828C1332.06 488.828 1331.85 488.355 1332.21 487.777C1332.56 487.199 1333.05 486.726 1333.3 486.726C1333.55 486.726 1333.76 487.199 1333.76 487.777ZM1450.69 487.777C1450.69 488.355 1450.22 488.828 1449.65 488.828C1449.08 488.828 1448.62 488.355 1448.62 487.777C1448.62 487.199 1449.08 486.726 1449.65 486.726C1450.22 486.726 1450.69 487.199 1450.69 487.777ZM74.9674 490.931C75.3192 491.509 75.1133 491.982 74.511 491.982C73.9088 491.982 73.4152 491.509 73.4152 490.931C73.4152 490.353 73.6201 489.88 73.8716 489.88C74.123 489.88 74.6156 490.353 74.9674 490.931ZM990.734 490.931C991.086 491.509 990.88 491.982 990.278 491.982C989.676 491.982 989.182 491.509 989.182 490.931C989.182 490.353 989.387 489.88 989.638 489.88C989.89 489.88 990.382 490.353 990.734 490.931ZM1451.13 492.686C1451.78 494.423 1450.23 496.139 1447.97 496.171C1446.27 496.194 1444.19 493.313 1444.97 492.028C1446.03 490.287 1450.4 490.754 1451.13 492.686ZM288.129 497.238C288.481 497.816 288.275 498.289 287.673 498.289C287.07 498.289 286.577 497.816 286.577 497.238C286.577 496.66 286.782 496.187 287.033 496.187C287.285 496.187 287.777 496.66 288.129 497.238ZM306.71 503.473C307.038 504.011 306.832 504.748 306.254 505.111C305.675 505.474 305.202 505.034 305.202 504.133C305.202 502.286 305.823 502.015 306.71 503.473ZM1222.47 504.686C1222.13 505.233 1221.42 505.405 1220.88 505.066C1220.34 504.728 1220.17 504.003 1220.51 503.456C1220.84 502.908 1221.55 502.737 1222.09 503.075C1222.63 503.414 1222.8 504.138 1222.47 504.686ZM1295.47 506.699C1295.47 507.277 1295.01 507.75 1294.44 507.75C1293.87 507.75 1293.4 507.277 1293.4 506.699C1293.4 506.121 1293.87 505.647 1294.44 505.647C1295.01 505.647 1295.47 506.121 1295.47 506.699ZM685.479 509.852C685.127 510.43 684.373 510.903 683.804 510.903C683.235 510.903 683.057 510.43 683.409 509.852C683.761 509.274 684.514 508.801 685.083 508.801C685.652 508.801 685.83 509.274 685.479 509.852ZM717.039 511.955C717.039 512.533 716.573 513.006 716.004 513.006C715.435 513.006 714.969 512.533 714.969 511.955C714.969 511.376 715.435 510.903 716.004 510.903C716.573 510.903 717.039 511.376 717.039 511.955ZM439.722 514.057C439.722 514.635 439.023 515.108 438.17 515.108C437.316 515.108 436.618 514.635 436.618 514.057C436.618 513.479 437.316 513.006 438.17 513.006C439.023 513.006 439.722 513.479 439.722 514.057ZM748.599 514.057C748.951 514.635 748.745 515.108 748.143 515.108C747.541 515.108 747.047 514.635 747.047 514.057C747.047 513.479 747.252 513.006 747.503 513.006C747.755 513.006 748.247 513.479 748.599 514.057ZM831.898 514.057C831.898 514.635 831.199 515.108 830.346 515.108C829.492 515.108 828.793 514.635 828.793 514.057C828.793 513.479 829.492 513.006 830.346 513.006C831.199 513.006 831.898 513.479 831.898 514.057ZM1355.49 514.057C1355.49 514.635 1354.79 515.108 1353.94 515.108C1353.08 515.108 1352.38 514.635 1352.38 514.057C1352.38 513.479 1353.08 513.006 1353.94 513.006C1354.79 513.006 1355.49 513.479 1355.49 514.057ZM18.5727 523.981C18.5727 524.237 18.107 524.737 17.5379 525.095C16.9688 525.452 16.5032 525.243 16.5032 524.631C16.5032 524.019 16.9688 523.518 17.5379 523.518C18.107 523.518 18.5727 523.726 18.5727 523.981ZM934.339 523.981C934.339 524.237 933.874 524.737 933.305 525.095C932.736 525.452 932.27 525.243 932.27 524.631C932.27 524.019 932.736 523.518 933.305 523.518C933.874 523.518 934.339 523.726 934.339 523.981ZM386.949 526.671C386.949 527.25 386.744 527.723 386.493 527.723C386.241 527.723 385.749 527.25 385.397 526.671C385.045 526.093 385.251 525.62 385.853 525.62C386.455 525.62 386.949 526.093 386.949 526.671ZM1302.72 526.671C1302.72 527.25 1302.25 527.723 1301.68 527.723C1301.11 527.723 1300.65 527.25 1300.65 526.671C1300.65 526.093 1301.11 525.62 1301.68 525.62C1302.25 525.62 1302.72 526.093 1302.72 526.671ZM631.908 529.409C631.564 529.758 630.671 529.795 629.925 529.492C629.099 529.156 629.345 528.907 630.55 528.857C631.641 528.812 632.251 529.06 631.908 529.409ZM37.1985 530.814C37.1985 531.359 36.7328 532.096 36.1637 532.453C35.5946 532.81 35.1289 532.365 35.1289 531.464C35.1289 530.563 35.5946 529.825 36.1637 529.825C36.7328 529.825 37.1985 530.27 37.1985 530.814ZM841.211 533.504C841.211 534.371 840.512 535.081 839.658 535.081C838.042 535.081 837.606 533.837 838.797 532.628C839.986 531.419 841.211 531.862 841.211 533.504ZM666.335 538.234C666.335 538.813 665.87 539.286 665.301 539.286C664.731 539.286 664.266 538.813 664.266 538.234C664.266 537.656 664.731 537.183 665.301 537.183C665.87 537.183 666.335 537.656 666.335 538.234ZM723.247 538.234C723.247 538.813 722.782 539.286 722.213 539.286C721.644 539.286 721.178 538.813 721.178 538.234C721.178 537.656 721.644 537.183 722.213 537.183C722.782 537.183 723.247 537.656 723.247 538.234ZM589.245 544.542C589.597 545.12 589.391 545.593 588.789 545.593C588.187 545.593 587.693 545.12 587.693 544.542C587.693 543.963 587.898 543.49 588.15 543.49C588.401 543.49 588.894 543.963 589.245 544.542ZM898.123 547.695C898.123 548.273 897.918 548.746 897.666 548.746C897.415 548.746 896.922 548.273 896.571 547.695C896.219 547.117 896.425 546.644 897.027 546.644C897.629 546.644 898.123 547.117 898.123 547.695ZM851.558 549.922C851.558 550.5 851.093 550.681 850.524 550.323C849.954 549.966 849.489 549.2 849.489 548.622C849.489 548.044 849.954 547.863 850.524 548.221C851.093 548.578 851.558 549.343 851.558 549.922ZM1406.19 549.798C1406.19 550.376 1405.7 550.849 1405.1 550.849C1404.49 550.849 1404.29 550.376 1404.64 549.798C1404.99 549.219 1405.48 548.746 1405.74 548.746C1405.99 548.746 1406.19 549.219 1406.19 549.798ZM455.243 550.849C455.243 551.427 454.75 551.9 454.148 551.9C453.545 551.9 453.339 551.427 453.691 550.849C454.043 550.271 454.536 549.798 454.787 549.798C455.038 549.798 455.243 550.271 455.243 550.849ZM1371.01 550.849C1371.01 551.427 1370.52 551.9 1369.91 551.9C1369.31 551.9 1369.11 551.427 1369.46 550.849C1369.81 550.271 1370.3 549.798 1370.55 549.798C1370.81 549.798 1371.01 550.271 1371.01 550.849ZM-1.60522 551.9C-1.95704 552.478 -2.91523 552.951 -3.7358 552.951C-4.55637 552.951 -5.2269 552.478 -5.2269 551.9C-5.2269 551.322 -4.26767 550.849 -3.09632 550.849C-1.92497 550.849 -1.2534 551.322 -1.60522 551.9ZM914.162 551.9C913.81 552.478 912.852 552.951 912.031 552.951C911.21 552.951 910.54 552.478 910.54 551.9C910.54 551.322 911.499 550.849 912.67 550.849C913.842 550.849 914.513 551.322 914.162 551.9ZM907.953 552.951C908.305 553.529 908.099 554.002 907.497 554.002C906.894 554.002 906.401 553.529 906.401 552.951C906.401 552.373 906.606 551.9 906.857 551.9C907.109 551.9 907.601 552.373 907.953 552.951ZM649.779 555.579C648.416 557.247 644.605 557.763 644.605 556.28C644.605 554.757 645.904 554.002 648.526 554.002C650.668 554.002 650.865 554.25 649.779 555.579ZM386.949 557.156C386.949 557.734 386.483 558.207 385.914 558.207C385.345 558.207 384.879 557.734 384.879 557.156C384.879 556.578 385.345 556.105 385.914 556.105C386.483 556.105 386.949 556.578 386.949 557.156ZM1302.72 557.156C1302.72 557.734 1302.25 558.207 1301.68 558.207C1301.11 558.207 1300.65 557.734 1300.65 557.156C1300.65 556.578 1301.11 556.105 1301.68 556.105C1302.25 556.105 1302.72 556.578 1302.72 557.156ZM142.172 571.962C141.839 572.51 141.126 572.681 140.587 572.342C140.048 572.004 139.879 571.28 140.212 570.732C140.546 570.184 141.259 570.013 141.798 570.352C142.337 570.69 142.505 571.414 142.172 571.962ZM462.487 570.821C462.487 571.4 462.021 571.873 461.452 571.873C460.883 571.873 460.417 571.4 460.417 570.821C460.417 570.243 460.883 569.77 461.452 569.77C462.021 569.77 462.487 570.243 462.487 570.821ZM1057.94 571.962C1057.61 572.51 1056.89 572.681 1056.35 572.342C1055.81 572.004 1055.65 571.28 1055.98 570.732C1056.31 570.184 1057.03 570.013 1057.56 570.352C1058.1 570.69 1058.27 571.414 1057.94 571.962ZM1378.25 570.821C1378.25 571.4 1377.79 571.873 1377.22 571.873C1376.65 571.873 1376.18 571.4 1376.18 570.821C1376.18 570.243 1376.65 569.77 1377.22 569.77C1377.79 569.77 1378.25 570.243 1378.25 570.821ZM200.691 573.975C200.691 574.553 200.226 575.026 199.657 575.026C199.087 575.026 198.622 574.553 198.622 573.975C198.622 573.397 199.087 572.924 199.657 572.924C200.226 572.924 200.691 573.397 200.691 573.975ZM389.795 574.238C389.143 576.227 385.914 576.509 385.914 574.577C385.914 573.603 386.799 572.924 388.07 572.924C389.334 572.924 390.048 573.467 389.795 574.238ZM1115.94 573.975C1116.29 574.553 1116.09 575.026 1115.48 575.026C1114.88 575.026 1114.39 574.553 1114.39 573.975C1114.39 573.397 1114.59 572.924 1114.84 572.924C1115.1 572.924 1115.59 573.397 1115.94 573.975ZM1305.56 574.238C1304.92 576.201 1302.03 576.416 1301.33 574.552C1300.87 573.344 1301.39 572.924 1303.35 572.924C1305 572.924 1305.83 573.416 1305.56 574.238ZM1382.39 573.387C1382.39 573.643 1381.93 574.143 1381.36 574.501C1380.79 574.858 1380.32 574.649 1380.32 574.037C1380.32 573.425 1380.79 572.924 1381.36 572.924C1381.93 572.924 1382.39 573.132 1382.39 573.387ZM689.618 577.129C689.969 577.707 689.764 578.18 689.161 578.18C688.559 578.18 688.065 577.707 688.065 577.129C688.065 576.55 688.27 576.077 688.522 576.077C688.773 576.077 689.266 576.55 689.618 577.129ZM1322.38 577.129C1322.38 577.707 1321.91 578.18 1321.34 578.18C1320.77 578.18 1320.31 577.707 1320.31 577.129C1320.31 576.55 1320.77 576.077 1321.34 576.077C1321.91 576.077 1322.38 576.55 1322.38 577.129ZM386.949 578.18C386.949 578.758 386.455 579.231 385.853 579.231C385.251 579.231 385.045 578.758 385.397 578.18C385.749 577.602 386.241 577.129 386.493 577.129C386.744 577.129 386.949 577.602 386.949 578.18ZM890.879 578.004C890.879 579.373 889.649 580.283 888.648 579.656C887.578 578.984 888.501 577.129 889.906 577.129C890.442 577.129 890.879 577.523 890.879 578.004ZM1302.72 578.118C1302.72 578.662 1302.25 579.399 1301.68 579.757C1301.11 580.114 1300.65 579.668 1300.65 578.767C1300.65 577.867 1301.11 577.129 1301.68 577.129C1302.25 577.129 1302.72 577.573 1302.72 578.118ZM1122.67 582.848C1122.67 583.104 1122.2 583.604 1121.63 583.961C1121.06 584.319 1120.6 584.11 1120.6 583.498C1120.6 582.886 1121.06 582.385 1121.63 582.385C1122.2 582.385 1122.67 582.593 1122.67 582.848ZM687.031 585.538C687.031 586.116 686.565 586.589 685.996 586.589C685.427 586.589 684.961 586.116 684.961 585.538C684.961 584.96 685.427 584.487 685.996 584.487C686.565 584.487 687.031 584.96 687.031 585.538ZM377.119 586.589C377.47 587.167 377.265 587.641 376.662 587.641C376.06 587.641 375.567 587.167 375.567 586.589C375.567 586.011 375.771 585.538 376.023 585.538C376.274 585.538 376.767 586.011 377.119 586.589ZM1080.24 588.692C1080.24 589.27 1079.75 589.743 1079.15 589.743C1078.54 589.743 1078.34 589.27 1078.69 588.692C1079.04 588.114 1079.53 587.641 1079.78 587.641C1080.04 587.641 1080.24 588.114 1080.24 588.692ZM781.712 589.743C782.064 590.321 781.858 590.794 781.255 590.794C780.653 590.794 780.159 590.321 780.159 589.743C780.159 589.165 780.364 588.692 780.616 588.692C780.867 588.692 781.36 589.165 781.712 589.743ZM716.025 592.396C716.745 593.277 716.971 594.342 716.528 594.761C716.084 595.181 715.522 594.96 715.278 594.269C715.034 593.58 714.167 593.275 713.35 593.593C711.838 594.183 711.302 592.768 712.555 591.495C713.629 590.403 714.603 590.656 716.025 592.396ZM298.994 596.05C298.994 596.628 298.528 597.101 297.959 597.101C297.39 597.101 296.924 596.628 296.924 596.05C296.924 595.472 297.39 594.999 297.959 594.999C298.528 594.999 298.994 595.472 298.994 596.05ZM-14.5398 598.215C-14.5398 598.759 -15.2382 599.204 -16.0919 599.204C-17.6917 599.204 -18.148 597.963 -16.9829 596.78C-16.1561 595.94 -14.5398 596.889 -14.5398 598.215ZM900.3 598.464C898.971 599.813 897.625 598.771 898.608 597.154C898.989 596.528 899.774 596.314 900.354 596.678C901.06 597.121 901.043 597.709 900.3 598.464ZM462.487 601.306C462.487 601.884 462.021 602.357 461.452 602.357C460.883 602.357 460.417 601.884 460.417 601.306C460.417 600.728 460.883 600.255 461.452 600.255C462.021 600.255 462.487 600.728 462.487 601.306ZM1378.25 601.13C1378.25 602.499 1377.02 603.409 1376.02 602.782C1374.95 602.11 1375.88 600.255 1377.28 600.255C1377.82 600.255 1378.25 600.649 1378.25 601.13ZM541.646 602.357C541.294 602.935 540.569 603.408 540.033 603.408C539.497 603.408 539.059 602.935 539.059 602.357C539.059 601.779 539.786 601.306 540.673 601.306C541.559 601.306 541.998 601.779 541.646 602.357ZM1456.9 602.357C1456.9 602.935 1456.43 603.408 1455.86 603.408C1455.29 603.408 1454.83 602.935 1454.83 602.357C1454.83 601.779 1455.29 601.306 1455.86 601.306C1456.43 601.306 1456.9 601.779 1456.9 602.357ZM711.865 604.46C711.865 605.038 711.399 605.511 710.83 605.511C710.261 605.511 709.795 605.038 709.795 604.46C709.795 603.881 710.261 603.408 710.83 603.408C711.399 603.408 711.865 603.881 711.865 604.46ZM680.822 607.088C680.822 607.955 680.356 608.664 679.787 608.664C679.218 608.664 678.753 607.955 678.753 607.088C678.753 606.22 679.218 605.511 679.787 605.511C680.356 605.511 680.822 606.22 680.822 607.088ZM665.301 614.972C665.301 615.55 664.835 616.023 664.266 616.023C663.697 616.023 663.231 615.55 663.231 614.972C663.231 614.393 663.697 613.92 664.266 613.92C664.835 613.92 665.301 614.393 665.301 614.972ZM-23.8527 616.023C-23.8527 616.601 -24.0575 617.074 -24.309 617.074C-24.5604 617.074 -25.053 616.601 -25.4048 616.023C-25.7566 615.445 -25.5507 614.972 -24.9485 614.972C-24.3462 614.972 -23.8527 615.445 -23.8527 616.023ZM891.914 616.023C891.914 616.601 891.709 617.074 891.458 617.074C891.206 617.074 890.714 616.601 890.362 616.023C890.01 615.445 890.216 614.972 890.818 614.972C891.42 614.972 891.914 615.445 891.914 616.023ZM465.591 618.651C465.591 619.526 464.671 620.228 463.522 620.228C462.372 620.228 461.452 619.526 461.452 618.651C461.452 617.775 462.372 617.074 463.522 617.074C464.671 617.074 465.591 617.775 465.591 618.651ZM1381.1 618.388C1380.45 620.377 1377.22 620.66 1377.22 618.727C1377.22 617.753 1378.1 617.074 1379.37 617.074C1380.64 617.074 1381.35 617.617 1381.1 618.388ZM462.594 623.692C461.266 625.042 459.919 623.999 460.902 622.382C461.283 621.757 462.069 621.542 462.648 621.906C463.355 622.35 463.337 622.937 462.594 623.692ZM1378.41 622.855C1378.41 623.405 1377.91 624.023 1377.3 624.23C1376.68 624.437 1376.18 623.819 1376.18 622.855C1376.18 621.891 1376.68 621.273 1377.3 621.48C1377.91 621.688 1378.41 622.306 1378.41 622.855ZM133.062 626.209C132.167 627.119 129.21 624.367 129.888 623.254C130.202 622.737 131.183 623.05 132.069 623.949C132.954 624.847 133.401 625.865 133.062 626.209ZM552.318 624.367C552.576 625.155 552.188 625.55 551.412 625.287C550.665 625.033 549.85 624.205 549.602 623.447C549.343 622.659 549.731 622.265 550.507 622.527C551.253 622.78 552.068 623.608 552.318 624.367ZM641.501 623.381C641.501 623.959 641.296 624.432 641.045 624.432C640.793 624.432 640.301 623.959 639.949 623.381C639.597 622.803 639.803 622.33 640.405 622.33C641.007 622.33 641.501 622.803 641.501 623.381ZM1222 623.381C1222 623.959 1221.54 624.432 1220.97 624.432C1220.4 624.432 1219.93 623.959 1219.93 623.381C1219.93 622.803 1220.4 622.33 1220.97 622.33C1221.54 622.33 1222 622.803 1222 623.381ZM292.816 625.425C291.546 627.837 289.792 629.1 288.929 628.223C288.208 627.491 291.648 623.381 292.982 623.381C293.483 623.381 293.408 624.301 292.816 625.425ZM1048.72 624.503C1049.82 626.306 1048.84 626.482 1046.67 624.872C1044.99 623.625 1044.94 623.381 1046.35 623.381C1047.28 623.381 1048.35 623.886 1048.72 624.503ZM1207.56 626.444C1206.48 628.507 1204.41 629.481 1204.41 627.932C1204.41 626.882 1207.78 623.298 1208.29 623.81C1208.52 624.053 1208.2 625.239 1207.56 626.444ZM589.763 627.586C589.763 628.164 589.297 628.637 588.728 628.637C588.159 628.637 587.693 628.164 587.693 627.586C587.693 627.008 588.159 626.535 588.728 626.535C589.297 626.535 589.763 627.008 589.763 627.586ZM222.421 642.303C222.421 642.881 221.928 643.354 221.326 643.354C220.723 643.354 220.517 642.881 220.869 642.303C221.221 641.724 221.714 641.251 221.965 641.251C222.216 641.251 222.421 641.724 222.421 642.303ZM1137.67 642.303C1138.02 642.881 1137.82 643.354 1137.21 643.354C1136.61 643.354 1136.12 642.881 1136.12 642.303C1136.12 641.724 1136.32 641.251 1136.58 641.251C1136.83 641.251 1137.32 641.724 1137.67 642.303ZM80.1412 645.456C80.493 646.034 80.0274 646.507 79.1064 646.507C78.1855 646.507 77.7198 646.034 78.0717 645.456C78.4235 644.878 78.8891 644.405 79.1064 644.405C79.3237 644.405 79.7894 644.878 80.1412 645.456ZM995.391 645.456C995.391 646.034 994.897 646.507 994.295 646.507C993.693 646.507 993.487 646.034 993.838 645.456C994.19 644.878 994.683 644.405 994.934 644.405C995.186 644.405 995.391 644.878 995.391 645.456ZM208.969 658.534C208.969 658.789 208.504 659.29 207.935 659.647C207.366 660.005 206.9 659.795 206.9 659.184C206.9 658.572 207.366 658.07 207.935 658.07C208.504 658.07 208.969 658.279 208.969 658.534ZM287.612 664.378C287.612 664.956 286.68 665.429 285.542 665.429C284.404 665.429 283.472 664.956 283.472 664.378C283.472 663.799 284.404 663.326 285.542 663.326C286.68 663.326 287.612 663.799 287.612 664.378ZM1202.86 664.378C1203.21 664.956 1202.54 665.429 1201.37 665.429C1200.2 665.429 1199.24 664.956 1199.24 664.378C1199.24 663.799 1199.91 663.326 1200.73 663.326C1201.55 663.326 1202.51 663.799 1202.86 664.378ZM154.127 666.944C154.127 667.199 153.661 667.699 153.092 668.057C152.523 668.414 152.057 668.205 152.057 667.593C152.057 666.981 152.523 666.48 153.092 666.48C153.661 666.48 154.127 666.688 154.127 666.944ZM1068.86 667.531C1068.86 668.109 1068.65 668.582 1068.4 668.582C1068.15 668.582 1067.66 668.109 1067.31 667.531C1066.95 666.953 1067.16 666.48 1067.76 666.48C1068.37 666.48 1068.86 666.953 1068.86 667.531ZM761.534 668.582C761.534 669.161 760.835 669.634 759.982 669.634C759.128 669.634 758.429 669.161 758.429 668.582C758.429 668.004 759.128 667.531 759.982 667.531C760.835 667.531 761.534 668.004 761.534 668.582ZM848.454 670.685C848.454 671.263 847.988 671.736 847.419 671.736C846.85 671.736 846.384 671.263 846.384 670.685C846.384 670.107 846.85 669.634 847.419 669.634C847.988 669.634 848.454 670.107 848.454 670.685ZM246.221 674.827C246.221 676.068 244.203 677.394 243.461 676.642C242.72 675.888 244.026 673.838 245.247 673.838C245.783 673.838 246.221 674.283 246.221 674.827ZM1161.73 675.152C1161.49 675.876 1160.42 676.639 1159.35 676.85C1157.66 677.182 1157.58 677.006 1158.78 675.536C1160.43 673.527 1162.34 673.277 1161.73 675.152ZM597.006 679.094C597.006 679.672 596.308 680.145 595.454 680.145C594.6 680.145 593.902 679.672 593.902 679.094C593.902 678.516 594.6 678.043 595.454 678.043C596.308 678.043 597.006 678.516 597.006 679.094ZM741.873 683.299C741.873 683.877 741.175 684.35 740.321 684.35C739.467 684.35 738.769 683.877 738.769 683.299C738.769 682.721 739.467 682.248 740.321 682.248C741.175 682.248 741.873 682.721 741.873 683.299ZM438.795 685.713C437.466 687.062 436.12 686.02 437.103 684.403C437.484 683.777 438.269 683.563 438.849 683.927C439.555 684.37 439.538 684.958 438.795 685.713ZM1354.04 686.168C1352.99 687.237 1352.12 685.627 1352.99 684.209C1353.64 683.137 1353.88 683.137 1354.23 684.205C1354.47 684.936 1354.39 685.819 1354.04 686.168ZM453.174 686.453C453.174 687.031 452.708 687.504 452.139 687.504C451.57 687.504 451.104 687.031 451.104 686.453C451.104 685.874 451.57 685.401 452.139 685.401C452.708 685.401 453.174 685.874 453.174 686.453ZM1368.94 686.453C1368.94 687.031 1368.48 687.504 1367.91 687.504C1367.34 687.504 1366.87 687.031 1366.87 686.453C1366.87 685.874 1367.34 685.401 1367.91 685.401C1368.48 685.401 1368.94 685.874 1368.94 686.453ZM429.374 688.091C429.374 688.992 428.909 689.438 428.34 689.081C427.77 688.723 427.305 687.986 427.305 687.442C427.305 686.897 427.77 686.453 428.34 686.453C428.909 686.453 429.374 687.191 429.374 688.091ZM1345.14 688.029C1345.14 688.897 1344.68 689.606 1344.11 689.606C1343.54 689.606 1343.07 688.897 1343.07 688.029C1343.07 687.162 1343.54 686.453 1344.11 686.453C1344.68 686.453 1345.14 687.162 1345.14 688.029ZM127.223 690.657C127.223 691.236 126.757 691.709 126.188 691.709C125.619 691.709 125.153 691.236 125.153 690.657C125.153 690.079 125.619 689.606 126.188 689.606C126.757 689.606 127.223 690.079 127.223 690.657ZM1042.99 690.657C1042.99 691.236 1042.52 691.709 1041.96 691.709C1041.39 691.709 1040.92 691.236 1040.92 690.657C1040.92 690.079 1041.39 689.606 1041.96 689.606C1042.52 689.606 1042.99 690.079 1042.99 690.657ZM493.53 700.118C493.53 700.696 493.064 701.169 492.495 701.169C491.926 701.169 491.46 700.696 491.46 700.118C491.46 699.54 491.926 699.067 492.495 699.067C493.064 699.067 493.53 699.54 493.53 700.118ZM1409.3 700.118C1409.3 700.696 1408.6 701.169 1407.74 701.169C1406.89 701.169 1406.19 700.696 1406.19 700.118C1406.19 699.54 1406.89 699.067 1407.74 699.067C1408.6 699.067 1409.3 699.54 1409.3 700.118ZM424.746 705.42C425.113 706.024 424.846 707.212 424.152 708.061C423.188 709.24 422.554 709.32 421.464 708.402C420.383 707.491 420.322 706.847 421.21 705.76C422.613 704.042 423.836 703.926 424.746 705.42ZM1339.97 707.013C1339.97 707.846 1339.04 708.528 1337.9 708.528C1335.57 708.528 1335.24 707.44 1337.03 705.626C1338.46 704.177 1339.97 704.891 1339.97 707.013ZM588.534 708.806C588.945 710.978 585.959 712.442 584.382 710.84C582.805 709.238 584.246 706.205 586.384 706.623C587.376 706.816 588.343 707.799 588.534 708.806ZM448.517 709.579C448.869 710.157 448.663 710.63 448.061 710.63C447.459 710.63 446.965 710.157 446.965 709.579C446.965 709.001 447.17 708.528 447.422 708.528C447.673 708.528 448.166 709.001 448.517 709.579ZM1363.77 710.104C1363.77 710.972 1363.58 711.681 1363.36 711.681C1363.14 711.681 1362.69 710.972 1362.36 710.104C1362.03 709.237 1362.21 708.528 1362.76 708.528C1363.32 708.528 1363.77 709.237 1363.77 710.104ZM1107.37 715.027C1105.79 716.63 1104.83 715.654 1105.71 713.338C1106.19 712.064 1106.71 711.866 1107.49 712.662C1108.27 713.457 1108.24 714.146 1107.37 715.027ZM192.413 713.722C192.413 714.266 191.948 715.003 191.378 715.36C190.809 715.718 190.344 715.272 190.344 714.371C190.344 713.47 190.809 712.732 191.378 712.732C191.948 712.732 192.413 713.177 192.413 713.722ZM555.616 713.784C555.616 714.362 555.15 714.835 554.581 714.835C554.012 714.835 553.546 714.362 553.546 713.784C553.546 713.205 554.012 712.732 554.581 712.732C555.15 712.732 555.616 713.205 555.616 713.784ZM490.227 715.965C490.023 716.586 489.413 717.095 488.873 717.095C488.333 717.095 487.724 716.586 487.52 715.965C487.316 715.344 487.924 714.835 488.873 714.835C489.822 714.835 490.431 715.344 490.227 715.965ZM1405.24 716.175C1405.11 717.432 1403.69 717.188 1403.24 715.833C1403.02 715.14 1403.39 714.761 1404.07 714.993C1404.75 715.224 1405.28 715.756 1405.24 716.175ZM646.675 721.142C646.675 721.72 646.209 722.193 645.64 722.193C645.071 722.193 644.605 721.72 644.605 721.142C644.605 720.564 645.071 720.091 645.64 720.091C646.209 720.091 646.675 720.564 646.675 721.142ZM678.753 723.244C678.753 723.822 678.054 724.296 677.2 724.296C676.347 724.296 675.648 723.822 675.648 723.244C675.648 722.666 676.347 722.193 677.2 722.193C678.054 722.193 678.753 722.666 678.753 723.244ZM335.211 734.807C335.211 735.386 334.717 735.859 334.115 735.859C333.513 735.859 333.307 735.386 333.659 734.807C334.01 734.229 334.503 733.756 334.754 733.756C335.006 733.756 335.211 734.229 335.211 734.807ZM715.487 734.807C715.839 735.386 715.633 735.859 715.03 735.859C714.428 735.859 713.935 735.386 713.935 734.807C713.935 734.229 714.139 733.756 714.391 733.756C714.642 733.756 715.135 734.229 715.487 734.807ZM1250.98 734.22C1250.98 734.475 1250.51 734.976 1249.94 735.333C1249.37 735.69 1248.91 735.481 1248.91 734.87C1248.91 734.258 1249.37 733.756 1249.94 733.756C1250.51 733.756 1250.98 733.964 1250.98 734.22ZM397.297 747.861C397.297 748.103 397.581 749.054 397.929 749.976C398.383 751.177 398.112 751.475 396.975 751.032C394.79 750.18 393.876 747.422 395.776 747.422C396.613 747.422 397.297 747.619 397.297 747.861ZM994.829 748.4C995.157 748.939 994.951 749.676 994.372 750.039C993.794 750.402 993.321 749.961 993.321 749.061C993.321 747.214 993.942 746.942 994.829 748.4ZM1314.1 750.671C1314.1 751.16 1313.4 751.288 1312.55 750.956C1311.69 750.623 1310.99 749.633 1310.99 748.758C1310.99 747.461 1311.28 747.408 1312.55 748.473C1313.4 749.193 1314.1 750.182 1314.1 750.671ZM204.83 749.524C204.83 750.102 204.625 750.575 204.374 750.575C204.123 750.575 203.63 750.102 203.278 749.524C202.926 748.946 203.132 748.473 203.735 748.473C204.337 748.473 204.83 748.946 204.83 749.524ZM674.096 751.627C674.448 752.205 674.242 752.678 673.64 752.678C673.038 752.678 672.544 752.205 672.544 751.627C672.544 751.048 672.749 750.575 673 750.575C673.252 750.575 673.744 751.048 674.096 751.627ZM576.311 753.141C576.311 753.397 575.845 753.897 575.276 754.255C574.707 754.612 574.241 754.403 574.241 753.791C574.241 753.179 574.707 752.678 575.276 752.678C575.845 752.678 576.311 752.886 576.311 753.141ZM852.593 769.497C852.593 770.075 852.127 770.548 851.558 770.548C850.989 770.548 850.524 770.075 850.524 769.497C850.524 768.919 850.989 768.446 851.558 768.446C852.127 768.446 852.593 768.919 852.593 769.497ZM124.636 772.65C124.284 773.229 123.559 773.702 123.023 773.702C122.487 773.702 122.049 773.229 122.049 772.65C122.049 772.072 122.776 771.599 123.662 771.599C124.549 771.599 124.988 772.072 124.636 772.65ZM1040.92 772.012C1040.92 772.239 1040.22 772.698 1039.37 773.031C1038.51 773.363 1037.82 773.177 1037.82 772.618C1037.82 772.058 1038.51 771.599 1039.37 771.599C1040.22 771.599 1040.92 771.785 1040.92 772.012ZM870.588 777.644C869.812 780.988 868.107 783.32 868.129 781.007C868.155 778.232 869.376 774.753 870.325 774.753C870.838 774.753 870.956 776.053 870.588 777.644ZM86.8672 776.855C86.8672 777.433 86.6623 777.906 86.4108 777.906C86.1594 777.906 85.6668 777.433 85.315 776.855C84.9632 776.277 85.1691 775.804 85.7713 775.804C86.3736 775.804 86.8672 776.277 86.8672 776.855ZM73.4152 777.743C73.4152 778.232 72.4839 779.488 71.3457 780.534C69.0589 782.637 68.4214 780.906 70.5696 778.428C72.0286 776.744 73.4152 776.411 73.4152 777.743ZM989.182 777.743C989.182 778.232 988.251 779.488 987.112 780.534C985.469 782.045 985.043 782.122 985.043 780.907C985.043 779.258 987.007 776.855 988.354 776.855C988.809 776.855 989.182 777.255 989.182 777.743ZM993.321 780.009C993.321 780.587 992.827 781.06 992.225 781.06C991.623 781.06 991.417 780.587 991.769 780.009C992.121 779.431 992.613 778.958 992.865 778.958C993.116 778.958 993.321 779.431 993.321 780.009ZM384.879 781.06C384.879 781.638 384.414 782.111 383.845 782.111C383.276 782.111 382.81 781.638 382.81 781.06C382.81 780.482 383.276 780.009 383.845 780.009C384.414 780.009 384.879 780.482 384.879 781.06ZM1299.61 781.06C1299.61 781.638 1299.41 782.111 1299.16 782.111C1298.9 782.111 1298.41 781.638 1298.06 781.06C1297.71 780.482 1297.91 780.009 1298.52 780.009C1299.12 780.009 1299.61 780.482 1299.61 781.06ZM179.996 787.367C179.996 787.945 179.791 788.418 179.54 788.418C179.288 788.418 178.796 787.945 178.444 787.367C178.092 786.789 178.298 786.316 178.9 786.316C179.502 786.316 179.996 786.789 179.996 787.367ZM1095.76 787.367C1095.76 787.945 1095.3 788.418 1094.73 788.418C1094.16 788.418 1093.69 787.945 1093.69 787.367C1093.69 786.789 1094.16 786.316 1094.73 786.316C1095.3 786.316 1095.76 786.789 1095.76 787.367ZM787.92 791.572C788.272 792.15 788.066 792.623 787.464 792.623C786.862 792.623 786.368 792.15 786.368 791.572C786.368 790.994 786.573 790.521 786.824 790.521C787.076 790.521 787.568 790.994 787.92 791.572ZM293.82 795.777C293.82 796.355 293.122 796.828 292.268 796.828C291.414 796.828 290.716 796.355 290.716 795.777C290.716 795.198 291.414 794.725 292.268 794.725C293.122 794.725 293.82 795.198 293.82 795.777ZM1209.59 795.777C1209.59 796.355 1208.89 796.828 1208.03 796.828C1207.18 796.828 1206.48 796.355 1206.48 795.777C1206.48 795.198 1207.18 794.725 1208.03 794.725C1208.89 794.725 1209.59 795.198 1209.59 795.777ZM1167.3 807.625C1165.57 809.375 1164.6 807.636 1166.2 805.674C1167.17 804.486 1167.73 804.344 1168.02 805.214C1168.24 805.906 1167.92 806.991 1167.3 807.625ZM252.193 806.486C251.967 807.173 251.229 807.921 250.553 808.15C249.797 808.407 249.566 807.925 249.952 806.902C250.675 804.991 252.813 804.594 252.193 806.486ZM223.645 814.926C222.904 815.68 222.421 815.742 222.421 815.084C222.421 813.681 223.645 812.437 224.336 813.139C224.63 813.438 224.319 814.242 223.645 814.926ZM1140.26 813.585C1140.26 814.129 1139.79 814.866 1139.22 815.224C1138.65 815.581 1138.19 815.135 1138.19 814.235C1138.19 813.334 1138.65 812.596 1139.22 812.596C1139.79 812.596 1140.26 813.04 1140.26 813.585Z" stroke="#3E434E" stroke-opacity="0.4" stroke-width="2"/>
</g>
</svg>
