<?xml version="1.0" encoding="utf-8"?>
<!-- Generator: Adobe Illustrator 24.0.1, SVG Export Plug-In . SVG Version: 6.00 Build 0)  -->
<svg version="1.1" id="Слой_1" xmlns="http://www.w3.org/2000/svg" xmlns:xlink="http://www.w3.org/1999/xlink" x="0px" y="0px"
	 viewBox="0 0 311.8 311.8" style="enable-background:new 0 0 311.8 311.8;" xml:space="preserve">
<style type="text/css">
	.st0{fill:#B47E11;}
	.st1{fill:url(#SVGID_1_);}
	.st2{fill:url(#SVGID_2_);}
	.st3{fill:url(#SVGID_3_);}
	.st4{fill:url(#SVGID_4_);}
	.st5{fill:url(#SVGID_5_);}
	.st6{fill:url(#SVGID_6_);}
	.st7{fill:url(#SVGID_7_);}
	.st8{fill:url(#SVGID_8_);}
	.st9{fill:url(#SVGID_9_);}
	.st10{fill:url(#SVGID_10_);}
	.st11{fill:url(#SVGID_11_);}
	.st12{fill:url(#SVGID_12_);}
	.st13{clip-path:url(#SVGID_14_);fill:url(#SVGID_15_);}
	.st14{fill:url(#SVGID_16_);}
	.st15{fill:url(#SVGID_17_);}
	.st16{fill:url(#SVGID_18_);}
	.st17{fill:url(#SVGID_19_);}
	.st18{fill:url(#SVGID_20_);}
	.st19{fill:url(#SVGID_21_);}
	.st20{fill:url(#SVGID_22_);}
	.st21{fill:url(#SVGID_23_);}
	.st22{fill:url(#SVGID_24_);}
	.st23{fill:url(#SVGID_25_);}
	.st24{fill:url(#SVGID_26_);}
	.st25{fill:url(#SVGID_27_);}
	.st26{fill:url(#SVGID_28_);}
	.st27{fill:url(#SVGID_29_);}
	.st28{fill:url(#SVGID_30_);}
	.st29{fill:url(#SVGID_31_);}
	.st30{fill:url(#SVGID_32_);}
	.st31{fill:url(#SVGID_33_);}
	.st32{fill:url(#SVGID_34_);}
</style>
<g>
	<path class="st0" d="M119.3,291.2c-0.1,0-0.2,0-0.3,0c0,0-0.1,0-0.1,0c-0.5-0.2-0.8-0.7-0.7-1.2c0.1-0.5,0.7-0.8,1.2-0.7
		c0.5,0.1,0.9,0.7,0.7,1.2C120.1,290.9,119.7,291.2,119.3,291.2z M196.3,291.2c-0.4,0-0.8-0.3-0.9-0.7c-0.1-0.5,0.2-1.1,0.7-1.2
		c0.5-0.1,1.1,0.1,1.2,0.7c0.2,0.5-0.1,1-0.6,1.2c0,0-0.1,0-0.1,0C196.4,291.2,196.3,291.2,196.3,291.2z M101,284.4
		c-0.1,0-0.3,0-0.4-0.1c0,0-0.1,0-0.1,0c-0.5-0.2-0.7-0.8-0.5-1.3c0.2-0.5,0.8-0.7,1.3-0.5c0.5,0.2,0.8,0.8,0.5,1.3
		C101.7,284.1,101.3,284.4,101,284.4z M214.6,284.4c-0.4,0-0.7-0.2-0.9-0.6c-0.2-0.5,0-1.1,0.5-1.3c0,0,0.1,0,0.1,0
		c0.5-0.2,1.1,0,1.3,0.5c0.2,0.5,0,1.1-0.5,1.3l-0.4-0.9l0.3,0.9C214.8,284.3,214.7,284.4,214.6,284.4z M83.8,275
		c-0.2,0-0.3,0-0.5-0.1c0,0-0.1-0.1-0.1-0.1c-0.5-0.3-0.6-0.9-0.3-1.4c0.3-0.5,0.9-0.6,1.4-0.3c0.4,0.3,0.6,0.9,0.3,1.4
		C84.4,274.8,84.1,275,83.8,275z M231.7,275c-0.3,0-0.6-0.2-0.8-0.4c-0.3-0.5-0.2-1.1,0.3-1.4c0,0,0.1-0.1,0.1-0.1
		c0.5-0.3,1.1-0.2,1.4,0.3c0.3,0.5,0.2,1.1-0.3,1.4l-0.5-0.8l0.5,0.9C232,274.9,231.9,275,231.7,275z M247.3,263.3
		c-0.3,0-0.5-0.1-0.7-0.3c-0.4-0.4-0.3-1,0.1-1.4c0,0,0.1-0.1,0.1-0.1c0.4-0.3,1-0.3,1.4,0.1c0.3,0.4,0.3,1-0.1,1.4l-0.6-0.7
		l0.6,0.8C247.7,263.2,247.5,263.3,247.3,263.3z M68.2,263.3c-0.2,0-0.4-0.1-0.6-0.2l-0.1-0.1c-0.4-0.4-0.5-1-0.1-1.4
		c0.4-0.4,1-0.5,1.4-0.1c0.4,0.4,0.5,1,0.1,1.4C68.7,263.2,68.4,263.3,68.2,263.3z M54.4,249.5c-0.3,0-0.6-0.1-0.7-0.3l0.7-0.6
		l-0.8,0.6c-0.4-0.4-0.3-1,0.1-1.4s1-0.3,1.4,0.1c0,0,0.1,0.1,0.1,0.1c0.4,0.4,0.3,1-0.1,1.4C54.9,249.4,54.6,249.5,54.4,249.5z
		 M261.1,249.5c-0.2,0-0.5-0.1-0.6-0.2c-0.4-0.4-0.4-1-0.1-1.4c0.4-0.4,1-0.5,1.4-0.1c0.4,0.4,0.5,0.9,0.1,1.3c0,0-0.1,0.1-0.1,0.1
		C261.6,249.4,261.4,249.5,261.1,249.5z M26.4,198.5c-0.4,0-0.8-0.2-0.9-0.7c0,0,0-0.1,0-0.1c-0.1-0.5,0.2-1.1,0.7-1.2
		c0.5-0.1,1.1,0.2,1.2,0.7c0.1,0.5-0.1,1.1-0.7,1.3C26.6,198.5,26.5,198.5,26.4,198.5z M289,198.5c-0.1,0-0.2,0-0.3,0
		c-0.5-0.1-0.8-0.7-0.7-1.2c0,0,0-0.1,0-0.1c0.2-0.5,0.7-0.8,1.2-0.6c0.5,0.2,0.8,0.7,0.6,1.2l-0.9-0.3l0.9,0.4
		C289.9,198.2,289.5,198.5,289,198.5z M22.3,179.4c-0.5,0-0.9-0.3-0.9-0.8c0,0,0-0.1,0-0.1c-0.1-0.5,0.3-1,0.8-1.1
		c0.5-0.1,1,0.3,1.1,0.8c0.1,0.5-0.3,1.1-0.8,1.1C22.4,179.4,22.3,179.4,22.3,179.4z M293.2,179.4c0,0-0.1,0-0.1,0
		c-0.5-0.1-0.9-0.6-0.9-1.1c0,0,0-0.1,0-0.1c0.1-0.5,0.6-0.9,1.1-0.8c0.5,0.1,0.9,0.6,0.8,1.1l-1-0.1l1,0.2
		C294.1,179,293.7,179.4,293.2,179.4z M20.9,159.9c-0.5,0-1-0.4-1-0.9v-0.1c0-0.5,0.4-1,1-1c0.5,0,1,0.4,1,1
		C21.9,159.5,21.5,159.9,20.9,159.9z M294.6,159.9c-0.5,0-1-0.4-1-1c0-0.1,0-0.1,0-0.2c0,0,0-0.1,0-0.2c0-0.5,0.4-1,1-1s1,0.4,1,0.9
		v0.1c0,0,0,0.1,0,0.1c0,0,0,0.1,0,0.1v0.1C295.5,159.5,295.1,159.9,294.6,159.9z M22.3,140.5c0,0-0.1,0-0.1,0
		c-0.5-0.1-0.9-0.5-0.8-1.1c0,0,0-0.1,0-0.1c0.1-0.5,0.6-0.9,1.1-0.8c0.5,0.1,0.9,0.6,0.8,1.1C23.2,140.1,22.8,140.5,22.3,140.5z
		 M293.2,140.2c-0.5,0-0.9-0.3-1-0.8c-0.1-0.5,0.3-1.1,0.8-1.2c0.5-0.1,1,0.2,1.1,0.8l0,0.1c0.1,0.5-0.3,1-0.8,1.1
		C293.3,140.2,293.2,140.2,293.2,140.2z M26.4,121.4c-0.1,0-0.2,0-0.3,0c-0.5-0.2-0.8-0.6-0.7-1.2l0-0.1c0.2-0.5,0.7-0.8,1.2-0.7
		c0.5,0.2,0.8,0.7,0.7,1.2C27.2,121.1,26.8,121.4,26.4,121.4z M289,121.1c-0.4,0-0.8-0.3-0.9-0.7c-0.1-0.5,0.1-1.1,0.7-1.2
		c0.5-0.1,1,0.1,1.2,0.6c0,0,0,0.1,0,0.1c0.1,0.5-0.2,1.1-0.7,1.2C289.2,121.1,289.1,121.1,289,121.1z M54.2,70.3
		c-0.2,0-0.4-0.1-0.6-0.2c-0.4-0.4-0.5-0.9-0.1-1.3c0,0,0.1-0.1,0.1-0.1c0.4-0.4,1-0.5,1.4-0.1c0.4,0.4,0.5,1,0.1,1.4
		C54.8,70.2,54.5,70.3,54.2,70.3z M261,70.1c-0.3,0-0.5-0.1-0.7-0.3c0,0-0.1-0.1-0.1-0.1c-0.4-0.4-0.3-1,0.1-1.4
		c0.4-0.4,1-0.3,1.4,0.1l-0.7,0.6l0.8-0.6c0.4,0.4,0.3,1-0.1,1.4C261.5,70.1,261.3,70.1,261,70.1z M68,56.6c-0.3,0-0.5-0.1-0.7-0.3
		c-0.4-0.4-0.3-1,0.1-1.4l0.6,0.7l-0.6-0.8c0.4-0.4,1-0.3,1.4,0.1c0.4,0.4,0.3,1-0.1,1.4c0,0-0.1,0.1-0.1,0.1
		C68.5,56.5,68.2,56.6,68,56.6z M247.2,56.3c-0.2,0-0.5-0.1-0.7-0.3c-0.4-0.4-0.5-1-0.1-1.4c0.4-0.4,0.9-0.5,1.3-0.1
		c0,0,0.1,0.1,0.1,0.1c0.4,0.4,0.4,1,0.1,1.4C247.8,56.2,247.5,56.3,247.2,56.3z M83.7,44.8c-0.3,0-0.6-0.1-0.8-0.4
		c-0.3-0.5-0.2-1,0.2-1.3c0,0,0.1-0.1,0.1-0.1c0.5-0.3,1.1-0.2,1.4,0.3c0.3,0.5,0.2,1.1-0.3,1.4C84.1,44.7,83.9,44.8,83.7,44.8z
		 M231.6,44.7c-0.2,0-0.4-0.1-0.5-0.2c-0.5-0.3-0.6-0.9-0.3-1.4c0.3-0.5,0.9-0.6,1.3-0.3c0,0,0.1,0.1,0.1,0.1
		c0.5,0.3,0.6,0.9,0.3,1.4C232.2,44.5,231.9,44.7,231.6,44.7z M100.8,35.4c-0.4,0-0.8-0.2-0.9-0.6c-0.2-0.5-0.1-1.1,0.4-1.3
		c0,0,0.1,0,0.1,0c0.5-0.2,1.1,0,1.3,0.5c0.2,0.5,0,1.1-0.5,1.3C101.1,35.4,100.9,35.4,100.8,35.4z M214.5,35.3
		c-0.1,0-0.3,0-0.4-0.1c-0.5-0.2-0.8-0.8-0.5-1.3c0.2-0.5,0.8-0.7,1.3-0.5l0.1,0c0.5,0.2,0.7,0.8,0.5,1.3
		C215.2,35.1,214.8,35.3,214.5,35.3z M119.1,28.6c-0.4,0-0.9-0.3-1-0.7c-0.2-0.5,0.1-1.1,0.6-1.2l0.1,0c0.5-0.2,1.1,0.1,1.2,0.7
		c0.2,0.5-0.1,1.1-0.7,1.2C119.3,28.6,119.2,28.6,119.1,28.6z M196.2,28.5c-0.1,0-0.2,0-0.3,0c0,0-0.1,0-0.1,0
		c-0.5-0.2-0.8-0.7-0.7-1.2c0.2-0.5,0.7-0.8,1.2-0.7l-0.3,0.9l0.4-0.9c0.5,0.1,0.8,0.7,0.7,1.2C197,28.2,196.6,28.5,196.2,28.5z"/>
	<path class="st0" d="M133.2,305.9c-0.1,0-0.1,0-0.2,0l-0.1,0c-0.5-0.1-0.9-0.6-0.8-1.1s0.6-0.9,1.1-0.8l0.1,0
		c0.5,0.1,0.9,0.6,0.8,1.1C134.1,305.6,133.7,305.9,133.2,305.9z M192.1,303.9c-0.4,0-0.8-0.3-1-0.8c-0.1-0.5,0.2-1.1,0.7-1.2
		c0.5-0.1,1.1,0.2,1.2,0.7c0.1,0.5-0.2,1-0.7,1.2l-0.1,0C192.2,303.9,192.1,303.9,192.1,303.9z M113.9,301.4c-0.1,0-0.2,0-0.3,0
		l-0.1,0c-0.5-0.2-0.8-0.7-0.6-1.2c0.2-0.5,0.7-0.8,1.2-0.6c0.5,0.2,0.8,0.7,0.7,1.2C114.7,301.1,114.4,301.4,113.9,301.4z
		 M211,298.1c-0.4,0-0.8-0.2-0.9-0.6c-0.2-0.5,0-1.1,0.5-1.3l0.1,0c0.5-0.2,1.1,0.1,1.3,0.6c0.2,0.5-0.1,1.1-0.6,1.3l-0.1,0
		C211.2,298.1,211.1,298.1,211,298.1z M95.5,294.3c-0.1,0-0.3,0-0.4-0.1l-0.1,0c-0.5-0.2-0.7-0.8-0.5-1.3c0.2-0.5,0.8-0.7,1.3-0.5
		c0.5,0.2,0.7,0.8,0.5,1.3C96.2,294,95.8,294.3,95.5,294.3z M228.9,289.8c-0.3,0-0.7-0.2-0.9-0.5c-0.3-0.5-0.1-1.1,0.4-1.3l0.1-0.1
		c0.5-0.3,1.1-0.1,1.3,0.4c0.3,0.5,0.1,1.1-0.4,1.3l-0.1,0C229.2,289.7,229,289.8,228.9,289.8z M78.1,284.7c-0.2,0-0.3,0-0.5-0.1
		l-0.1-0.1c-0.5-0.3-0.6-0.9-0.3-1.4c0.3-0.5,0.9-0.6,1.4-0.3c0.5,0.3,0.6,0.9,0.3,1.4C78.7,284.6,78.4,284.7,78.1,284.7z
		 M245.5,279.1c-0.3,0-0.6-0.1-0.8-0.4c-0.3-0.4-0.3-1,0.2-1.4l0.1-0.1c0.4-0.3,1.1-0.2,1.4,0.2c0.3,0.4,0.2,1.1-0.2,1.4l0,0
		C246,279.1,245.7,279.1,245.5,279.1z M62.2,273c-0.2,0-0.4-0.1-0.6-0.2l-0.1-0.1c-0.4-0.3-0.5-1-0.1-1.4c0.3-0.4,1-0.5,1.4-0.1
		l0.1,0.1c0.4,0.4,0.5,1,0.1,1.4C62.8,272.9,62.5,273,62.2,273z M260.6,266.4c-0.3,0-0.5-0.1-0.7-0.3c-0.4-0.4-0.4-1,0-1.4
		c0.4-0.4,1-0.4,1.4,0c0.4,0.4,0.4,1,0,1.4l-0.1,0.1C261.1,266.3,260.9,266.4,260.6,266.4z M47.9,259.3c-0.2,0-0.5-0.1-0.7-0.3
		l-0.1-0.1c-0.4-0.4-0.3-1,0.1-1.4c0.4-0.4,1-0.3,1.4,0.1c0.4,0.4,0.4,1,0,1.4C48.4,259.2,48.2,259.3,47.9,259.3z M17.8,208.5
		c-0.4,0-0.7-0.2-0.9-0.6l0-0.1c-0.2-0.5,0.1-1.1,0.6-1.2c0.5-0.2,1.1,0.1,1.2,0.6c0.2,0.5-0.1,1.1-0.6,1.3
		C18.1,208.5,17.9,208.5,17.8,208.5z M300.6,199.1c-0.1,0-0.2,0-0.3,0c-0.5-0.1-0.8-0.7-0.7-1.2l0-0.1c0.1-0.5,0.7-0.8,1.2-0.7
		c0.5,0.1,0.8,0.7,0.7,1.2l0,0.1C301.4,198.8,301,199.1,300.6,199.1z M12.6,189.5c-0.4,0-0.8-0.3-0.9-0.7l0-0.1
		c-0.1-0.5,0.2-1,0.8-1.2c0.5-0.1,1,0.2,1.2,0.8c0.1,0.5-0.2,1.1-0.8,1.2C12.7,189.5,12.7,189.5,12.6,189.5z M304.5,179.7
		c0,0-0.1,0-0.1,0c-0.5-0.1-0.9-0.6-0.9-1.1l0-0.1c0.1-0.5,0.6-0.9,1.1-0.8c0.5,0.1,0.9,0.6,0.8,1.1l0,0.1
		C305.4,179.3,305,179.7,304.5,179.7z M10,169.9c-0.5,0-0.9-0.4-1-0.9l0-0.1c0-0.5,0.4-1,0.9-1c0.6,0,1,0.4,1,0.9
		C11,169.3,10.6,169.8,10,169.9C10,169.9,10,169.9,10,169.9z M305.8,159.9c-0.5,0-1-0.4-1-1v-0.1c0,0,0-0.1,0-0.1c0,0,0-0.1,0-0.1
		v-0.1c0-0.5,0.4-1,1-1c0.5,0,1,0.4,1,1v0.1c0,0,0,0.1,0,0.1c0,0,0,0.1,0,0.1v0.1C306.8,159.5,306.4,159.9,305.8,159.9z M10,150.1
		C9.9,150.1,9.9,150.1,10,150.1c-0.6,0-1-0.5-1-1l0-0.1c0-0.5,0.5-0.9,1-0.9c0.5,0,0.9,0.5,0.9,1C10.9,149.6,10.5,150.1,10,150.1z
		 M304.5,139.9c-0.5,0-0.9-0.4-1-0.9c-0.1-0.5,0.3-1.1,0.8-1.1c0.5-0.1,1,0.3,1.1,0.8l0,0.1c0.1,0.5-0.3,1-0.9,1.1
		C304.6,139.9,304.5,139.9,304.5,139.9z M12.6,130.5c-0.1,0-0.1,0-0.2,0c-0.5-0.1-0.9-0.6-0.8-1.2l0-0.1c0.1-0.5,0.6-0.9,1.1-0.8
		c0.5,0.1,0.9,0.6,0.8,1.1l0,0.1C13.4,130.2,13,130.5,12.6,130.5z M300.6,120.5c-0.4,0-0.8-0.3-0.9-0.7l0-0.1
		c-0.1-0.5,0.2-1.1,0.7-1.2c0.5-0.1,1.1,0.2,1.2,0.7l0,0.1c0.1,0.5-0.2,1.1-0.7,1.2C300.7,120.5,300.6,120.5,300.6,120.5z
		 M17.7,111.4c-0.1,0-0.2,0-0.3-0.1c-0.5-0.2-0.8-0.7-0.6-1.3l0-0.1c0.2-0.5,0.7-0.8,1.2-0.6c0.5,0.2,0.8,0.7,0.6,1.2l0,0.1
		C18.5,111.2,18.1,111.4,17.7,111.4z M273.9,67.9c-0.3,0-0.6-0.1-0.8-0.4l-0.1-0.1c-0.3-0.4-0.3-1,0.2-1.4c0.4-0.3,1-0.3,1.4,0.2
		l0,0.1c0.3,0.4,0.3,1-0.1,1.4C274.3,67.9,274.1,67.9,273.9,67.9z M47.8,60.6c-0.2,0-0.5-0.1-0.7-0.3c-0.4-0.4-0.4-1-0.1-1.4
		l0.1-0.1c0.4-0.4,1-0.4,1.4-0.1c0.4,0.4,0.4,1,0.1,1.4l-0.1,0.1C48.3,60.5,48.1,60.6,47.8,60.6z M260.6,53.3
		c-0.2,0-0.5-0.1-0.7-0.3c-0.4-0.4-0.4-1-0.1-1.4c0.4-0.4,1-0.4,1.4-0.1l0.1,0.1c0.4,0.4,0.4,1,0,1.4
		C261.1,53.2,260.8,53.3,260.6,53.3z M62,46.9c-0.3,0-0.6-0.1-0.7-0.3c-0.4-0.4-0.3-1,0.1-1.4l0.1-0.1c0.4-0.4,1-0.3,1.4,0.1
		c0.4,0.4,0.3,1-0.1,1.4l-0.1,0.1C62.4,46.8,62.2,46.9,62,46.9z M245.5,40.5c-0.2,0-0.4-0.1-0.6-0.2c-0.4-0.3-0.6-1-0.2-1.4
		c0.3-0.4,0.9-0.6,1.3-0.2l0.1,0.1c0.4,0.3,0.5,0.9,0.2,1.4C246.1,40.4,245.8,40.5,245.5,40.5z M77.9,35.1c-0.3,0-0.6-0.2-0.8-0.5
		c-0.3-0.5-0.2-1.1,0.3-1.4l0.1,0c0.5-0.3,1.1-0.2,1.4,0.3c0.3,0.5,0.2,1.1-0.3,1.4l-0.1,0.1C78.3,35.1,78.1,35.1,77.9,35.1z
		 M228.8,29.9c-0.2,0-0.3,0-0.5-0.1l-0.1,0c-0.5-0.3-0.6-0.9-0.4-1.3c0.3-0.5,0.9-0.6,1.3-0.4l0.1,0c0.5,0.3,0.6,0.9,0.4,1.3
		C229.5,29.7,229.1,29.9,228.8,29.9z M95.2,25.6c-0.4,0-0.7-0.2-0.9-0.6c-0.2-0.5,0-1.1,0.5-1.3l0.1,0c0.5-0.2,1.1,0,1.3,0.5
		c0.2,0.5,0,1.1-0.5,1.3l-0.1,0C95.5,25.5,95.3,25.6,95.2,25.6z M210.8,21.6c-0.1,0-0.2,0-0.3-0.1l-0.1,0c-0.5-0.2-0.8-0.8-0.6-1.3
		c0.2-0.5,0.8-0.8,1.3-0.6l0.1,0c0.5,0.2,0.8,0.8,0.6,1.3C211.6,21.3,211.2,21.6,210.8,21.6z M113.6,18.4c-0.4,0-0.8-0.3-0.9-0.7
		c-0.2-0.5,0.1-1.1,0.6-1.2l0.1,0c0.5-0.2,1.1,0.1,1.2,0.6c0.2,0.5-0.1,1.1-0.6,1.2l-0.1,0C113.8,18.4,113.7,18.4,113.6,18.4z
		 M191.9,15.7c-0.1,0-0.1,0-0.2,0l-0.1,0c-0.5-0.1-0.8-0.7-0.7-1.2c0.1-0.5,0.7-0.9,1.2-0.7l0.1,0c0.5,0.1,0.9,0.6,0.7,1.2
		C192.8,15.4,192.4,15.7,191.9,15.7z M132.9,13.8c-0.5,0-0.9-0.3-1-0.8c-0.1-0.5,0.3-1,0.8-1.1l0.1,0c0.5-0.1,1,0.3,1.1,0.8
		c0.1,0.5-0.3,1-0.8,1.1l-0.1,0C133,13.8,132.9,13.8,132.9,13.8z M172.4,12.5C172.4,12.5,172.4,12.5,172.4,12.5l-0.2,0
		c-0.5-0.1-0.9-0.5-0.9-1.1c0.1-0.5,0.5-0.9,1.1-0.9l0.1,0c0.5,0,0.9,0.5,0.9,1.1C173.4,12.1,172.9,12.5,172.4,12.5z"/>
	<path class="st0" d="M175.5,283.6c-0.5,0-0.9-0.4-1-0.8c-0.1-0.5,0.3-1,0.8-1.1l0.1,0c0.5-0.1,1,0.3,1.1,0.8c0.1,0.5-0.3,1-0.8,1.1
		l-0.1,0C175.6,283.6,175.6,283.6,175.5,283.6z M122.6,279.9c-0.1,0-0.2,0-0.3,0l-0.1,0c-0.5-0.1-0.8-0.7-0.7-1.2
		c0.1-0.5,0.7-0.8,1.2-0.7l0.1,0c0.5,0.2,0.8,0.7,0.7,1.2C123.4,279.6,123,279.9,122.6,279.9z M192.9,279.9c-0.4,0-0.8-0.3-0.9-0.7
		c-0.1-0.5,0.2-1.1,0.7-1.2c0.5-0.2,1.1,0.1,1.3,0.6c0.2,0.5-0.1,1.1-0.6,1.2l-0.1,0C193.1,279.9,193,279.9,192.9,279.9z
		 M105.8,273.7c-0.1,0-0.3,0-0.4-0.1l-0.1-0.1c-0.5-0.2-0.7-0.8-0.5-1.3c0.2-0.5,0.8-0.7,1.3-0.5c0.5,0.2,0.7,0.8,0.5,1.3
		C106.6,273.4,106.2,273.7,105.8,273.7z M209.7,273.6c-0.4,0-0.7-0.2-0.9-0.6c-0.2-0.5,0-1.1,0.5-1.3l0.1-0.1c0.5-0.2,1.1,0,1.3,0.5
		c0.2,0.5,0,1.1-0.5,1.3l-0.1,0C209.9,273.6,209.8,273.6,209.7,273.6z M239.6,254.4c-0.3,0-0.5-0.1-0.7-0.3c-0.4-0.4-0.3-1,0.1-1.4
		l0.1-0.1c0.4-0.3,1-0.3,1.4,0.1c0.3,0.4,0.3,1-0.1,1.4l-0.1,0C240,254.3,239.8,254.4,239.6,254.4z M75.9,254.4
		c-0.2,0-0.4-0.1-0.6-0.2l-0.1-0.1c-0.4-0.4-0.4-1-0.1-1.4c0.4-0.4,1-0.4,1.4-0.1c0.4,0.3,0.5,1,0.1,1.4
		C76.4,254.3,76.2,254.4,75.9,254.4z M63.3,241.8c-0.3,0-0.5-0.1-0.7-0.3l-0.1-0.1c-0.4-0.4-0.3-1,0.1-1.4c0.4-0.4,1-0.3,1.4,0.1
		l0.1,0.1c0.4,0.4,0.3,1-0.1,1.4C63.7,241.7,63.5,241.8,63.3,241.8z M252.2,241.8c-0.2,0-0.4-0.1-0.6-0.2c-0.4-0.4-0.5-0.9-0.1-1.4
		l0.1-0.1c0.4-0.4,1-0.5,1.4-0.1c0.4,0.4,0.5,1,0.1,1.4c0,0,0,0,0,0C252.8,241.7,252.5,241.8,252.2,241.8z M37.8,195.2
		c-0.4,0-0.8-0.3-0.9-0.7l0-0.1c-0.2-0.5,0.1-1.1,0.7-1.2c0.5-0.2,1.1,0.1,1.2,0.7l0,0.1c0.1,0.5-0.2,1.1-0.7,1.2
		C37.9,195.2,37.9,195.2,37.8,195.2z M277.7,195.2c-0.1,0-0.2,0-0.3,0c-0.5-0.1-0.8-0.7-0.7-1.2l0-0.1c0.2-0.5,0.7-0.8,1.2-0.7
		c0.5,0.2,0.8,0.7,0.7,1.2l0,0.1C278.6,194.9,278.2,195.2,277.7,195.2z M281.5,177.7c0,0-0.1,0-0.1,0c-0.5-0.1-0.9-0.6-0.8-1.1
		l0-0.1c0.1-0.5,0.6-0.9,1.1-0.8c0.5,0.1,0.9,0.6,0.8,1.1l0,0.1C282.4,177.4,282,177.7,281.5,177.7z M33.9,177.7
		c-0.5,0-0.9-0.3-0.9-0.8l0-0.1c-0.1-0.5,0.3-1,0.8-1.1c0.5-0.1,1,0.3,1.1,0.8c0.1,0.5-0.3,1.1-0.8,1.2
		C34.1,177.7,34,177.7,33.9,177.7z M33.9,142.2c0,0-0.1,0-0.1,0c-0.5-0.1-0.9-0.6-0.8-1.1l0-0.1c0.1-0.5,0.6-0.9,1.1-0.8
		c0.5,0.1,0.9,0.6,0.8,1.1l0,0.1C34.8,141.8,34.4,142.2,33.9,142.2z M281.5,141.9c-0.5,0-0.9-0.4-1-0.8l0-0.1
		c-0.1-0.5,0.3-1,0.8-1.1c0.5-0.1,1,0.3,1.1,0.8l0,0.1c0.1,0.5-0.3,1-0.8,1.1C281.6,141.9,281.6,141.9,281.5,141.9z M37.7,124.7
		c-0.1,0-0.2,0-0.3,0c-0.5-0.1-0.8-0.7-0.7-1.2l0-0.1c0.2-0.5,0.7-0.8,1.2-0.7c0.5,0.2,0.8,0.7,0.7,1.2
		C38.5,124.4,38.1,124.7,37.7,124.7z M277.7,124.5c-0.4,0-0.8-0.3-0.9-0.7c-0.2-0.5,0.1-1.1,0.6-1.3c0.5-0.2,1.1,0.1,1.2,0.6l0,0.1
		c0.1,0.5-0.2,1.1-0.7,1.2C277.9,124.4,277.8,124.5,277.7,124.5z M63.1,78.1c-0.2,0-0.5-0.1-0.6-0.2c-0.4-0.4-0.5-1-0.1-1.4l0.1-0.1
		c0.4-0.4,1-0.5,1.4-0.1c0.4,0.4,0.5,1,0.1,1.4l-0.1,0.1C63.7,78,63.4,78.1,63.1,78.1z M252.2,77.9c-0.3,0-0.5-0.1-0.7-0.3
		c-0.4-0.4-0.3-1.1,0.1-1.4c0.4-0.4,1-0.4,1.4,0.1l0.1,0.1c0.4,0.4,0.3,1-0.1,1.4C252.6,77.8,252.4,77.9,252.2,77.9z M75.7,65.4
		c-0.3,0-0.5-0.1-0.7-0.3c-0.4-0.4-0.3-1,0.1-1.4l0.1-0.1c0.4-0.4,1-0.3,1.4,0.1c0.4,0.4,0.3,1-0.1,1.4l-0.1,0.1
		C76.2,65.4,76,65.4,75.7,65.4z M239.5,65.3c-0.2,0-0.5-0.1-0.6-0.2l-0.1-0.1c-0.4-0.4-0.5-1-0.1-1.4c0.4-0.4,1-0.5,1.4-0.1l0.1,0.1
		c0.4,0.4,0.5,1,0.1,1.4C240.1,65.1,239.8,65.3,239.5,65.3z M105.7,46.1c-0.4,0-0.7-0.2-0.9-0.6c-0.2-0.5-0.1-1.1,0.4-1.3l0.1,0
		c0.5-0.2,1.1,0,1.3,0.5c0.2,0.5,0,1.1-0.5,1.3C106,46.1,105.8,46.1,105.7,46.1z M209.6,46c-0.1,0-0.3,0-0.4-0.1l-0.1-0.1
		c-0.5-0.2-0.7-0.8-0.5-1.3c0.2-0.5,0.8-0.7,1.3-0.5l0.1,0c0.5,0.2,0.7,0.8,0.5,1.3C210.3,45.8,210,46,209.6,46z M122.3,39.9
		c-0.4,0-0.8-0.3-0.9-0.7c-0.1-0.5,0.2-1.1,0.7-1.2l0.1,0c0.5-0.2,1.1,0.1,1.2,0.7c0.2,0.5-0.1,1.1-0.7,1.2l-0.1,0
		C122.5,39.9,122.4,39.9,122.3,39.9z M192.9,39.8c-0.1,0-0.2,0-0.3,0c-0.5-0.1-0.9-0.7-0.7-1.2c0.1-0.5,0.7-0.8,1.2-0.7l0.1,0
		c0.5,0.2,0.8,0.7,0.7,1.2C193.7,39.5,193.3,39.8,192.9,39.8z"/>
	<linearGradient id="SVGID_1_" gradientUnits="userSpaceOnUse" x1="26.3189" y1="158.8849" x2="289.1676" y2="158.8849">
		<stop  offset="0" style="stop-color:#B47E11"/>
		<stop  offset="0.1032" style="stop-color:#F7DD7C"/>
		<stop  offset="0.1843" style="stop-color:#FFF2A7"/>
		<stop  offset="0.2603" style="stop-color:#F7DD7C"/>
		<stop  offset="0.4369" style="stop-color:#B47E11"/>
		<stop  offset="0.5523" style="stop-color:#E1BE57"/>
		<stop  offset="0.6129" style="stop-color:#F7DD7C"/>
		<stop  offset="0.7204" style="stop-color:#FFF2A7"/>
		<stop  offset="0.8387" style="stop-color:#F7DD7C"/>
		<stop  offset="1" style="stop-color:#B47E11"/>
	</linearGradient>
	<path class="st1" d="M277.6,105l-0.2,4.5c6.3,15.2,9.8,31.9,9.8,49.3c0,17.5-3.5,34.1-9.8,49.3l0.2,4.6
		c7.4-16.5,11.6-34.7,11.6-53.9C289.2,139.7,285,121.5,277.6,105z"/>
	<linearGradient id="SVGID_2_" gradientUnits="userSpaceOnUse" x1="26.3189" y1="158.9314" x2="289.1676" y2="158.9314">
		<stop  offset="0" style="stop-color:#B47E11"/>
		<stop  offset="0.1032" style="stop-color:#F7DD7C"/>
		<stop  offset="0.1843" style="stop-color:#FFF2A7"/>
		<stop  offset="0.2603" style="stop-color:#F7DD7C"/>
		<stop  offset="0.4369" style="stop-color:#B47E11"/>
		<stop  offset="0.5523" style="stop-color:#E1BE57"/>
		<stop  offset="0.6129" style="stop-color:#F7DD7C"/>
		<stop  offset="0.7204" style="stop-color:#FFF2A7"/>
		<stop  offset="0.8387" style="stop-color:#F7DD7C"/>
		<stop  offset="1" style="stop-color:#B47E11"/>
	</linearGradient>
	<path class="st2" d="M28.3,158.9c0-17.4,3.4-33.9,9.7-49.1l-0.2-4.5c-7.3,16.4-11.4,34.5-11.4,53.6c0,19.1,4.1,37.3,11.5,53.7
		L38,208C31.7,192.8,28.3,176.2,28.3,158.9z"/>
	<linearGradient id="SVGID_3_" gradientUnits="userSpaceOnUse" x1="27.5306" y1="56.1646" x2="276.7685" y2="56.1646">
		<stop  offset="0" style="stop-color:#B47E11"/>
		<stop  offset="0.1032" style="stop-color:#F7DD7C"/>
		<stop  offset="0.1843" style="stop-color:#FFF2A7"/>
		<stop  offset="0.2603" style="stop-color:#F7DD7C"/>
		<stop  offset="0.4369" style="stop-color:#B47E11"/>
		<stop  offset="0.5523" style="stop-color:#E1BE57"/>
		<stop  offset="0.6129" style="stop-color:#F7DD7C"/>
		<stop  offset="0.7204" style="stop-color:#FFF2A7"/>
		<stop  offset="0.8387" style="stop-color:#F7DD7C"/>
		<stop  offset="1" style="stop-color:#B47E11"/>
	</linearGradient>
	<path class="st3" d="M143.3,28.2c-38.7,4.2-72.5,25.4-93.6,55.9l3.6-1.7c20.1-27.4,50.8-46.7,86-51.7
		C139.7,30.7,143.5,28.2,143.3,28.2z"/>
	<linearGradient id="SVGID_4_" gradientUnits="userSpaceOnUse" x1="35.6674" y1="55.6191" x2="288.2251" y2="55.6191">
		<stop  offset="0" style="stop-color:#B47E11"/>
		<stop  offset="0.1032" style="stop-color:#F7DD7C"/>
		<stop  offset="0.1843" style="stop-color:#FFF2A7"/>
		<stop  offset="0.2603" style="stop-color:#F7DD7C"/>
		<stop  offset="0.4369" style="stop-color:#B47E11"/>
		<stop  offset="0.5523" style="stop-color:#E1BE57"/>
		<stop  offset="0.6129" style="stop-color:#F7DD7C"/>
		<stop  offset="0.7204" style="stop-color:#FFF2A7"/>
		<stop  offset="0.8387" style="stop-color:#F7DD7C"/>
		<stop  offset="1" style="stop-color:#B47E11"/>
	</linearGradient>
	<path class="st4" d="M175,30.6c35.1,4.7,65.8,23.5,86.2,50.6l3.9,2c-21.4-30.3-55.3-51.1-94.1-55C171,28.1,174.4,30.5,175,30.6z"/>
	<linearGradient id="SVGID_5_" gradientUnits="userSpaceOnUse" x1="14.0591" y1="47.821" x2="301.4273" y2="47.821">
		<stop  offset="0" style="stop-color:#B47E11"/>
		<stop  offset="0.1032" style="stop-color:#F7DD7C"/>
		<stop  offset="0.1843" style="stop-color:#FFF2A7"/>
		<stop  offset="0.2603" style="stop-color:#F7DD7C"/>
		<stop  offset="0.4369" style="stop-color:#B47E11"/>
		<stop  offset="0.5523" style="stop-color:#E1BE57"/>
		<stop  offset="0.6129" style="stop-color:#F7DD7C"/>
		<stop  offset="0.7204" style="stop-color:#FFF2A7"/>
		<stop  offset="0.8387" style="stop-color:#F7DD7C"/>
		<stop  offset="1" style="stop-color:#B47E11"/>
	</linearGradient>
	<path class="st5" d="M143.9,17.8l-2.5-1.7C99.6,20.9,63.3,43.6,40.2,76.3l0.1,3.3C63.4,45.5,100.9,22,143.9,17.8z"/>
	<linearGradient id="SVGID_6_" gradientUnits="userSpaceOnUse" x1="14.0591" y1="159.5268" x2="301.4273" y2="159.5268">
		<stop  offset="0" style="stop-color:#B47E11"/>
		<stop  offset="0.1032" style="stop-color:#F7DD7C"/>
		<stop  offset="0.1843" style="stop-color:#FFF2A7"/>
		<stop  offset="0.2603" style="stop-color:#F7DD7C"/>
		<stop  offset="0.4369" style="stop-color:#B47E11"/>
		<stop  offset="0.5523" style="stop-color:#E1BE57"/>
		<stop  offset="0.6129" style="stop-color:#F7DD7C"/>
		<stop  offset="0.7204" style="stop-color:#FFF2A7"/>
		<stop  offset="0.8387" style="stop-color:#F7DD7C"/>
		<stop  offset="1" style="stop-color:#B47E11"/>
	</linearGradient>
	<path class="st6" d="M29.1,218.2C20.7,200.2,16,180.1,16,158.9c0-20.9,4.5-40.7,12.7-58.6l0.3-0.6c0.2-0.5,0.4-1,0.7-1.4l-2.9,1.5
		c-8.2,18-12.7,38-12.7,59.1c0,21.6,4.8,42,13.3,60.4l2.9,1.5C30,220.3,29.1,218.2,29.1,218.2z"/>
	<linearGradient id="SVGID_7_" gradientUnits="userSpaceOnUse" x1="14.0591" y1="47.8332" x2="301.4273" y2="47.8332">
		<stop  offset="0" style="stop-color:#B47E11"/>
		<stop  offset="0.1032" style="stop-color:#F7DD7C"/>
		<stop  offset="0.1843" style="stop-color:#FFF2A7"/>
		<stop  offset="0.2603" style="stop-color:#F7DD7C"/>
		<stop  offset="0.4369" style="stop-color:#B47E11"/>
		<stop  offset="0.5523" style="stop-color:#E1BE57"/>
		<stop  offset="0.6129" style="stop-color:#F7DD7C"/>
		<stop  offset="0.7204" style="stop-color:#FFF2A7"/>
		<stop  offset="0.8387" style="stop-color:#F7DD7C"/>
		<stop  offset="1" style="stop-color:#B47E11"/>
	</linearGradient>
	<path class="st7" d="M172.7,17.9C214.5,22.3,251,45,273.9,77.8l0.1,0l0.1,0.3c0.3,0.5,0.7,0.9,1,1.4l0.1-3.3
		c-22.9-32.4-58.9-55-100.2-59.9l0.1,0.3L172.7,17.9z"/>
	<linearGradient id="SVGID_8_" gradientUnits="userSpaceOnUse" x1="14.0591" y1="159.9875" x2="301.4273" y2="159.9875">
		<stop  offset="0" style="stop-color:#B47E11"/>
		<stop  offset="0.1032" style="stop-color:#F7DD7C"/>
		<stop  offset="0.1843" style="stop-color:#FFF2A7"/>
		<stop  offset="0.2603" style="stop-color:#F7DD7C"/>
		<stop  offset="0.4369" style="stop-color:#B47E11"/>
		<stop  offset="0.5523" style="stop-color:#E1BE57"/>
		<stop  offset="0.6129" style="stop-color:#F7DD7C"/>
		<stop  offset="0.7204" style="stop-color:#FFF2A7"/>
		<stop  offset="0.8387" style="stop-color:#F7DD7C"/>
		<stop  offset="1" style="stop-color:#B47E11"/>
	</linearGradient>
	<path class="st8" d="M299.5,158.9c0,21.2-4.7,41.3-13.1,59.4l-1,2.1c-0.2,0.4-0.4,0.8-0.6,1.1l2.8-1.3
		c8.8-18.6,13.7-39.4,13.7-61.3c0-21-4.5-40.9-12.6-58.9l-2.8-1.5C294.6,116.9,299.5,137.3,299.5,158.9z"/>
	<linearGradient id="SVGID_9_" gradientUnits="userSpaceOnUse" x1="26.3189" y1="263.1819" x2="289.1676" y2="263.1819">
		<stop  offset="0" style="stop-color:#B47E11"/>
		<stop  offset="0.1032" style="stop-color:#F7DD7C"/>
		<stop  offset="0.1843" style="stop-color:#FFF2A7"/>
		<stop  offset="0.2603" style="stop-color:#F7DD7C"/>
		<stop  offset="0.4369" style="stop-color:#B47E11"/>
		<stop  offset="0.5523" style="stop-color:#E1BE57"/>
		<stop  offset="0.6129" style="stop-color:#F7DD7C"/>
		<stop  offset="0.7204" style="stop-color:#FFF2A7"/>
		<stop  offset="0.8387" style="stop-color:#F7DD7C"/>
		<stop  offset="1" style="stop-color:#B47E11"/>
	</linearGradient>
	<path class="st9" d="M55.2,237.9l-0.2,0.3l-3.3-1.7c21.5,29.3,54.9,49.4,93.1,53.2l0,0l0.1,0c0.8,0.1,1.6,0.2,2.5,0.2l-3.4-2.3
		C108,283.8,76.3,265.1,55.2,237.9z"/>
	<linearGradient id="SVGID_10_" gradientUnits="userSpaceOnUse" x1="26.3189" y1="262.9911" x2="289.1676" y2="262.9911">
		<stop  offset="0" style="stop-color:#B47E11"/>
		<stop  offset="0.1032" style="stop-color:#F7DD7C"/>
		<stop  offset="0.1843" style="stop-color:#FFF2A7"/>
		<stop  offset="0.2603" style="stop-color:#F7DD7C"/>
		<stop  offset="0.4369" style="stop-color:#B47E11"/>
		<stop  offset="0.5523" style="stop-color:#E1BE57"/>
		<stop  offset="0.6129" style="stop-color:#F7DD7C"/>
		<stop  offset="0.7204" style="stop-color:#FFF2A7"/>
		<stop  offset="0.8387" style="stop-color:#F7DD7C"/>
		<stop  offset="1" style="stop-color:#B47E11"/>
	</linearGradient>
	<path class="st10" d="M260.1,238.1c-20.7,26.7-51.7,45.2-87,49.4l-3.9,2.4c38.9-3.4,73-23.7,94.8-53.6L260.1,238.1L260.1,238.1z"/>
	<linearGradient id="SVGID_11_" gradientUnits="userSpaceOnUse" x1="14.0591" y1="269.999" x2="301.4273" y2="269.999">
		<stop  offset="0" style="stop-color:#B47E11"/>
		<stop  offset="0.1032" style="stop-color:#F7DD7C"/>
		<stop  offset="0.1843" style="stop-color:#FFF2A7"/>
		<stop  offset="0.2603" style="stop-color:#F7DD7C"/>
		<stop  offset="0.4369" style="stop-color:#B47E11"/>
		<stop  offset="0.5523" style="stop-color:#E1BE57"/>
		<stop  offset="0.6129" style="stop-color:#F7DD7C"/>
		<stop  offset="0.7204" style="stop-color:#FFF2A7"/>
		<stop  offset="0.8387" style="stop-color:#F7DD7C"/>
		<stop  offset="1" style="stop-color:#B47E11"/>
	</linearGradient>
	<path class="st11" d="M42.3,240.9c0,0-1.7-2.5-1.9-2.7l-0.1,3.2c23.3,33,60.1,55.8,102.3,60.3l2.6-1.7
		C102.8,296.3,65.7,273.8,42.3,240.9z"/>
	<linearGradient id="SVGID_12_" gradientUnits="userSpaceOnUse" x1="14.0591" y1="270.0952" x2="301.4273" y2="270.0952">
		<stop  offset="0" style="stop-color:#B47E11"/>
		<stop  offset="0.1032" style="stop-color:#F7DD7C"/>
		<stop  offset="0.1843" style="stop-color:#FFF2A7"/>
		<stop  offset="0.2603" style="stop-color:#F7DD7C"/>
		<stop  offset="0.4369" style="stop-color:#B47E11"/>
		<stop  offset="0.5523" style="stop-color:#E1BE57"/>
		<stop  offset="0.6129" style="stop-color:#F7DD7C"/>
		<stop  offset="0.7204" style="stop-color:#FFF2A7"/>
		<stop  offset="0.8387" style="stop-color:#F7DD7C"/>
		<stop  offset="1" style="stop-color:#B47E11"/>
	</linearGradient>
	<path class="st12" d="M273.2,241c-23.5,32.9-60.7,55.4-103.2,59.1l2.6,1.7c42.3-4.4,79.1-27.1,102.5-60.1l-0.1-3.2
		C274.7,238.8,273.2,241,273.2,241z"/>
</g>
<g>
	<g>
		<defs>
			<path id="SVGID_13_" d="M56.6,190.5l-19.2,33.2l-0.9,1.5h40.1l19.3,33.4l0.3,0.5h40.2l19.6,33.8l19.6-33.8h40.2l19.6-33.9h40.1
				l-20.1-34.6l19.9-34.4l0.3-0.5L255.5,121l19.8-34.2h-39.6l-19.8-34.3l-0.3-0.5H175l-19.1-32.9l-19.1,32.9H96.2L76.1,86.8H36.5
				L56.3,121l-19.9,34.5L56.6,190.5z M154.9,171.1h-24l24-14V171.1z M156.8,157.2l24,14h-24V157.2z M156.8,154.9v-30.2l26.5,45.7
				L156.8,154.9z M154.9,154.9l-26.3,15.3l26.3-45.4V154.9z M154.9,173.1v15.7h-17.2l-9.1-15.7H154.9z M156.8,173.1h26.4l-9.1,15.7
				h-17.3V173.1z M157.6,122.1h16.5l19.3,33.3l-8.2,14.2L157.6,122.1z M126.6,169.7l-8.2-14.2l19.3-33.3h16.5L126.6,169.7z
				 M126.6,173.6l8.8,15.2h-34.8L126.6,173.6z M154.9,190.8v27.6l-16-27.6H154.9z M156.8,190.8H173l-16.1,27.8V190.8z M185.1,173.7
				l25.9,15.1h-34.7L185.1,173.7z M186.7,172.3l-0.4-0.7l8.2-14.2l17.1,29.5L186.7,172.3z M176.4,122.1h36.4l-18.2,31.4L176.4,122.1
				z M156.8,120.1V92.3l16.1,27.8H156.8z M154.9,120.1h-16l16-27.6V120.1z M117.2,153.5L99,122.1h36.4L117.2,153.5z M125.5,171.6
				l-0.3,0.6l-24.9,14.5l17-29.4L125.5,171.6z M134.9,190.8l-8.4,14.6l-25.2-14.6H134.9z M136.9,191.2l17.5,30.2l-26.2-15.1
				L136.9,191.2z M174.7,191.7l8.6,14.7l-25.8,14.9L174.7,191.7z M176.4,190.8h34.1L185,205.5L176.4,190.8z M196.2,156.2l17.6,0
				l0.1,30.4L196.2,156.2z M196.4,154.3l17.3-29.8l0.1,29.9L196.4,154.3z M176.4,120.1l8.7-14.7l25.5,14.7H176.4z M174.7,119.2
				l-17.2-29.7l26,15L174.7,119.2z M137,119.4l-8.8-14.9l26.2-15.1L137,119.4z M135.1,120.1h-33.9l25.3-14.6L135.1,120.1z
				 M115.5,154.4l-17.5,0L97.9,124L115.5,154.4z M115.6,156.3L98,186.7L98,156.4L115.6,156.3z M96,185.6l-16.9-29.2l16.9,0L96,185.6
				z M125.5,207l-8.5,14.7l-17.1-29.5L125.5,207z M127.2,208l26.1,15.1h-34.8L127.2,208z M184.3,208.2l8.7,15h-34.6L184.3,208.2z
				 M186,207.2l26-15l-17.3,29.9L186,207.2z M215.7,156.3l17,0l-17,29.3L215.7,156.3z M215.7,154.3l-0.1-28.2l16.4,28.2L215.7,154.3
				z M186.1,103.7l8.4-14.2l16.5,28.5L186.1,103.7z M184.4,102.7l-24.2-14h32.5L184.4,102.7z M127.2,102.9l-8.3-14.1h32.7
				L127.2,102.9z M125.5,103.8l-24.8,14.3l16.5-28.4L125.5,103.8z M96,154.4l-16.2,0l16.2-27.9L96,154.4z M77.7,157.9l16.8,29
				l-25.2-14.6L77.7,157.9z M67.7,171.4l-25.8-14.9l34.5,0L67.7,171.4z M95.3,189.6l-27.6,16.1l-8.8-15.3l9.5-16.4L95.3,189.6z
				 M96.1,191.5l0.1,31.7H77.7l-9.1-15.7L96.1,191.5z M98,192.9l17.5,30.2H98.1L98,192.9z M115.1,225.1l-16.9,29.4l-0.1-29.4H115.1z
				 M117,225.7l8.3,14.3l-24.8,14.3L117,225.7z M118.9,225.1h32.1L127,239L118.9,225.1z M155,225.1h1.7l27.1,15.6l-9.5,16.3h-36.9
				l-9.5-16.4L155,225.1z M160.6,225.1h32.2l-8.1,13.9L160.6,225.1z M194.6,226l16.5,28.3L186.5,240L194.6,226z M196.4,225.1h17.5
				l0.1,30.1L196.4,225.1z M196.3,223.1l17.5-30.3l0.1,30.3H196.3z M215.8,191.5l27.3,15.9l-9,15.6h-18.3L215.8,191.5z M216.4,189.6
				l27-15.6l9.5,16.5l-8.9,15.3L216.4,189.6z M217.3,186.8l16.8-28.9l8.3,14.4L217.3,186.8z M235.4,156.3l34.7,0l-25.9,15
				L235.4,156.3z M236.2,154.3l8.4-14.6l25.3,14.6L236.2,154.3z M234.1,154l-17.7-30.5l26.5,15.3L234.1,154z M215.8,120.8
				L215.8,120.8l-0.1-0.7l-0.1-31.4h19l18.6,32.3l-9.3,16.1L215.8,120.8z M213.7,118.8l-17.4-30h17.3L213.7,118.8z M196.1,86.8
				l17.4-29.5l0.1,29.5H196.1z M194.5,85.7l-8.4-14.6l25.9-15L194.5,85.7z M192.9,86.8h-33.9l25.4-14.7L192.9,86.8z M156.8,85.8V54
				h17l9.5,16.4L156.8,85.8z M154.9,85.7l-26.4-15.3l9.5-16.4h16.9V85.7z M152.8,86.8h-33.9l8.5-14.7L152.8,86.8z M117.2,85.9
				L99.7,56.2l26,15L117.2,85.9z M115.5,86.8H97.8l-0.1-30.1L115.5,86.8z M115.5,88.8l-17.7,30.5l-0.1-30.5H115.5z M95.9,120.9
				l-28,16.2L58.6,121l18.6-32.3h18.6L95.9,120.9z M95.4,123.5L77.7,154l-8.8-15.2L95.4,123.5z M75.7,154.4l-33.9,0l25.4-14.7
				L75.7,154.4z M39.9,157.6l26.8,15.5l-8.9,15.4L39.9,157.6z M66,206.7l-25,14.6l16.8-28.9L66,206.7z M41.8,223.1L67,208.4
				l8.5,14.7H41.8z M78.9,225.1h17.3l0.1,30L78.9,225.1z M99.7,257l26.6-15.4l8.9,15.4H99.7z M155.9,288.8L138.6,259h34.6
				L155.9,288.8z M185.5,241.7L212,257h-35.4L185.5,241.7z M215.9,254.6l-0.1-29.5H233L215.9,254.6z M244.8,208.5l25.1,14.6h-33.6
				L244.8,208.5z M270.9,221.4l-25.1-14.7l8.3-14.4L270.9,221.4z M245.1,173l26.9-15.5l-17.9,31L245.1,173z M271.7,153.1l-26.2-15.1
				l8.7-15.1L271.7,153.1z M271.9,88.8l-17.6,30.3l-17.5-30.3H271.9z M233.4,86.8h-17.9l-0.1-31L233.4,86.8z M211.8,54l-26.7,15.4
				L176.1,54H211.8z M156.8,52.1V24.6l15.9,27.4H156.8z M154.9,24.8v27.2h-15.8L154.9,24.8z M126.7,69.5L99.9,54h35.7L126.7,69.5z
				 M95.8,56.6l0.1,30.2H78.4L95.8,56.6z M39.9,88.8H75l-17.5,30.3L39.9,88.8z M66.2,138.1L40,153.2L57.5,123L66.2,138.1z"/>
		</defs>
		<clipPath id="SVGID_14_">
			<use xlink:href="#SVGID_13_"  style="overflow:visible;"/>
		</clipPath>
		
			<radialGradient id="SVGID_15_" cx="155.8664" cy="155.4664" r="142.1626" gradientTransform="matrix(0.9808 0 0 0.9808 3.0347 3.0525)" gradientUnits="userSpaceOnUse">
			<stop  offset="0" style="stop-color:#70AB69"/>
			<stop  offset="0.2894" style="stop-color:#8CD1EA"/>
			<stop  offset="0.3155" style="stop-color:#8CBFDE"/>
			<stop  offset="0.3511" style="stop-color:#8DAACF"/>
			<stop  offset="0.3913" style="stop-color:#8E96C0"/>
			<stop  offset="0.4356" style="stop-color:#8F83B3"/>
			<stop  offset="0.4858" style="stop-color:#8F74A9"/>
			<stop  offset="0.5443" style="stop-color:#8F68A0"/>
			<stop  offset="0.6167" style="stop-color:#8F5F9B"/>
			<stop  offset="0.7182" style="stop-color:#8F5A97"/>
			<stop  offset="1" style="stop-color:#8F5897"/>
		</radialGradient>
		<rect x="14.9" y="17.7" class="st13" width="282.1" height="275.6"/>
	</g>
	<linearGradient id="SVGID_16_" gradientUnits="userSpaceOnUse" x1="134.2669" y1="155.4151" x2="177.5441" y2="155.4151">
		<stop  offset="0" style="stop-color:#B47E11"/>
		<stop  offset="0.1507" style="stop-color:#B47E11"/>
		<stop  offset="0.4537" style="stop-color:#E1BE57"/>
		<stop  offset="0.6129" style="stop-color:#F7DD7C"/>
		<stop  offset="0.7204" style="stop-color:#FFF2A7"/>
		<stop  offset="0.8387" style="stop-color:#F7DD7C"/>
		<stop  offset="1" style="stop-color:#B47E11"/>
	</linearGradient>
	<polygon class="st14" points="160.1,157.5 169.1,159.7 159.4,156.6 177.5,156 159.7,155.4 169.2,152.7 160.4,154.6 172.7,147 
		159.1,153.3 165.7,146.5 158.8,152.8 165.6,139.6 157.4,151.8 159.6,142.9 156.5,152.5 155.8,134.4 155.3,152.2 152.6,142.8 
		154.5,151.5 146.9,139.2 153.2,152.8 146.4,146.2 152.7,153.1 139.5,146.3 151.7,154.5 142.8,152.3 152.4,155.4 134.3,156 
		152.1,156.6 142.7,159.4 151.4,157.4 139.2,165.7 152.7,158.7 146.1,165.5 153,159.3 146.2,172.4 154.4,160.2 152.2,169.2 
		155.2,160.1 155.8,176.5 156.5,159.8 159.3,169.3 157.3,160.5 164.9,172.8 158.6,159.2 165.4,165.8 159.2,158.9 172.3,165.7 	"/>
	<linearGradient id="SVGID_17_" gradientUnits="userSpaceOnUse" x1="134.2669" y1="21.0482" x2="177.5441" y2="21.0482">
		<stop  offset="0" style="stop-color:#B47E11"/>
		<stop  offset="0.1507" style="stop-color:#B47E11"/>
		<stop  offset="0.4537" style="stop-color:#E1BE57"/>
		<stop  offset="0.6129" style="stop-color:#F7DD7C"/>
		<stop  offset="0.7204" style="stop-color:#FFF2A7"/>
		<stop  offset="0.8387" style="stop-color:#F7DD7C"/>
		<stop  offset="1" style="stop-color:#B47E11"/>
	</linearGradient>
	<polygon class="st15" points="160.1,23.1 169.1,25.4 159.4,22.3 177.5,21.6 159.7,21 169.2,18.3 160.4,20.2 172.7,12.7 159.1,19 
		165.7,12.1 158.8,18.4 165.6,5.2 157.4,17.4 159.6,8.5 156.5,18.2 155.8,0 155.3,17.8 152.6,8.4 154.5,17.2 146.9,4.8 153.2,18.4 
		146.4,11.8 152.7,18.7 139.5,12 151.7,20.1 142.8,17.9 152.4,21 134.3,21.6 152.1,22.3 142.7,25 151.4,23.1 139.2,31.3 152.7,24.3 
		146.1,31.2 153,24.9 146.2,38.1 154.4,25.9 152.2,34.8 155.2,25.7 155.8,42.1 156.5,25.4 159.3,34.9 157.3,26.1 164.9,38.5 
		158.6,24.8 165.4,31.4 159.2,24.5 172.3,31.3 	"/>
	<linearGradient id="SVGID_18_" gradientUnits="userSpaceOnUse" x1="134.2669" y1="290.7628" x2="177.5441" y2="290.7628">
		<stop  offset="0" style="stop-color:#B47E11"/>
		<stop  offset="0.1507" style="stop-color:#B47E11"/>
		<stop  offset="0.4537" style="stop-color:#E1BE57"/>
		<stop  offset="0.6129" style="stop-color:#F7DD7C"/>
		<stop  offset="0.7204" style="stop-color:#FFF2A7"/>
		<stop  offset="0.8387" style="stop-color:#F7DD7C"/>
		<stop  offset="1" style="stop-color:#B47E11"/>
	</linearGradient>
	<polygon class="st16" points="160.1,292.9 169.1,295.1 159.4,292 177.5,291.4 159.7,290.7 169.2,288 160.4,289.9 172.7,282.4 
		159.1,288.7 165.7,281.8 158.8,288.1 165.6,274.9 157.4,287.1 159.6,278.2 156.5,287.9 155.8,269.7 155.3,287.6 152.6,278.1 
		154.5,286.9 146.9,274.5 153.2,288.2 146.4,281.6 152.7,288.5 139.5,281.7 151.7,289.8 142.8,287.6 152.4,290.7 134.3,291.4 
		152.1,292 142.7,294.7 151.4,292.8 139.2,301 152.7,294 146.1,300.9 153,294.6 146.2,307.8 154.4,295.6 152.2,304.5 155.2,295.4 
		155.8,311.8 156.5,295.1 159.3,304.6 157.3,295.8 164.9,308.2 158.6,294.6 165.4,301.2 159.2,294.2 172.3,301 	"/>
	<linearGradient id="SVGID_19_" gradientUnits="userSpaceOnUse" x1="252.9414" y1="224.0698" x2="296.2185" y2="224.0698">
		<stop  offset="0" style="stop-color:#B47E11"/>
		<stop  offset="0.1507" style="stop-color:#B47E11"/>
		<stop  offset="0.4537" style="stop-color:#E1BE57"/>
		<stop  offset="0.6129" style="stop-color:#F7DD7C"/>
		<stop  offset="0.7204" style="stop-color:#FFF2A7"/>
		<stop  offset="0.8387" style="stop-color:#F7DD7C"/>
		<stop  offset="1" style="stop-color:#B47E11"/>
	</linearGradient>
	<polygon class="st17" points="278.8,226.2 287.7,228.4 278.1,225.3 296.2,224.7 278.4,224 287.8,221.3 279,223.2 291.4,215.7 
		277.8,222 284.4,215.1 277.5,221.4 284.3,208.2 276.1,220.4 278.3,211.5 275.2,221.2 274.5,203 274,220.9 271.2,211.4 273.1,220.2 
		265.6,207.8 271.9,221.5 265.1,214.9 271.3,221.8 258.1,215 270.4,223.2 261.4,220.9 271.1,224 252.9,224.7 270.8,225.3 261.3,228 
		270.1,226.1 257.8,234.3 271.4,227.3 264.8,234.2 271.7,227.9 264.9,241.1 273.1,228.9 270.9,237.8 273.8,228.7 274.5,245.1 
		275.2,228.4 277.9,237.9 276,229.1 283.5,241.5 277.3,227.9 284.1,234.5 277.8,227.6 291,234.3 	"/>
	<linearGradient id="SVGID_20_" gradientUnits="userSpaceOnUse" x1="252.9414" y1="87.7413" x2="296.2185" y2="87.7413">
		<stop  offset="0" style="stop-color:#B47E11"/>
		<stop  offset="0.1507" style="stop-color:#B47E11"/>
		<stop  offset="0.4537" style="stop-color:#E1BE57"/>
		<stop  offset="0.6129" style="stop-color:#F7DD7C"/>
		<stop  offset="0.7204" style="stop-color:#FFF2A7"/>
		<stop  offset="0.8387" style="stop-color:#F7DD7C"/>
		<stop  offset="1" style="stop-color:#B47E11"/>
	</linearGradient>
	<polygon class="st18" points="278.8,89.8 287.7,92.1 278.1,89 296.2,88.3 278.4,87.7 287.8,85 279,86.9 291.4,79.4 277.8,85.7 
		284.4,78.8 277.5,85.1 284.3,71.9 276.1,84.1 278.3,75.2 275.2,84.9 274.5,66.7 274,84.5 271.2,75.1 273.1,83.9 265.6,71.5 
		271.9,85.1 265.1,78.5 271.3,85.4 258.1,78.6 270.4,86.8 261.4,84.6 271.1,87.7 252.9,88.3 270.8,89 261.3,91.7 270.1,89.8 
		257.8,98 271.4,91 264.8,97.9 271.7,91.6 264.9,104.8 273.1,92.5 270.9,101.5 273.8,92.4 274.5,108.8 275.2,92.1 277.9,101.6 
		276,92.8 283.5,105.2 277.3,91.5 284.1,98.1 277.8,91.2 291,98 	"/>
	<linearGradient id="SVGID_21_" gradientUnits="userSpaceOnUse" x1="263.4337" y1="154.9633" x2="289.6493" y2="154.9633">
		<stop  offset="0" style="stop-color:#B47E11"/>
		<stop  offset="0.1507" style="stop-color:#B47E11"/>
		<stop  offset="0.4537" style="stop-color:#E1BE57"/>
		<stop  offset="0.6129" style="stop-color:#F7DD7C"/>
		<stop  offset="0.7204" style="stop-color:#FFF2A7"/>
		<stop  offset="0.8387" style="stop-color:#F7DD7C"/>
		<stop  offset="1" style="stop-color:#B47E11"/>
	</linearGradient>
	<polygon class="st19" points="279.1,156.2 284.5,157.6 278.6,155.7 289.6,155.3 278.8,154.9 284.6,153.3 279.2,154.5 286.7,149.9 
		278.5,153.7 282.5,149.5 278.3,153.4 282.4,145.4 277.5,152.8 278.8,147.4 276.9,153.2 276.5,142.2 276.2,153 274.5,147.3 
		275.7,152.6 271.1,145.1 274.9,153.4 270.8,149.4 274.6,153.6 266.6,149.5 274,154.4 268.6,153.1 274.4,154.9 263.4,155.3 
		274.2,155.7 268.5,157.4 273.8,156.2 266.4,161.2 274.6,156.9 270.6,161.1 274.8,157.3 270.7,165.3 275.6,157.9 274.3,163.3 
		276.1,157.8 276.5,167.7 276.9,157.6 278.6,163.3 277.4,158 282,165.5 278.2,157.3 282.3,161.3 278.5,157.1 286.5,161.2 	"/>
	<linearGradient id="SVGID_22_" gradientUnits="userSpaceOnUse" x1="201.6446" y1="52.9622" x2="227.8601" y2="52.9622">
		<stop  offset="0" style="stop-color:#B47E11"/>
		<stop  offset="0.1507" style="stop-color:#B47E11"/>
		<stop  offset="0.4537" style="stop-color:#E1BE57"/>
		<stop  offset="0.6129" style="stop-color:#F7DD7C"/>
		<stop  offset="0.7204" style="stop-color:#FFF2A7"/>
		<stop  offset="0.8387" style="stop-color:#F7DD7C"/>
		<stop  offset="1" style="stop-color:#B47E11"/>
	</linearGradient>
	<polygon class="st20" points="217.3,54.2 222.7,55.6 216.9,53.7 227.9,53.3 217,52.9 222.8,51.3 217.5,52.5 225,47.9 216.7,51.7 
		220.7,47.5 216.5,51.4 220.6,43.4 215.7,50.8 217,45.4 215.1,51.2 214.7,40.2 214.4,51 212.7,45.3 213.9,50.6 209.3,43.1 
		213.1,51.4 209,47.4 212.8,51.6 204.8,47.5 212.2,52.4 206.8,51.1 212.6,52.9 201.6,53.3 212.5,53.7 206.7,55.4 212.1,54.2 
		204.6,59.2 212.8,54.9 208.8,59.1 213,55.3 208.9,63.3 213.8,55.9 212.5,61.3 214.3,55.8 214.7,65.7 215.1,55.6 216.8,61.3 
		215.6,56 220.2,63.5 216.4,55.3 220.5,59.3 216.7,55.1 224.7,59.2 	"/>
	<linearGradient id="SVGID_23_" gradientUnits="userSpaceOnUse" x1="83.9509" y1="52.9622" x2="110.1665" y2="52.9622">
		<stop  offset="0" style="stop-color:#B47E11"/>
		<stop  offset="0.1507" style="stop-color:#B47E11"/>
		<stop  offset="0.4537" style="stop-color:#E1BE57"/>
		<stop  offset="0.6129" style="stop-color:#F7DD7C"/>
		<stop  offset="0.7204" style="stop-color:#FFF2A7"/>
		<stop  offset="0.8387" style="stop-color:#F7DD7C"/>
		<stop  offset="1" style="stop-color:#B47E11"/>
	</linearGradient>
	<polygon class="st21" points="99.6,54.2 105,55.6 99.2,53.7 110.2,53.3 99.4,52.9 105.1,51.3 99.8,52.5 107.3,47.9 99,51.7 
		103,47.5 98.8,51.4 102.9,43.4 98,50.8 99.3,45.4 97.4,51.2 97,40.2 96.7,51 95,45.3 96.2,50.6 91.6,43.1 95.4,51.4 91.3,47.4 
		95.1,51.6 87.1,47.5 94.5,52.4 89.1,51.1 95,52.9 84,53.3 94.8,53.7 89,55.4 94.4,54.2 86.9,59.2 95.1,54.9 91.1,59.1 95.3,55.3 
		91.2,63.3 96.1,55.9 94.8,61.3 96.6,55.8 97,65.7 97.4,55.6 99.1,61.3 97.9,56 102.5,63.5 98.7,55.3 102.8,59.3 99,55.1 107,59.2 	
		"/>
	<linearGradient id="SVGID_24_" gradientUnits="userSpaceOnUse" x1="201.6446" y1="258.9261" x2="227.8601" y2="258.9261">
		<stop  offset="0" style="stop-color:#B47E11"/>
		<stop  offset="0.1507" style="stop-color:#B47E11"/>
		<stop  offset="0.4537" style="stop-color:#E1BE57"/>
		<stop  offset="0.6129" style="stop-color:#F7DD7C"/>
		<stop  offset="0.7204" style="stop-color:#FFF2A7"/>
		<stop  offset="0.8387" style="stop-color:#F7DD7C"/>
		<stop  offset="1" style="stop-color:#B47E11"/>
	</linearGradient>
	<polygon class="st22" points="217.3,260.2 222.7,261.5 216.9,259.7 227.9,259.3 217,258.9 222.8,257.3 217.5,258.4 225,253.9 
		216.7,257.7 220.7,253.5 216.5,257.3 220.6,249.3 215.7,256.7 217,251.3 215.1,257.2 214.7,246.2 214.4,257 212.7,251.3 
		213.9,256.6 209.3,249.1 213.1,257.3 209,253.3 212.8,257.5 204.8,253.4 212.2,258.4 206.8,257 212.6,258.9 201.6,259.3 
		212.5,259.7 206.7,261.3 212.1,260.2 204.6,265.1 212.8,260.9 208.8,265.1 213,261.3 208.9,269.2 213.8,261.8 212.5,267.2 
		214.3,261.8 214.7,271.7 215.1,261.6 216.8,267.3 215.6,262 220.2,269.5 216.4,261.2 220.5,265.2 216.7,261 224.7,265.2 	"/>
	<linearGradient id="SVGID_25_" gradientUnits="userSpaceOnUse" x1="83.9509" y1="258.9261" x2="110.1665" y2="258.9261">
		<stop  offset="0" style="stop-color:#B47E11"/>
		<stop  offset="0.1507" style="stop-color:#B47E11"/>
		<stop  offset="0.4537" style="stop-color:#E1BE57"/>
		<stop  offset="0.6129" style="stop-color:#F7DD7C"/>
		<stop  offset="0.7204" style="stop-color:#FFF2A7"/>
		<stop  offset="0.8387" style="stop-color:#F7DD7C"/>
		<stop  offset="1" style="stop-color:#B47E11"/>
	</linearGradient>
	<polygon class="st23" points="99.6,260.2 105,261.5 99.2,259.7 110.2,259.3 99.4,258.9 105.1,257.3 99.8,258.4 107.3,253.9 
		99,257.7 103,253.5 98.8,257.3 102.9,249.3 98,256.7 99.3,251.3 97.4,257.2 97,246.2 96.7,257 95,251.3 96.2,256.6 91.6,249.1 
		95.4,257.3 91.3,253.3 95.1,257.5 87.1,253.4 94.5,258.4 89.1,257 95,258.9 84,259.3 94.8,259.7 89,261.3 94.4,260.2 86.9,265.1 
		95.1,260.9 91.1,265.1 95.3,261.3 91.2,269.2 96.1,261.8 94.8,267.2 96.6,261.8 97,271.7 97.4,261.6 99.1,267.3 97.9,262 
		102.5,269.5 98.7,261.2 102.8,265.2 99,261 107,265.2 	"/>
	
		<radialGradient id="SVGID_26_" cx="215.8664" cy="190.8876" r="13.1836" gradientTransform="matrix(0.9808 0 0 0.9808 3.0347 3.0525)" gradientUnits="userSpaceOnUse">
		<stop  offset="0" style="stop-color:#D0E7D9"/>
		<stop  offset="0.462" style="stop-color:#8DB8D9"/>
		<stop  offset="0.7231" style="stop-color:#8CD1E7"/>
		<stop  offset="0.8625" style="stop-color:#ABDBE9"/>
		<stop  offset="1" style="stop-color:#D0E7D9"/>
	</radialGradient>
	<polygon class="st24" points="217.3,191.5 222.7,192.9 216.9,191 227.9,190.6 217,190.3 222.8,188.6 217.5,189.8 225,185.2 
		216.7,189 220.7,184.9 216.5,188.7 220.6,180.7 215.7,188.1 217,182.7 215.1,188.5 214.7,177.5 214.4,188.3 212.7,182.6 
		213.9,187.9 209.3,180.4 213.1,188.7 209,184.7 212.8,188.9 204.8,184.8 212.2,189.7 206.8,188.4 212.6,190.2 201.6,190.6 
		212.5,191 206.7,192.7 212.1,191.5 204.6,196.5 212.8,192.2 208.8,196.4 213,192.6 208.9,200.6 213.8,193.2 212.5,198.6 
		214.3,193.1 214.7,203 215.1,192.9 216.8,198.7 215.6,193.3 220.2,200.8 216.4,192.6 220.5,196.6 216.7,192.4 224.7,196.5 	"/>
	
		<radialGradient id="SVGID_27_" cx="95.8664" cy="190.8876" r="13.1836" gradientTransform="matrix(0.9808 0 0 0.9808 3.0347 3.0525)" gradientUnits="userSpaceOnUse">
		<stop  offset="0" style="stop-color:#D0E7D9"/>
		<stop  offset="0.462" style="stop-color:#8DB8D9"/>
		<stop  offset="0.7231" style="stop-color:#8CD1E7"/>
		<stop  offset="0.8625" style="stop-color:#ABDBE9"/>
		<stop  offset="1" style="stop-color:#D0E7D9"/>
	</radialGradient>
	<polygon class="st25" points="99.6,191.5 105,192.9 99.2,191 110.2,190.6 99.4,190.3 105.1,188.6 99.8,189.8 107.3,185.2 99,189 
		103,184.9 98.8,188.7 102.9,180.7 98,188.1 99.3,182.7 97.4,188.5 97,177.5 96.7,188.3 95,182.6 96.2,187.9 91.6,180.4 95.4,188.7 
		91.3,184.7 95.1,188.9 87.1,184.8 94.5,189.7 89.1,188.4 95,190.2 84,190.6 94.8,191 89,192.7 94.4,191.5 86.9,196.5 95.1,192.2 
		91.1,196.4 95.3,192.6 91.2,200.6 96.1,193.2 94.8,198.6 96.6,193.1 97,203 97.4,192.9 99.1,198.7 97.9,193.3 102.5,200.8 
		98.7,192.6 102.8,196.6 99,192.4 107,196.5 	"/>
	
		<radialGradient id="SVGID_28_" cx="155.8664" cy="224.8876" r="13.1836" gradientTransform="matrix(0.9808 0 0 0.9808 3.0347 3.0525)" gradientUnits="userSpaceOnUse">
		<stop  offset="0" style="stop-color:#D0E7D9"/>
		<stop  offset="0.462" style="stop-color:#8DB8D9"/>
		<stop  offset="0.7231" style="stop-color:#8CD1E7"/>
		<stop  offset="0.8625" style="stop-color:#ABDBE9"/>
		<stop  offset="1" style="stop-color:#D0E7D9"/>
	</radialGradient>
	<polygon class="st26" points="158.5,224.9 163.9,226.2 158,224.4 169,224 158.2,223.6 163.9,221.9 158.6,223.1 166.1,218.5 
		157.8,222.4 161.8,218.2 157.7,222 161.8,214 156.8,221.4 158.2,216 156.3,221.9 155.9,210.9 155.5,221.7 153.9,215.9 155,221.3 
		150.5,213.8 154.3,222 150.1,218 153.9,222.2 145.9,218.1 153.4,223.1 147.9,221.7 153.8,223.6 142.8,224 153.6,224.4 147.9,226 
		153.2,224.8 145.8,229.8 154,225.6 150,229.7 154.2,225.9 150,233.9 155,226.5 153.7,231.9 155.5,226.4 155.9,236.4 156.3,226.3 
		157.9,232 156.8,226.7 161.3,234.2 157.5,225.9 161.7,229.9 157.9,225.7 165.9,229.8 	"/>
	
		<radialGradient id="SVGID_29_" cx="155.8664" cy="85.8876" r="13.1836" gradientTransform="matrix(0.9808 0 0 0.9808 3.0347 3.0525)" gradientUnits="userSpaceOnUse">
		<stop  offset="0" style="stop-color:#D0E7D9"/>
		<stop  offset="0.462" style="stop-color:#8DB8D9"/>
		<stop  offset="0.7231" style="stop-color:#8CD1E7"/>
		<stop  offset="0.8625" style="stop-color:#ABDBE9"/>
		<stop  offset="1" style="stop-color:#D0E7D9"/>
	</radialGradient>
	<polygon class="st27" points="158.5,88.6 163.9,89.9 158,88 169,87.6 158.2,87.3 163.9,85.6 158.6,86.8 166.1,82.2 157.8,86 
		161.8,81.9 157.7,85.7 161.8,77.7 156.8,85.1 158.2,79.7 156.3,85.5 155.9,74.5 155.5,85.4 153.9,79.6 155,84.9 150.5,77.4 
		154.3,85.7 150.1,81.7 153.9,85.9 145.9,81.8 153.4,86.7 147.9,85.4 153.8,87.3 142.8,87.6 153.6,88 147.9,89.7 153.2,88.5 
		145.8,93.5 154,89.3 150,93.4 154.2,89.6 150,97.6 155,90.2 153.7,95.6 155.5,90.1 155.9,100 156.3,89.9 157.9,95.7 156.8,90.3 
		161.3,97.8 157.5,89.6 161.7,93.6 157.9,89.4 165.9,93.5 	"/>
	
		<radialGradient id="SVGID_30_" cx="215.8664" cy="120.8876" r="13.1836" gradientTransform="matrix(0.9808 0 0 0.9808 3.0347 3.0525)" gradientUnits="userSpaceOnUse">
		<stop  offset="0" style="stop-color:#D0E7D9"/>
		<stop  offset="0.462" style="stop-color:#8DB8D9"/>
		<stop  offset="0.7231" style="stop-color:#8CD1E7"/>
		<stop  offset="0.8625" style="stop-color:#ABDBE9"/>
		<stop  offset="1" style="stop-color:#D0E7D9"/>
	</radialGradient>
	<polygon class="st28" points="217.3,122.9 222.7,124.2 216.9,122.4 227.9,122 217,121.6 222.8,119.9 217.5,121.1 225,116.5 
		216.7,120.4 220.7,116.2 216.5,120 220.6,112 215.7,119.4 217,114 215.1,119.9 214.7,108.9 214.4,119.7 212.7,113.9 213.9,119.3 
		209.3,111.8 213.1,120 209,116 212.8,120.2 204.8,116.1 212.2,121.1 206.8,119.7 212.6,121.6 201.6,122 212.5,122.4 206.7,124 
		212.1,122.8 204.6,127.8 212.8,123.6 208.8,127.7 213,123.9 208.9,131.9 213.8,124.5 212.5,129.9 214.3,124.4 214.7,134.4 
		215.1,124.3 216.8,130 215.6,124.7 220.2,132.2 216.4,123.9 220.5,127.9 216.7,123.7 224.7,127.8 	"/>
	
		<radialGradient id="SVGID_31_" cx="95.8664" cy="120.8876" r="13.1836" gradientTransform="matrix(0.9808 0 0 0.9808 3.0347 3.0525)" gradientUnits="userSpaceOnUse">
		<stop  offset="0" style="stop-color:#D0E7D9"/>
		<stop  offset="0.462" style="stop-color:#8DB8D9"/>
		<stop  offset="0.7231" style="stop-color:#8CD1E7"/>
		<stop  offset="0.8625" style="stop-color:#ABDBE9"/>
		<stop  offset="1" style="stop-color:#D0E7D9"/>
	</radialGradient>
	<polygon class="st29" points="99.6,122.9 105,124.2 99.2,122.4 110.2,122 99.4,121.6 105.1,119.9 99.8,121.1 107.3,116.5 99,120.4 
		103,116.2 98.8,120 102.9,112 98,119.4 99.3,114 97.4,119.9 97,108.9 96.7,119.7 95,113.9 96.2,119.3 91.6,111.8 95.4,120 
		91.3,116 95.1,120.2 87.1,116.1 94.5,121.1 89.1,119.7 95,121.6 84,122 94.8,122.4 89,124 94.4,122.8 86.9,127.8 95.1,123.6 
		91.1,127.7 95.3,123.9 91.2,131.9 96.1,124.5 94.8,129.9 96.6,124.4 97,134.4 97.4,124.3 99.1,130 97.9,124.7 102.5,132.2 
		98.7,123.9 102.8,127.9 99,123.7 107,127.8 	"/>
	<linearGradient id="SVGID_32_" gradientUnits="userSpaceOnUse" x1="23.1425" y1="154.9633" x2="49.3581" y2="154.9633">
		<stop  offset="0" style="stop-color:#B47E11"/>
		<stop  offset="0.1507" style="stop-color:#B47E11"/>
		<stop  offset="0.4537" style="stop-color:#E1BE57"/>
		<stop  offset="0.6129" style="stop-color:#F7DD7C"/>
		<stop  offset="0.7204" style="stop-color:#FFF2A7"/>
		<stop  offset="0.8387" style="stop-color:#F7DD7C"/>
		<stop  offset="1" style="stop-color:#B47E11"/>
	</linearGradient>
	<polygon class="st30" points="38.8,156.2 44.2,157.6 38.4,155.7 49.4,155.3 38.5,154.9 44.3,153.3 38.9,154.5 46.5,149.9 
		38.2,153.7 42.2,149.5 38,153.4 42.1,145.4 37.2,152.8 38.5,147.4 36.6,153.2 36.2,142.2 35.9,153 34.2,147.3 35.4,152.6 
		30.8,145.1 34.6,153.4 30.5,149.4 34.3,153.6 26.3,149.5 33.7,154.4 28.3,153.1 34.1,154.9 23.1,155.3 34,155.7 28.2,157.4 
		33.6,156.2 26.1,161.2 34.3,156.9 30.3,161.1 34.5,157.3 30.4,165.3 35.3,157.9 34,163.3 35.8,157.8 36.2,167.7 36.6,157.6 
		38.3,163.3 37.1,158 41.7,165.5 37.9,157.3 42,161.3 38.2,157.1 46.2,161.2 	"/>
	<linearGradient id="SVGID_33_" gradientUnits="userSpaceOnUse" x1="15.5925" y1="224.0698" x2="58.8696" y2="224.0698">
		<stop  offset="0" style="stop-color:#B47E11"/>
		<stop  offset="0.1507" style="stop-color:#B47E11"/>
		<stop  offset="0.4537" style="stop-color:#E1BE57"/>
		<stop  offset="0.6129" style="stop-color:#F7DD7C"/>
		<stop  offset="0.7204" style="stop-color:#FFF2A7"/>
		<stop  offset="0.8387" style="stop-color:#F7DD7C"/>
		<stop  offset="1" style="stop-color:#B47E11"/>
	</linearGradient>
	<polygon class="st31" points="41.4,226.2 50.4,228.4 40.7,225.3 58.9,224.7 41,224 50.5,221.3 41.7,223.2 54.1,215.7 40.4,222 
		47,215.1 40.1,221.4 46.9,208.2 38.7,220.4 41,211.5 37.9,221.2 37.2,203 36.6,220.9 33.9,211.4 35.8,220.2 28.3,207.8 34.6,221.5 
		27.7,214.9 34,221.8 20.8,215 33,223.2 24.1,220.9 33.8,224 15.6,224.7 33.4,225.3 24,228 32.8,226.1 20.5,234.3 34,227.3 
		27.4,234.2 34.3,227.9 27.5,241.1 35.7,228.9 33.5,237.8 36.5,228.7 37.2,245.1 37.9,228.4 40.6,237.9 38.7,229.1 46.2,241.5 
		39.9,227.9 46.8,234.5 40.5,227.6 53.7,234.3 	"/>
	<linearGradient id="SVGID_34_" gradientUnits="userSpaceOnUse" x1="15.5925" y1="87.7413" x2="58.8696" y2="87.7413">
		<stop  offset="0" style="stop-color:#B47E11"/>
		<stop  offset="0.1507" style="stop-color:#B47E11"/>
		<stop  offset="0.4537" style="stop-color:#E1BE57"/>
		<stop  offset="0.6129" style="stop-color:#F7DD7C"/>
		<stop  offset="0.7204" style="stop-color:#FFF2A7"/>
		<stop  offset="0.8387" style="stop-color:#F7DD7C"/>
		<stop  offset="1" style="stop-color:#B47E11"/>
	</linearGradient>
	<polygon class="st32" points="41.4,89.8 50.4,92.1 40.7,89 58.9,88.3 41,87.7 50.5,85 41.7,86.9 54.1,79.4 40.4,85.7 47,78.8 
		40.1,85.1 46.9,71.9 38.7,84.1 41,75.2 37.9,84.9 37.2,66.7 36.6,84.5 33.9,75.1 35.8,83.9 28.3,71.5 34.6,85.1 27.7,78.5 34,85.4 
		20.8,78.6 33,86.8 24.1,84.6 33.8,87.7 15.6,88.3 33.4,89 24,91.7 32.8,89.8 20.5,98 34,91 27.4,97.9 34.3,91.6 27.5,104.8 
		35.7,92.5 33.5,101.5 36.5,92.4 37.2,108.8 37.9,92.1 40.6,101.6 38.7,92.8 46.2,105.2 39.9,91.5 46.8,98.1 40.5,91.2 53.7,98 	"/>
</g>
</svg>
