<?xml version="1.0" encoding="UTF-8"?> <svg xmlns="http://www.w3.org/2000/svg" width="841" height="837" viewBox="0 0 841 837" fill="none"> <rect x="153.612" y="149.619" width="531.108" height="531.108" stroke="#DCC7C4" stroke-width="1.16559"></rect> <rect x="419.361" y="39.2592" width="531.315" height="531.315" transform="rotate(45 419.361 39.2592)" stroke="#DCC7C4" stroke-width="0.958092"></rect> <line x1="419.827" y1="38.5897" x2="419.827" y2="788.723" stroke="#DCC7C4" stroke-width="1.33068"></line> <line x1="42.5811" y1="414.508" x2="794.045" y2="414.508" stroke="#DCC7C4" stroke-width="1.33068"></line> <line x1="42.5811" y1="414.508" x2="794.045" y2="414.508" stroke="#DCC7C4" stroke-width="1.33068"></line> <line x1="155.763" y1="151.682" x2="687.128" y2="683.047" stroke="#DCC7C4" stroke-width="1.33068"></line> <line x1="687.126" y1="152.622" x2="155.761" y2="683.987" stroke="#DCC7C4" stroke-width="1.33068"></line> <circle cx="153.03" cy="681.31" r="37.9245" fill="#DCC7C4" stroke="#DCC7C4" stroke-width="1.33068"></circle> <circle cx="153.03" cy="149.036" r="37.9245" fill="#DCC7C4" stroke="#DCC7C4" stroke-width="1.33068"></circle> <circle cx="685.301" cy="149.036" r="37.9245" fill="#DCC7C4" stroke="#DCC7C4" stroke-width="1.33068"></circle> <circle cx="685.301" cy="681.31" r="37.9245" fill="#DCC7C4" stroke="#DCC7C4" stroke-width="1.33068"></circle> <circle cx="38.5898" cy="413.842" r="37.9245" fill="#DCC7C4" stroke="#DCC7C4" stroke-width="1.33068"></circle> <circle cx="419.164" cy="798.41" r="37.9245" fill="#DCC7C4" stroke="#DCC7C4" stroke-width="1.33068"></circle> <circle cx="802.402" cy="415.173" r="37.9245" fill="#DCC7C4" stroke="#DCC7C4" stroke-width="1.33068"></circle> <line x1="442.996" y1="655.966" x2="464.348" y2="634.614" stroke="#DCC7C4" stroke-width="0.34685"></line> <line x1="509.532" y1="590.762" x2="530.884" y2="569.41" stroke="#DCC7C4" stroke-width="0.34685"></line> <line x1="576.063" y1="526.889" x2="597.415" y2="505.537" stroke="#DCC7C4" stroke-width="0.34685"></line> <line x1="641.265" y1="459.024" x2="662.617" y2="437.672" stroke="#DCC7C4" stroke-width="0.34685"></line> <circle cx="417.835" cy="38.5898" r="37.9245" fill="#DCC7C4" stroke="#DCC7C4" stroke-width="1.33068"></circle> <circle cx="422.172" cy="415.78" r="37.9245" fill="#DCC7C4" stroke="#DCC7C4" stroke-width="1.33068"></circle> <circle cx="553.562" cy="546.911" r="22.2316" fill="#DCC7C4" stroke="#DCC7C4" stroke-width="0.780056"></circle> <circle cx="487.031" cy="612.114" r="22.2316" fill="#DCC7C4" stroke="#DCC7C4" stroke-width="0.780056"></circle> <circle cx="617.437" cy="483.038" r="22.2316" fill="#DCC7C4" stroke="#DCC7C4" stroke-width="0.780056"></circle> <circle cx="419.164" cy="798.41" r="38.1794" fill="#DCC7C4" stroke="#DCC7C4" stroke-width="0.820866"></circle> </svg> 