<?xml version="1.0" encoding="UTF-8"?> <svg xmlns="http://www.w3.org/2000/svg" width="500" height="499" viewBox="0 0 500 499" fill="none"> <path d="M379.797 55.32H119.247C107.302 55.32 97.583 65.0388 97.583 76.984V421.574C97.583 433.519 107.302 443.238 119.247 443.238H379.807C391.752 443.238 401.471 433.519 401.471 421.574V76.984C401.467 65.039 391.748 55.32 379.803 55.32H379.797ZM392.711 421.57C392.711 428.691 386.918 434.484 379.797 434.484H119.247C112.126 434.484 106.333 428.691 106.333 421.57V76.98C106.333 69.8589 112.126 64.066 119.247 64.066H379.807C386.928 64.066 392.721 69.859 392.721 76.98V421.57H392.711Z" fill="black"></path> <path d="M124.677 171.167H374.357V84.851H124.677V171.167ZM133.427 93.601H365.607V162.417H133.427V93.601Z" fill="black"></path> <path d="M186.727 209.967H134.817C129.227 209.967 124.68 214.518 124.68 220.104V237.393C124.68 242.983 129.23 247.53 134.817 247.53H186.727C192.316 247.53 196.864 242.979 196.864 237.393V220.104C196.864 214.518 192.313 209.967 186.727 209.967ZM188.113 237.397C188.113 238.151 187.477 238.784 186.727 238.784H134.817C134.063 238.784 133.43 238.147 133.43 237.397V220.108C133.43 219.354 134.067 218.721 134.817 218.721H186.727C187.481 218.721 188.113 219.358 188.113 220.108V237.397Z" fill="black"></path> <path d="M275.467 209.967H223.557C217.967 209.967 213.42 214.518 213.42 220.104V237.393C213.42 242.983 217.971 247.53 223.557 247.53H275.467C281.057 247.53 285.604 242.979 285.604 237.393V220.104C285.612 214.518 281.061 209.967 275.467 209.967V209.967ZM276.861 237.397C276.861 238.151 276.225 238.784 275.475 238.784H223.557C222.803 238.784 222.17 238.147 222.17 237.397V220.108C222.17 219.354 222.807 218.721 223.557 218.721H275.467C276.221 218.721 276.853 219.358 276.853 220.108V237.397H276.861Z" fill="black"></path> <path d="M364.227 209.967H312.317C306.727 209.967 302.18 214.518 302.18 220.104V237.393C302.18 242.983 306.73 247.53 312.317 247.53H364.227C369.816 247.53 374.364 242.979 374.364 237.393V220.104C374.36 214.518 369.817 209.967 364.227 209.967V209.967ZM365.609 237.397C365.609 238.151 364.973 238.784 364.223 238.784H312.313C311.559 238.784 310.926 238.147 310.926 237.397V220.108C310.926 219.354 311.563 218.721 312.313 218.721H364.223C364.977 218.721 365.609 219.358 365.609 220.108V237.397Z" fill="black"></path> <path d="M186.727 264.707H134.817C129.227 264.707 124.68 269.258 124.68 274.844V292.133C124.68 297.723 129.23 302.27 134.817 302.27H186.727C192.316 302.27 196.864 297.719 196.864 292.133V274.844C196.864 269.258 192.313 264.707 186.727 264.707ZM188.113 292.137C188.113 292.891 187.477 293.524 186.727 293.524H134.817C134.063 293.524 133.43 292.887 133.43 292.137V274.848C133.43 274.094 134.067 273.461 134.817 273.461H186.727C187.481 273.461 188.113 274.098 188.113 274.848V292.137Z" fill="black"></path> <path d="M275.467 264.707H223.557C217.967 264.707 213.42 269.258 213.42 274.844V292.133C213.42 297.723 217.971 302.27 223.557 302.27H275.467C281.057 302.27 285.604 297.719 285.604 292.133V274.844C285.612 269.258 281.061 264.707 275.467 264.707V264.707ZM276.861 292.137C276.861 292.891 276.225 293.524 275.475 293.524H223.557C222.803 293.524 222.17 292.887 222.17 292.137V274.848C222.17 274.094 222.807 273.461 223.557 273.461H275.467C276.221 273.461 276.853 274.098 276.853 274.848V292.137H276.861Z" fill="black"></path> <path d="M364.227 264.707H312.317C306.727 264.707 302.18 269.258 302.18 274.844V292.133C302.18 297.723 306.73 302.27 312.317 302.27H364.227C369.816 302.27 374.364 297.719 374.364 292.133V274.844C374.36 269.258 369.817 264.707 364.227 264.707V264.707ZM365.609 292.137C365.609 292.891 364.973 293.524 364.223 293.524H312.313C311.559 293.524 310.926 292.887 310.926 292.137V274.848C310.926 274.094 311.563 273.461 312.313 273.461H364.223C364.977 273.461 365.609 274.098 365.609 274.848V292.137Z" fill="black"></path> <path d="M186.727 319.467H134.817C129.227 319.467 124.68 324.018 124.68 329.604V346.893C124.68 352.483 129.23 357.03 134.817 357.03H186.727C192.316 357.03 196.864 352.479 196.864 346.893V329.604C196.864 324.018 192.313 319.467 186.727 319.467ZM188.113 346.893C188.113 347.647 187.477 348.28 186.727 348.28H134.817C134.063 348.28 133.43 347.643 133.43 346.893L133.426 329.604C133.426 328.85 134.063 328.217 134.813 328.217H186.723C187.477 328.217 188.109 328.854 188.109 329.604L188.113 346.893Z" fill="black"></path> <path d="M275.467 319.467H223.557C217.967 319.467 213.42 324.018 213.42 329.604V346.893C213.42 352.483 217.971 357.03 223.557 357.03H275.467C281.057 357.03 285.604 352.479 285.604 346.893V329.604C285.612 324.018 281.061 319.467 275.467 319.467V319.467ZM276.861 346.893C276.861 347.647 276.225 348.28 275.475 348.28L223.557 348.284C222.803 348.284 222.17 347.647 222.17 346.897L222.166 329.604C222.166 328.85 222.803 328.217 223.553 328.217H275.463C276.217 328.217 276.849 328.854 276.849 329.604L276.853 346.893L276.861 346.893Z" fill="black"></path> <path d="M364.227 319.467H312.317C306.727 319.467 302.18 324.018 302.18 329.604V346.893C302.18 352.483 306.73 357.03 312.317 357.03H364.227C369.816 357.03 374.364 352.479 374.364 346.893V329.604C374.36 324.018 369.817 319.467 364.227 319.467V319.467ZM365.609 346.893C365.609 347.647 364.973 348.28 364.223 348.28H312.313C311.559 348.28 310.926 347.643 310.926 346.893L310.922 329.604C310.922 328.85 311.559 328.217 312.309 328.217H364.219C364.973 328.217 365.606 328.854 365.606 329.604L365.609 346.893Z" fill="black"></path> <path d="M186.727 374.207H134.817C129.227 374.207 124.68 378.758 124.68 384.344V401.633C124.68 407.223 129.23 411.77 134.817 411.77H186.727C192.316 411.77 196.864 407.219 196.864 401.633V384.344C196.864 378.758 192.313 374.207 186.727 374.207ZM188.113 401.641C188.113 402.395 187.477 403.028 186.727 403.028H134.817C134.063 403.028 133.43 402.391 133.43 401.641V384.352C133.43 383.598 134.067 382.965 134.817 382.965H186.727C187.481 382.965 188.113 383.602 188.113 384.352V401.641Z" fill="black"></path> <path d="M275.467 374.207H223.557C217.967 374.207 213.42 378.758 213.42 384.344V401.633C213.42 407.223 217.971 411.77 223.557 411.77H275.467C281.057 411.77 285.604 407.219 285.604 401.633V384.344C285.612 378.758 281.061 374.207 275.467 374.207V374.207ZM276.861 401.641C276.861 402.395 276.225 403.028 275.475 403.028H223.557C222.803 403.028 222.17 402.391 222.17 401.641V384.352C222.17 383.598 222.807 382.965 223.557 382.965H275.467C276.221 382.965 276.853 383.602 276.853 384.352V401.641H276.861Z" fill="black"></path> <path d="M364.227 374.207H312.317C306.727 374.207 302.18 378.758 302.18 384.344V401.633C302.18 407.223 306.73 411.77 312.317 411.77H364.227C369.816 411.77 374.364 407.219 374.364 401.633V384.344C374.36 378.758 369.817 374.207 364.227 374.207V374.207ZM365.609 401.641C365.609 402.395 364.973 403.028 364.223 403.028H312.313C311.559 403.028 310.926 402.391 310.926 401.641V384.352C310.926 383.598 311.563 382.965 312.313 382.965H364.223C364.977 382.965 365.609 383.602 365.609 384.352V401.641Z" fill="black"></path> <path d="M133.717 472.397C126.506 472.397 120.639 478.264 120.639 485.475C120.639 492.686 126.506 498.553 133.717 498.553C140.928 498.553 146.795 492.686 146.795 485.475C146.795 478.264 140.935 472.397 133.717 472.397ZM133.717 495.635C128.115 495.635 123.557 491.072 123.557 485.475C123.557 479.873 128.119 475.315 133.717 475.315C139.318 475.315 143.877 479.877 143.877 485.475C143.881 491.077 139.322 495.635 133.717 495.635Z" fill="black"></path> <path d="M9.3569 154.227L7.146 167.102L18.708 161.024L30.27 167.102L28.0669 154.227L37.4224 145.11L24.4884 143.231L18.7072 131.516L12.926 143.231L0 145.11L9.3569 154.227ZM14.8647 145.899L18.7085 138.11L22.5523 145.899L31.15 147.149L24.9312 153.215L26.396 161.778L18.7085 157.743L11.021 161.778L12.4858 153.215L6.267 147.149L14.8647 145.899Z" fill="black"></path> <path d="M138.077 17.14L134.089 9.0541L130.101 17.14L121.175 18.4408L127.632 24.7338L126.108 33.6166L134.089 29.4213L142.069 33.6166L140.546 24.7338L147.003 18.4408L138.077 17.14ZM138.194 28.288L134.089 26.1278L129.983 28.288L130.765 23.7138L127.44 20.4716L132.038 19.8075L134.093 15.6473L136.148 19.8075L140.745 20.4716L137.421 23.7138L138.194 28.288Z" fill="black"></path> <path d="M464.137 366.337L470.594 372.63L469.07 381.513L477.051 377.318L485.031 381.513L483.508 372.63L489.965 366.337L481.039 365.036L477.051 356.95L473.062 365.036L464.137 366.337ZM477.051 363.54L479.105 367.7L483.703 368.364L480.379 371.607L481.16 376.181L477.055 374.021L472.949 376.181L473.73 371.607L470.406 368.364L475.004 367.7L477.051 363.54Z" fill="black"></path> <path d="M477.057 51.73L471.796 67.929H454.769L468.542 77.945L463.28 94.136L477.057 84.124L490.834 94.136L485.572 77.945L499.345 67.929H482.318L477.057 51.73ZM482.147 76.832L485.292 86.5039L477.061 80.5234L468.831 86.5039L471.975 76.832L463.745 70.8476H473.925L477.069 61.1718L480.214 70.8476H490.394L482.147 76.832Z" fill="black"></path> <path d="M430.647 26.156C437.858 26.156 443.725 20.2888 443.725 13.078C443.725 5.8671 437.858 0 430.647 0C423.436 0 417.569 5.8672 417.569 13.078C417.569 20.2889 423.433 26.156 430.647 26.156V26.156ZM430.647 2.918C436.249 2.918 440.807 7.4805 440.807 13.078C440.807 18.6796 436.245 23.238 430.647 23.238C425.046 23.238 420.487 18.6755 420.487 13.078C420.487 7.4803 425.042 2.918 430.647 2.918V2.918Z" fill="black"></path> <path d="M475.597 255.027C475.597 260.773 480.269 265.445 486.015 265.445C491.761 265.445 496.433 260.773 496.433 255.027C496.433 249.281 491.761 244.609 486.015 244.609C480.269 244.609 475.597 249.281 475.597 255.027ZM486.015 247.527C490.151 247.527 493.515 250.894 493.515 255.027C493.515 259.164 490.147 262.527 486.015 262.527C481.878 262.527 478.515 259.16 478.515 255.027C478.515 250.894 481.878 247.527 486.015 247.527Z" fill="black"></path> <path d="M42.5371 69.347C42.5371 76.9408 48.7129 83.12 56.3101 83.12C63.9039 83.12 70.0831 76.9442 70.0831 69.347C70.0831 61.7532 63.9073 55.574 56.3101 55.574C48.7124 55.574 42.5371 61.7537 42.5371 69.347ZM56.3101 58.492C62.2945 58.492 67.1651 63.3631 67.1651 69.347C67.1651 75.3314 62.294 80.202 56.3101 80.202C50.3257 80.202 45.4551 75.3309 45.4551 69.347C45.4551 63.3626 50.3262 58.492 56.3101 58.492Z" fill="black"></path> <path d="M103.047 486.907L103.625 484.048C101.73 483.669 99.8555 483.243 98 482.782L97.2891 485.606C99.1836 486.083 101.109 486.516 103.047 486.907H103.047Z" fill="black"></path> <path d="M24.6367 431.587C26.6133 434.896 28.7851 438.146 31.0781 441.239L33.4219 439.505C31.1875 436.478 29.0703 433.31 27.1407 430.083L24.6367 431.587Z" fill="black"></path> <path d="M7.81642 370.917C7.81642 372.831 7.86329 374.737 7.95704 376.632L10.8672 376.491C10.7813 374.643 10.7344 372.78 10.7344 370.913C10.7344 369.007 10.7813 367.093 10.875 365.167L7.96485 365.026C7.86329 366.995 7.81641 368.964 7.81641 370.917L7.81642 370.917Z" fill="black"></path> <path d="M14.7266 410.647C16.0235 414.256 17.5235 417.862 19.1719 421.362L21.8086 420.112C20.1914 416.698 18.7344 413.182 17.4727 409.659L14.7266 410.647Z" fill="black"></path> <path d="M14.1865 398.827C13.2724 395.182 12.5224 391.448 11.9756 387.737L9.08887 388.163C9.65528 391.971 10.417 395.799 11.3506 399.538L14.1865 398.827Z" fill="black"></path> <path d="M48.587 456.287C45.7979 453.748 43.1104 451.053 40.5948 448.268L38.4307 450.221C41.0049 453.08 43.7627 455.846 46.6221 458.447L48.587 456.287Z" fill="black"></path> <path d="M66.7168 469.797C63.502 467.867 60.3418 465.742 57.3145 463.492L55.5684 465.832C58.67 468.141 61.9161 470.317 65.209 472.297L66.7168 469.797Z" fill="black"></path> <path d="M86.1768 482.227L87.1612 479.481C83.6221 478.215 80.1026 476.75 76.7002 475.141L75.4502 477.778C78.9307 479.434 82.544 480.926 86.1772 482.227H86.1768Z" fill="black"></path> <path d="M12.9971 348.147L10.1377 347.577C9.75094 349.518 9.4072 351.456 9.12207 353.397L12.0049 353.823C12.2861 351.932 12.6181 350.034 12.9971 348.147L12.9971 348.147Z" fill="black"></path> <path d="M492.517 412.677L489.599 412.618C489.56 414.544 489.454 416.45 489.278 418.341L492.185 418.611C492.364 416.65 492.474 414.677 492.517 412.677L492.517 412.677Z" fill="black"></path> <path d="M483.087 442.527L485.763 443.687C487.485 439.726 488.899 435.597 489.97 431.414L487.146 430.692C486.114 434.731 484.747 438.707 483.087 442.528V442.527Z" fill="black"></path> <path d="M460.627 472.207C457.409 474.848 453.948 477.254 450.361 479.352L451.83 481.871C455.557 479.695 459.139 477.203 462.482 474.461L460.627 472.207Z" fill="black"></path> <path d="M471.837 465.477C474.712 462.239 477.345 458.758 479.665 455.133L477.208 453.559C474.97 457.055 472.431 460.414 469.653 463.535L471.837 465.477Z" fill="black"></path> <path d="M427.107 488.357L427.713 491.209C431.932 490.31 436.107 489.06 440.143 487.498L439.088 484.779C435.205 486.295 431.174 487.494 427.108 488.357H427.107Z" fill="black"></path> <path d="M410.557 493.007C411.986 493.007 413.404 492.972 414.814 492.898L414.67 489.987C412.775 490.081 410.873 490.128 408.936 490.073L408.877 492.991C409.443 492.999 410.002 493.007 410.557 493.007H410.557Z" fill="black"></path> <path d="M484.557 134.807H487.475V146.475H484.557V134.807Z" fill="black"></path> <path d="M484.557 158.147H487.475V169.815H484.557V158.147Z" fill="black"></path> <path d="M484.557 204.807H487.475V216.475H484.557V204.807Z" fill="black"></path> <path d="M484.557 181.477H487.475V193.145H484.557V181.477Z" fill="black"></path> </svg> 