<?xml version="1.0" encoding="UTF-8"?> <svg xmlns="http://www.w3.org/2000/svg" width="500" height="499" viewBox="0 0 500 499" fill="none"> <path d="M249.035 55.32C169.887 55.32 105.495 119.715 105.495 198.86C105.495 251.372 133.921 299.26 179.788 324.57V387.621C179.788 418.285 204.737 443.234 235.401 443.234H262.713C293.377 443.234 318.326 418.285 318.326 387.621V324.519C364.201 299.253 392.619 251.394 392.619 198.859C392.619 119.711 328.201 55.319 249.029 55.319L249.035 55.32ZM262.707 434.48H235.402C214.5 434.48 196.769 420.726 190.742 401.796C208.972 409.905 228.926 414.175 249.035 414.175C269.195 414.175 289.176 409.886 307.387 401.757C301.372 420.71 283.625 434.48 262.707 434.48V434.48ZM309.57 387.617C309.57 388.789 309.476 389.933 309.394 391.082C290.843 400.437 270.046 405.426 249.023 405.426C228.058 405.426 207.285 400.457 188.699 391.121C188.613 389.961 188.524 388.8 188.524 387.609V364.906C207.348 373.66 228.11 378.304 249.02 378.304C269.993 378.304 290.762 373.656 309.563 364.87L309.57 387.617ZM309.57 355.133C290.972 364.547 270.113 369.567 249.027 369.567C228.004 369.567 207.16 364.567 188.531 355.176V329.09C188.758 329.195 188.996 329.281 189.226 329.387C190.359 329.906 191.512 330.371 192.656 330.863C193.953 331.41 195.242 331.973 196.555 332.481C198.258 333.153 199.98 333.758 201.707 334.36C202.324 334.574 202.945 334.797 203.566 335C218.156 339.863 233.543 342.438 249.027 342.438C264.55 342.438 279.957 339.852 294.543 334.977C295.196 334.762 295.844 334.524 296.496 334.301C298.196 333.707 299.887 333.106 301.555 332.453C302.879 331.934 304.18 331.367 305.489 330.809C306.621 330.324 307.758 329.86 308.879 329.344C309.106 329.239 309.344 329.153 309.574 329.047L309.567 355.133L309.57 355.133ZM311.894 318.117C292.726 328.308 270.984 333.691 249.027 333.691C240.813 333.691 232.629 332.937 224.589 331.457C221.242 330.839 217.917 330.097 214.625 329.234C204.761 326.636 195.199 322.921 186.199 318.164L186.163 318.148C141.796 294.71 114.233 249.007 114.233 198.858C114.233 124.534 174.702 64.0682 249.023 64.0682C323.375 64.0682 383.863 124.537 383.863 198.858C383.875 249.038 356.301 294.737 311.898 318.118L311.894 318.117Z" fill="black"></path> <path d="M296.855 207.907L270.289 162.466L248.391 224.884L224.289 150.157L185.898 197.419L192.688 202.931L220.911 168.197L248.044 252.306L272.278 183.212L298.645 228.294L312.915 189.732L304.708 186.693L296.855 207.907Z" fill="black"></path> <path d="M133.725 472.397C126.515 472.397 120.647 478.264 120.647 485.475C120.647 492.686 126.515 498.553 133.725 498.553C140.936 498.553 146.803 492.686 146.803 485.475C146.803 478.264 140.936 472.397 133.725 472.397ZM133.725 495.635C128.124 495.635 123.565 491.072 123.565 485.475C123.565 479.873 128.128 475.315 133.725 475.315C139.327 475.315 143.885 479.877 143.885 485.475C143.889 491.077 139.327 495.635 133.725 495.635Z" fill="black"></path> <path d="M18.7151 131.517L12.926 143.224L0 145.103L9.3555 154.22L7.1524 167.095L18.7144 161.017L30.2764 167.095L28.0733 154.22L37.4288 145.103L24.4948 143.224L18.7151 131.517ZM24.9339 153.205L26.3987 161.767L18.7112 157.732L11.0237 161.767L12.4885 153.205L6.2697 147.139L14.8674 145.889L18.7112 138.099L22.555 145.889L31.1527 147.139L24.9339 153.205Z" fill="black"></path> <path d="M138.085 17.14L134.097 9.05408L130.108 17.14L121.183 18.4408L127.64 24.7338L126.116 33.6166L134.097 29.4213L142.077 33.6166L140.554 24.7338L147.011 18.4408L138.085 17.14ZM138.202 28.288L134.097 26.1278L129.991 28.288L130.772 23.7138L127.448 20.4716L132.046 19.8075L134.101 15.6473L136.155 19.8075L140.753 20.4716L137.429 23.7138L138.202 28.288Z" fill="black"></path> <path d="M477.065 377.327L485.046 381.522L483.523 372.64L489.98 366.347L481.054 365.046L477.065 356.96L473.077 365.046L464.151 366.347L470.608 372.64L469.085 381.522L477.065 377.327ZM470.421 368.374L475.019 367.71L477.073 363.55L479.128 367.71L483.726 368.374L480.402 371.616L481.183 376.19L477.077 374.03L472.972 376.19L473.753 371.616L470.421 368.374Z" fill="black"></path> <path d="M477.065 51.738L471.803 67.937H454.776L468.549 77.953L463.288 94.144L477.065 84.132L490.842 94.144L485.58 77.953L499.353 67.937H482.326L477.065 51.738ZM482.151 76.832L485.295 86.5039L477.065 80.5234L468.834 86.5039L471.979 76.832L463.748 70.8476H473.928L477.073 61.1718L480.217 70.8476H490.397L482.151 76.832Z" fill="black"></path> <path d="M430.655 0C423.444 0 417.577 5.8672 417.577 13.078C417.577 20.2889 423.444 26.156 430.655 26.156C437.866 26.156 443.733 20.2888 443.733 13.078C443.733 5.871 437.87 0 430.655 0V0ZM430.655 23.242C425.054 23.242 420.495 18.6795 420.495 13.082C420.495 7.4804 425.058 2.922 430.655 2.922C436.257 2.922 440.815 7.4845 440.815 13.082C440.815 18.6797 436.26 23.242 430.655 23.242Z" fill="black"></path> <path d="M486.025 244.617C480.279 244.617 475.607 249.289 475.607 255.035C475.607 260.781 480.279 265.453 486.025 265.453C491.771 265.453 496.443 260.781 496.443 255.035C496.443 249.289 491.768 244.617 486.025 244.617ZM486.025 262.535C481.889 262.535 478.525 259.168 478.525 255.035C478.525 250.898 481.893 247.535 486.025 247.535C490.162 247.535 493.525 250.902 493.525 255.035C493.529 259.172 490.162 262.535 486.025 262.535Z" fill="black"></path> <path d="M56.3052 55.574C48.7114 55.574 42.5322 61.7498 42.5322 69.347C42.5322 76.9408 48.708 83.12 56.3052 83.12C63.899 83.12 70.0782 76.9442 70.0782 69.347C70.0782 61.7532 63.9024 55.574 56.3052 55.574ZM56.3052 80.203C50.3208 80.203 45.4502 75.3319 45.4502 69.348C45.4502 63.3636 50.3213 58.493 56.3052 58.493C62.2891 58.493 67.1602 63.3641 67.1602 69.348C67.1602 75.3324 62.2891 80.203 56.3052 80.203Z" fill="black"></path> <path d="M97.2949 485.607C99.1972 486.091 101.115 486.517 103.057 486.908L103.635 484.048C101.74 483.67 99.8652 483.244 98.0097 482.783L97.2949 485.607Z" fill="black"></path> <path d="M24.6455 431.597C26.6221 434.906 28.7939 438.156 31.0869 441.249L33.4307 439.515C31.1963 436.488 29.0791 433.32 27.1495 430.093L24.6455 431.597Z" fill="black"></path> <path d="M75.4648 477.787C78.9492 479.439 82.5586 480.935 86.1878 482.236L87.1722 479.49C83.6331 478.224 80.1136 476.76 76.7112 475.15L75.4648 477.787Z" fill="black"></path> <path d="M9.10547 388.167C9.67188 391.976 10.4336 395.804 11.3672 399.542L14.1953 398.831C13.2812 395.187 12.5312 391.452 11.9844 387.741L9.10547 388.167Z" fill="black"></path> <path d="M55.585 465.837C58.6866 468.146 61.9327 470.321 65.2256 472.302L66.7295 469.798C63.5147 467.868 60.3545 465.743 57.3272 463.493L55.585 465.837Z" fill="black"></path> <path d="M38.4355 450.227C41.0097 453.086 43.7675 455.852 46.6269 458.454L48.5917 456.293C45.8026 453.754 43.1151 451.059 40.5995 448.274L38.4355 450.227Z" fill="black"></path> <path d="M10.7354 370.917C10.7354 369.011 10.7823 367.097 10.876 365.171L7.96582 365.03C7.86816 366.995 7.82129 368.964 7.82129 370.917C7.82129 372.831 7.86816 374.737 7.96191 376.632L10.8721 376.491C10.7823 374.64 10.7354 372.784 10.7354 370.917L10.7354 370.917Z" fill="black"></path> <path d="M14.7354 410.647C16.0323 414.256 17.5244 417.862 19.1806 421.362L21.8174 420.112C20.2002 416.698 18.7432 413.182 17.4815 409.659L14.7354 410.647Z" fill="black"></path> <path d="M13.0049 348.147L10.1455 347.577C9.75876 349.518 9.41501 351.456 9.12988 353.397L12.0127 353.823C12.2978 351.936 12.6299 350.042 13.0049 348.147L13.0049 348.147Z" fill="black"></path> <path d="M489.285 418.347L492.191 418.617C492.371 416.656 492.484 414.679 492.523 412.683L489.605 412.624C489.559 414.55 489.453 416.456 489.285 418.347L489.285 418.347Z" fill="black"></path> <path d="M427.115 488.367L427.721 491.219C431.94 490.32 436.115 489.07 440.151 487.508L439.096 484.789C435.217 486.297 431.178 487.496 427.116 488.367H427.115Z" fill="black"></path> <path d="M483.105 442.527L485.781 443.687C487.504 439.726 488.918 435.597 489.988 431.414L487.156 430.699C486.125 434.731 484.762 438.715 483.105 442.527V442.527Z" fill="black"></path> <path d="M469.665 463.547L471.849 465.484C474.724 462.246 477.356 458.766 479.677 455.14L477.22 453.566C474.978 457.066 472.442 460.426 469.665 463.547V463.547Z" fill="black"></path> <path d="M450.365 479.357L451.834 481.876C455.561 479.701 459.143 477.209 462.486 474.466L460.638 472.208C457.412 474.853 453.955 477.255 450.365 479.357L450.365 479.357Z" fill="black"></path> <path d="M408.945 490.077L408.887 492.995C409.445 493.007 410.008 493.011 410.566 493.011C411.996 493.011 413.414 492.976 414.824 492.901L414.68 489.991C412.777 490.085 410.875 490.12 408.945 490.077H408.945Z" fill="black"></path> <path d="M484.575 134.807H487.493V146.475H484.575V134.807Z" fill="black"></path> <path d="M484.575 158.147H487.493V169.815H484.575V158.147Z" fill="black"></path> <path d="M484.575 204.807H487.493V216.475H484.575V204.807Z" fill="black"></path> <path d="M484.575 181.477H487.493V193.145H484.575V181.477Z" fill="black"></path> </svg> 