<?xml version="1.0" encoding="UTF-8"?> <svg xmlns="http://www.w3.org/2000/svg" width="500" height="499" viewBox="0 0 500 499" fill="none"> <path d="M133.725 472.397C126.515 472.397 120.647 478.264 120.647 485.475C120.647 492.686 126.515 498.553 133.725 498.553C140.936 498.553 146.803 492.686 146.803 485.475C146.803 478.264 140.936 472.397 133.725 472.397ZM133.725 495.635C128.124 495.635 123.565 491.073 123.565 485.475C123.565 479.873 128.128 475.315 133.725 475.315C139.327 475.315 143.885 479.878 143.885 485.475C143.889 491.077 139.327 495.635 133.725 495.635Z" fill="black"></path> <path d="M18.7151 131.517L12.926 143.224L0 145.103L9.3555 154.22L7.1524 167.095L18.7144 161.017L30.2764 167.095L28.0733 154.22L37.4288 145.103L24.4948 143.224L18.7151 131.517ZM24.9339 153.205L26.3987 161.767L18.7112 157.732L11.0237 161.767L12.4885 153.205L6.2697 147.139L14.8674 145.889L18.7112 138.099L22.555 145.889L31.1527 147.139L24.9339 153.205Z" fill="black"></path> <path d="M138.085 17.14L134.097 9.05408L130.108 17.14L121.183 18.4408L127.64 24.7338L126.116 33.6166L134.097 29.4213L142.077 33.6166L140.554 24.7338L147.011 18.4408L138.085 17.14ZM138.202 28.288L134.097 26.1278L129.991 28.288L130.772 23.7138L127.448 20.4716L132.046 19.8075L134.101 15.6473L136.155 19.8075L140.753 20.4716L137.429 23.7138L138.202 28.288Z" fill="black"></path> <path d="M477.065 377.327L485.046 381.522L483.523 372.64L489.98 366.347L481.054 365.046L477.065 356.96L473.077 365.046L464.151 366.347L470.608 372.64L469.085 381.522L477.065 377.327ZM470.421 368.374L475.019 367.71L477.073 363.55L479.128 367.71L483.726 368.374L480.402 371.616L481.183 376.19L477.077 374.03L472.972 376.19L473.753 371.616L470.421 368.374Z" fill="black"></path> <path d="M477.065 51.738L471.803 67.937H454.776L468.549 77.953L463.288 94.144L477.065 84.132L490.842 94.144L485.58 77.953L499.353 67.937H482.326L477.065 51.738ZM482.151 76.832L485.295 86.5039L477.065 80.5234L468.834 86.5039L471.979 76.832L463.748 70.8476H473.928L477.073 61.1718L480.217 70.8476H490.397L482.151 76.832Z" fill="black"></path> <path d="M430.655 0C423.444 0 417.577 5.8672 417.577 13.078C417.577 20.2889 423.444 26.156 430.655 26.156C437.866 26.156 443.733 20.2888 443.733 13.078C443.733 5.871 437.87 0 430.655 0V0ZM430.655 23.242C425.054 23.242 420.495 18.6795 420.495 13.082C420.495 7.4804 425.058 2.922 430.655 2.922C436.257 2.922 440.815 7.4845 440.815 13.082C440.815 18.6797 436.26 23.242 430.655 23.242Z" fill="black"></path> <path d="M486.025 244.617C480.279 244.617 475.607 249.289 475.607 255.035C475.607 260.781 480.279 265.453 486.025 265.453C491.771 265.453 496.443 260.781 496.443 255.035C496.443 249.289 491.768 244.617 486.025 244.617ZM486.025 262.535C481.889 262.535 478.525 259.168 478.525 255.035C478.525 250.898 481.893 247.535 486.025 247.535C490.162 247.535 493.525 250.902 493.525 255.035C493.529 259.172 490.162 262.535 486.025 262.535Z" fill="black"></path> <path d="M56.3052 55.574C48.7114 55.574 42.5322 61.7498 42.5322 69.347C42.5322 76.9408 48.708 83.12 56.3052 83.12C63.899 83.12 70.0782 76.9442 70.0782 69.347C70.0782 61.7532 63.9024 55.574 56.3052 55.574ZM56.3052 80.203C50.3208 80.203 45.4502 75.3319 45.4502 69.348C45.4502 63.3636 50.3213 58.493 56.3052 58.493C62.2891 58.493 67.1602 63.3641 67.1602 69.348C67.1602 75.3324 62.2891 80.203 56.3052 80.203Z" fill="black"></path> <path d="M97.2949 485.607C99.1972 486.091 101.115 486.517 103.057 486.908L103.635 484.048C101.74 483.67 99.8652 483.244 98.0097 482.783L97.2949 485.607Z" fill="black"></path> <path d="M24.6455 431.597C26.6221 434.906 28.7939 438.156 31.0869 441.249L33.4307 439.515C31.1963 436.488 29.0791 433.32 27.1495 430.093L24.6455 431.597Z" fill="black"></path> <path d="M75.4648 477.787C78.9492 479.439 82.5586 480.935 86.1878 482.236L87.1722 479.49C83.6331 478.225 80.1136 476.76 76.7112 475.15L75.4648 477.787Z" fill="black"></path> <path d="M9.10547 388.167C9.67188 391.976 10.4336 395.804 11.3672 399.542L14.1953 398.831C13.2812 395.187 12.5312 391.452 11.9844 387.741L9.10547 388.167Z" fill="black"></path> <path d="M55.585 465.837C58.6866 468.146 61.9327 470.321 65.2256 472.302L66.7295 469.798C63.5147 467.868 60.3545 465.743 57.3272 463.493L55.585 465.837Z" fill="black"></path> <path d="M38.4355 450.227C41.0097 453.086 43.7675 455.852 46.6269 458.454L48.5917 456.293C45.8026 453.754 43.1151 451.059 40.5995 448.274L38.4355 450.227Z" fill="black"></path> <path d="M10.7354 370.917C10.7354 369.011 10.7823 367.097 10.876 365.171L7.96582 365.03C7.86816 366.995 7.82129 368.964 7.82129 370.917C7.82129 372.831 7.86816 374.737 7.96191 376.632L10.8721 376.491C10.7823 374.64 10.7354 372.784 10.7354 370.917L10.7354 370.917Z" fill="black"></path> <path d="M14.7354 410.647C16.0323 414.256 17.5244 417.862 19.1806 421.362L21.8174 420.112C20.2002 416.698 18.7432 413.182 17.4815 409.659L14.7354 410.647Z" fill="black"></path> <path d="M13.0049 348.147L10.1455 347.577C9.75876 349.518 9.41501 351.456 9.12988 353.397L12.0127 353.823C12.2978 351.936 12.6299 350.042 13.0049 348.147L13.0049 348.147Z" fill="black"></path> <path d="M489.285 418.347L492.191 418.617C492.371 416.656 492.484 414.679 492.523 412.683L489.605 412.624C489.559 414.55 489.453 416.456 489.285 418.347L489.285 418.347Z" fill="black"></path> <path d="M427.115 488.367L427.721 491.219C431.94 490.32 436.115 489.07 440.151 487.508L439.096 484.789C435.217 486.297 431.178 487.496 427.116 488.367H427.115Z" fill="black"></path> <path d="M483.105 442.527L485.781 443.687C487.504 439.726 488.918 435.597 489.988 431.414L487.156 430.699C486.125 434.731 484.762 438.715 483.105 442.527V442.527Z" fill="black"></path> <path d="M469.665 463.547L471.849 465.484C474.724 462.246 477.356 458.766 479.677 455.141L477.22 453.566C474.978 457.066 472.442 460.426 469.665 463.547V463.547Z" fill="black"></path> <path d="M450.365 479.357L451.834 481.876C455.561 479.701 459.143 477.209 462.486 474.466L460.638 472.208C457.412 474.853 453.955 477.255 450.365 479.357L450.365 479.357Z" fill="black"></path> <path d="M408.945 490.077L408.887 492.995C409.445 493.007 410.008 493.011 410.566 493.011C411.996 493.011 413.414 492.975 414.824 492.901L414.68 489.991C412.777 490.085 410.875 490.12 408.945 490.077H408.945Z" fill="black"></path> <path d="M484.575 134.807H487.493V146.475H484.575V134.807Z" fill="black"></path> <path d="M484.575 158.147H487.493V169.815H484.575V158.147Z" fill="black"></path> <path d="M484.575 204.807H487.493V216.475H484.575V204.807Z" fill="black"></path> <path d="M484.575 181.477H487.493V193.145H484.575V181.477Z" fill="black"></path> <path fill-rule="evenodd" clip-rule="evenodd" d="M249.504 241.604C267.218 241.599 284.21 248.633 296.742 261.157C309.271 273.68 316.309 290.67 316.312 308.387C316.317 326.102 309.281 343.094 296.754 355.623C284.23 368.149 267.241 375.191 249.523 375.191C231.808 375.193 214.817 368.155 202.291 355.63C189.764 343.104 182.725 326.112 182.725 308.397C182.738 290.688 189.777 273.709 202.299 261.188C214.817 248.664 231.797 241.62 249.504 241.604V241.604ZM249.504 383.587V383.584C269.449 383.584 288.575 375.663 302.679 361.559C316.783 347.455 324.704 328.329 324.704 308.384C324.704 288.438 316.783 269.309 302.679 255.206C288.575 241.105 269.449 233.181 249.504 233.181C229.558 233.181 210.432 241.105 196.328 255.206C182.225 269.309 174.303 288.438 174.303 308.384C174.326 328.321 182.256 347.435 196.354 361.533C210.453 375.631 229.566 383.561 249.504 383.584V383.587ZM236.711 287.449C236.611 296.6 240.01 300.183 245.322 302.291V276.229C242.849 276.885 240.663 278.343 239.104 280.372C237.548 282.401 236.706 284.889 236.711 287.45L236.711 287.449ZM265.845 327.659C265.946 318.039 261.788 315.608 253.706 313.403V341.283C254.349 341.218 254.986 341.115 255.616 340.973C258.623 340.33 261.305 338.637 263.179 336.198C265.055 333.758 266 330.733 265.845 327.659L265.845 327.659ZM245.322 348.9V358.051C245.286 359.186 245.712 360.286 246.502 361.099C247.292 361.915 248.378 362.374 249.514 362.374C250.647 362.374 251.734 361.915 252.524 361.099C253.313 360.286 253.739 359.186 253.706 358.051V349.695C254.981 349.62 256.251 349.442 257.498 349.158C262.348 348.118 266.679 345.408 269.733 341.5C272.789 337.592 274.371 332.734 274.208 327.775C274.438 310.476 262.725 307.004 253.685 304.73V275.723C256.579 276.196 259.281 277.463 261.496 279.383C263.71 281.304 265.347 283.8 266.222 286.598C266.942 288.794 269.306 289.992 271.505 289.275C273.702 288.554 274.9 286.19 274.18 283.991C272.788 279.494 270.104 275.506 266.459 272.525C262.817 269.544 258.378 267.698 253.693 267.223V258.741C253.729 257.606 253.303 256.506 252.513 255.693C251.723 254.877 250.637 254.418 249.501 254.418C248.368 254.418 247.281 254.877 246.491 255.693C245.701 256.506 245.275 257.606 245.309 258.741V267.554C240.601 268.331 236.319 270.739 233.211 274.36C230.103 277.979 228.368 282.579 228.314 287.349C228.151 303.383 236.861 308.509 245.309 311.155V340.144C239.671 337.929 235.1 333.634 232.542 328.144C232.06 327.122 231.185 326.335 230.116 325.966C229.047 325.597 227.873 325.674 226.864 326.182C225.852 326.688 225.091 327.584 224.747 328.663C224.407 329.742 224.515 330.911 225.049 331.91C228.965 340.289 236.386 346.509 245.322 348.899L245.322 348.9ZM207.523 164.991C130.555 246.36 95.547 310.78 103.503 356.459C107.759 380.849 124.62 400.626 153.689 415.215C159.496 418.222 165.957 419.755 172.498 419.68H327.154C333.78 419.76 340.321 418.191 346.191 415.117C374.798 400.559 391.395 380.875 395.553 356.627C403.439 310.473 367.735 245.318 289.405 162.958H289.402C280.547 167.726 270.898 170.844 260.927 172.16C269.759 179.64 274.886 190.603 274.968 202.177C274.979 203.289 274.545 204.363 273.765 205.156C272.986 205.951 271.922 206.402 270.81 206.41H270.776C268.476 206.413 266.605 204.554 266.587 202.254C266.543 196.663 265.007 191.186 262.14 186.388C259.272 181.589 255.176 177.645 250.274 174.958V194.598C250.31 195.732 249.884 196.831 249.094 197.647C248.302 198.46 247.218 198.922 246.082 198.922C244.946 198.922 243.862 198.46 243.072 197.647C242.283 196.831 241.857 195.732 241.89 194.598V174.703C236.865 177.343 232.65 181.3 229.697 186.153C226.747 191.003 225.167 196.563 225.131 202.242C225.1 204.536 223.236 206.385 220.941 206.4H220.905C218.582 206.382 216.708 204.49 216.716 202.167C216.825 190.42 222.111 179.321 231.163 171.836C223.022 170.561 215.071 168.266 207.503 165.003L207.523 164.991ZM185.64 139.022L185.638 139.019C178.754 130.597 174.283 120.46 172.711 109.697C172.345 107.65 173.321 105.6 175.138 104.594C175.907 104.134 176.782 103.889 177.678 103.886C178.798 103.892 179.882 104.281 180.749 104.989L190.021 112.247H190.018C192.38 114.103 195.297 115.114 198.301 115.114C201.305 115.114 204.222 114.103 206.584 112.247L224.763 97.9856C226.575 96.5299 229.154 96.5299 230.966 97.9856L249.081 112.175H249.083C251.468 114.054 254.424 115.063 257.459 115.04C260.497 115.016 263.437 113.961 265.794 112.048L306.037 79.5277C307.333 78.4746 309.07 78.1313 310.667 78.614C312.268 79.0967 313.525 80.3434 314.023 81.9385C320.662 102.973 315.943 125.945 301.548 142.656C291.365 153.871 277.603 161.199 262.613 163.388C270.417 155.949 274.869 145.663 274.949 134.881C274.959 133.769 274.528 132.697 273.746 131.902C272.967 131.11 271.903 130.658 270.791 130.648H270.76C268.457 130.651 266.586 132.509 266.57 134.811C266.521 141.226 264.508 147.469 260.804 152.707C257.1 157.944 251.878 161.919 245.846 164.1C239.811 161.927 234.584 157.952 230.88 152.715C227.174 147.475 225.166 141.226 225.124 134.811C225.093 132.514 223.232 130.664 220.935 130.648H220.899C218.576 130.666 216.702 132.558 216.71 134.881C216.792 145.384 221.028 155.427 228.49 162.817C221.624 161.444 214.944 159.258 208.597 156.3C208.386 156.178 208.164 156.075 207.937 155.985C199.357 152.017 191.745 146.225 185.63 139.016L185.64 139.022ZM149.906 422.715H149.904C156.896 426.296 164.65 428.133 172.505 428.071H327.161C335.105 428.144 342.945 426.262 349.992 422.592C381.066 406.772 399.184 385.046 403.804 358.049C408.061 333.329 400.937 303.756 382.688 270.171C365.794 239.135 338.919 203.723 302.667 164.79V164.792C328.548 163.233 353.467 174.867 368.891 195.712C369.693 196.781 370.953 197.411 372.29 197.411C373.181 197.411 374.048 197.122 374.765 196.593C376.626 195.212 377.026 192.587 375.656 190.718C360.39 170.099 336.644 157.465 311.015 156.321C328.789 146.215 340.642 128.204 342.89 107.882C343.102 105.567 341.398 103.517 339.086 103.306C336.773 103.091 334.723 104.795 334.509 107.11C332.589 124.533 322.494 140.007 307.319 148.783C307.518 148.556 307.717 148.337 307.916 148.107C324.213 129.205 329.556 103.21 322.037 79.4119C320.7 75.1684 317.352 71.8591 313.093 70.5739C308.834 69.2885 304.214 70.1919 300.753 72.9873L260.53 105.536V105.534C258.718 107.038 256.096 107.059 254.26 105.583L236.148 91.3936C233.787 89.5352 230.867 88.5233 227.863 88.5233C224.858 88.5233 221.942 89.5351 219.58 91.3936L201.4 105.649C199.588 107.105 197.007 107.105 195.198 105.649L185.926 98.3959C183.092 96.1735 179.486 95.1849 175.917 95.6496C172.347 96.1142 169.115 97.9933 166.945 100.864C164.774 103.736 163.85 107.36 164.376 110.92C166.181 123.191 171.278 134.742 179.125 144.344C184.85 151.166 191.799 156.855 199.617 161.119C161.638 201.466 133.624 238.1 116.266 270.056C98.0173 303.642 90.9238 333.197 95.2143 357.907C99.9688 385.058 118.347 406.862 149.891 422.718L149.906 422.715Z" fill="black"></path> </svg> 