<?xml version="1.0" encoding="UTF-8"?> <svg xmlns="http://www.w3.org/2000/svg" width="500" height="499" viewBox="0 0 500 499" fill="none"> <path d="M133.725 472.397C126.515 472.397 120.647 478.264 120.647 485.475C120.647 492.686 126.515 498.553 133.725 498.553C140.936 498.553 146.803 492.686 146.803 485.475C146.803 478.264 140.936 472.397 133.725 472.397ZM133.725 495.635C128.124 495.635 123.565 491.073 123.565 485.475C123.565 479.873 128.128 475.315 133.725 475.315C139.327 475.315 143.885 479.878 143.885 485.475C143.889 491.077 139.327 495.635 133.725 495.635Z" fill="black"></path> <path d="M18.7151 131.517L12.926 143.224L0 145.103L9.3555 154.22L7.1524 167.095L18.7144 161.017L30.2764 167.095L28.0733 154.22L37.4288 145.103L24.4948 143.224L18.7151 131.517ZM24.9339 153.205L26.3987 161.767L18.7112 157.732L11.0237 161.767L12.4885 153.205L6.2697 147.139L14.8674 145.889L18.7112 138.099L22.555 145.889L31.1527 147.139L24.9339 153.205Z" fill="black"></path> <path d="M138.085 17.14L134.097 9.05408L130.108 17.14L121.183 18.4408L127.64 24.7338L126.116 33.6166L134.097 29.4213L142.077 33.6166L140.554 24.7338L147.011 18.4408L138.085 17.14ZM138.202 28.288L134.097 26.1278L129.991 28.288L130.772 23.7138L127.448 20.4716L132.046 19.8075L134.101 15.6473L136.155 19.8075L140.753 20.4716L137.429 23.7138L138.202 28.288Z" fill="black"></path> <path d="M477.065 377.327L485.046 381.522L483.523 372.64L489.98 366.347L481.054 365.046L477.065 356.96L473.077 365.046L464.151 366.347L470.608 372.64L469.085 381.522L477.065 377.327ZM470.421 368.374L475.019 367.71L477.073 363.55L479.128 367.71L483.726 368.374L480.402 371.616L481.183 376.19L477.077 374.03L472.972 376.19L473.753 371.616L470.421 368.374Z" fill="black"></path> <path d="M477.065 51.738L471.803 67.937H454.776L468.549 77.953L463.288 94.144L477.065 84.132L490.842 94.144L485.58 77.953L499.353 67.937H482.326L477.065 51.738ZM482.151 76.832L485.295 86.5039L477.065 80.5234L468.834 86.5039L471.979 76.832L463.748 70.8476H473.928L477.073 61.1718L480.217 70.8476H490.397L482.151 76.832Z" fill="black"></path> <path d="M430.655 0C423.444 0 417.577 5.8672 417.577 13.078C417.577 20.2889 423.444 26.156 430.655 26.156C437.866 26.156 443.733 20.2888 443.733 13.078C443.733 5.871 437.87 0 430.655 0V0ZM430.655 23.242C425.054 23.242 420.495 18.6795 420.495 13.082C420.495 7.4804 425.058 2.922 430.655 2.922C436.257 2.922 440.815 7.4845 440.815 13.082C440.815 18.6797 436.26 23.242 430.655 23.242Z" fill="black"></path> <path d="M486.025 244.617C480.279 244.617 475.607 249.289 475.607 255.035C475.607 260.781 480.279 265.453 486.025 265.453C491.771 265.453 496.443 260.781 496.443 255.035C496.443 249.289 491.768 244.617 486.025 244.617ZM486.025 262.535C481.889 262.535 478.525 259.168 478.525 255.035C478.525 250.898 481.893 247.535 486.025 247.535C490.162 247.535 493.525 250.902 493.525 255.035C493.529 259.172 490.162 262.535 486.025 262.535Z" fill="black"></path> <path d="M56.3052 55.574C48.7114 55.574 42.5322 61.7498 42.5322 69.347C42.5322 76.9408 48.708 83.12 56.3052 83.12C63.899 83.12 70.0782 76.9442 70.0782 69.347C70.0782 61.7532 63.9024 55.574 56.3052 55.574ZM56.3052 80.203C50.3208 80.203 45.4502 75.3319 45.4502 69.348C45.4502 63.3636 50.3213 58.493 56.3052 58.493C62.2891 58.493 67.1602 63.3641 67.1602 69.348C67.1602 75.3324 62.2891 80.203 56.3052 80.203Z" fill="black"></path> <path d="M97.2949 485.607C99.1972 486.091 101.115 486.517 103.057 486.908L103.635 484.048C101.74 483.67 99.8652 483.244 98.0097 482.783L97.2949 485.607Z" fill="black"></path> <path d="M24.6455 431.597C26.6221 434.906 28.7939 438.156 31.0869 441.249L33.4307 439.515C31.1963 436.488 29.0791 433.32 27.1495 430.093L24.6455 431.597Z" fill="black"></path> <path d="M75.4648 477.787C78.9492 479.439 82.5586 480.935 86.1878 482.236L87.1722 479.49C83.6331 478.225 80.1136 476.76 76.7112 475.15L75.4648 477.787Z" fill="black"></path> <path d="M9.10547 388.167C9.67188 391.976 10.4336 395.804 11.3672 399.542L14.1953 398.831C13.2812 395.187 12.5312 391.452 11.9844 387.741L9.10547 388.167Z" fill="black"></path> <path d="M55.585 465.837C58.6866 468.146 61.9327 470.321 65.2256 472.302L66.7295 469.798C63.5147 467.868 60.3545 465.743 57.3272 463.493L55.585 465.837Z" fill="black"></path> <path d="M38.4355 450.227C41.0097 453.086 43.7675 455.852 46.6269 458.454L48.5917 456.293C45.8026 453.754 43.1151 451.059 40.5995 448.274L38.4355 450.227Z" fill="black"></path> <path d="M10.7354 370.917C10.7354 369.011 10.7823 367.097 10.876 365.171L7.96582 365.03C7.86816 366.995 7.82129 368.964 7.82129 370.917C7.82129 372.831 7.86816 374.737 7.96191 376.632L10.8721 376.491C10.7823 374.64 10.7354 372.784 10.7354 370.917L10.7354 370.917Z" fill="black"></path> <path d="M14.7354 410.647C16.0323 414.256 17.5244 417.862 19.1806 421.362L21.8174 420.112C20.2002 416.698 18.7432 413.182 17.4815 409.659L14.7354 410.647Z" fill="black"></path> <path d="M13.0049 348.147L10.1455 347.577C9.75876 349.518 9.41501 351.456 9.12988 353.397L12.0127 353.823C12.2978 351.936 12.6299 350.042 13.0049 348.147L13.0049 348.147Z" fill="black"></path> <path d="M489.285 418.347L492.191 418.617C492.371 416.656 492.484 414.679 492.523 412.683L489.605 412.624C489.559 414.55 489.453 416.456 489.285 418.347L489.285 418.347Z" fill="black"></path> <path d="M427.115 488.367L427.721 491.219C431.94 490.32 436.115 489.07 440.151 487.508L439.096 484.789C435.217 486.297 431.178 487.496 427.116 488.367H427.115Z" fill="black"></path> <path d="M483.105 442.527L485.781 443.687C487.504 439.726 488.918 435.597 489.988 431.414L487.156 430.699C486.125 434.731 484.762 438.715 483.105 442.527V442.527Z" fill="black"></path> <path d="M469.665 463.547L471.849 465.484C474.724 462.246 477.356 458.766 479.677 455.141L477.22 453.566C474.978 457.066 472.442 460.426 469.665 463.547V463.547Z" fill="black"></path> <path d="M450.365 479.357L451.834 481.876C455.561 479.701 459.143 477.209 462.486 474.466L460.638 472.208C457.412 474.853 453.955 477.255 450.365 479.357L450.365 479.357Z" fill="black"></path> <path d="M408.945 490.077L408.887 492.995C409.445 493.007 410.008 493.011 410.566 493.011C411.996 493.011 413.414 492.975 414.824 492.901L414.68 489.991C412.777 490.085 410.875 490.12 408.945 490.077H408.945Z" fill="black"></path> <path d="M484.575 134.807H487.493V146.475H484.575V134.807Z" fill="black"></path> <path d="M484.575 158.147H487.493V169.815H484.575V158.147Z" fill="black"></path> <path d="M484.575 204.807H487.493V216.475H484.575V204.807Z" fill="black"></path> <path d="M484.575 181.477H487.493V193.145H484.575V181.477Z" fill="black"></path> <path d="M243.747 102.247V165.013C243.747 168.461 246.546 171.26 249.999 171.26C253.452 171.26 256.251 168.461 256.251 165.013V102.247C256.251 98.799 253.452 96 249.999 96C246.546 96 243.747 98.7989 243.747 102.247Z" fill="black"></path> <path d="M249.997 360.74C246.544 360.74 243.745 363.539 243.745 366.987V429.753C243.745 433.201 246.544 436 249.997 436C253.45 436 256.249 433.201 256.249 429.753V366.987C256.249 365.331 255.59 363.744 254.418 362.571C253.245 361.398 251.654 360.74 249.997 360.74L249.997 360.74Z" fill="black"></path> <path d="M344.74 265.997C344.74 267.658 345.399 269.245 346.571 270.418C347.744 271.59 349.331 272.249 350.988 272.249H413.753C417.201 272.249 420 269.45 420 265.997C420 262.548 417.202 259.749 413.753 259.749H350.988C347.539 259.749 344.74 262.548 344.74 265.997L344.74 265.997Z" fill="black"></path> <path d="M86.2474 272.247H149.013C152.461 272.247 155.26 269.448 155.26 265.995C155.26 262.547 152.461 259.748 149.013 259.748H86.2474C82.799 259.748 80 262.547 80 265.995C80 269.448 82.7989 272.247 86.2474 272.247V272.247Z" fill="black"></path> <path d="M335.377 218.307C336.558 218.307 337.713 217.972 338.712 217.339L391.773 183.818C393.177 182.933 394.171 181.53 394.537 179.912C394.903 178.29 394.611 176.594 393.726 175.191C392.837 173.787 391.429 172.797 389.811 172.431C388.194 172.069 386.493 172.366 385.094 173.255L332.033 206.771C329.683 208.262 328.597 211.122 329.369 213.799C330.145 216.472 332.595 218.307 335.377 218.307L335.377 218.307Z" fill="black"></path> <path d="M106.281 356.789C107.166 358.193 108.574 359.182 110.192 359.549C111.805 359.915 113.501 359.618 114.905 358.733L167.961 325.212C170.869 323.368 171.737 319.514 169.897 316.598C168.053 313.685 164.199 312.814 161.282 314.649L108.226 348.17C106.826 349.055 105.832 350.459 105.466 352.076C105.104 353.694 105.396 355.39 106.281 356.789L106.281 356.789Z" fill="black"></path> <path d="M332.173 407.771C333.058 409.175 334.462 410.169 336.079 410.535C337.701 410.901 339.397 410.609 340.801 409.724C342.204 408.839 343.194 407.431 343.56 405.809C343.922 404.192 343.626 402.496 342.736 401.092L309.22 348.031C307.376 345.123 303.517 344.255 300.605 346.099C297.693 347.939 296.821 351.793 298.656 354.71L332.173 407.771Z" fill="black"></path> <path d="M196.069 186.868C198.344 186.863 200.441 185.625 201.54 183.628C202.634 181.636 202.56 179.203 201.348 177.276L167.827 124.215C166.942 122.811 165.534 121.818 163.916 121.451C162.299 121.085 160.603 121.377 159.199 122.262C157.795 123.151 156.801 124.56 156.439 126.177C156.078 127.794 156.37 129.495 157.259 130.894L190.78 183.955C191.927 185.769 193.923 186.872 196.068 186.868L196.069 186.868Z" fill="black"></path> <path d="M331.872 117.002C330.42 116.204 328.707 116.012 327.115 116.479C325.524 116.941 324.181 118.018 323.383 119.474L293.158 174.479V174.475C292.352 175.931 292.16 177.644 292.618 179.244C293.08 180.84 294.156 182.187 295.617 182.989C297.073 183.787 298.786 183.974 300.382 183.508C301.978 183.037 303.32 181.956 304.114 180.495L334.339 125.49C335.137 124.038 335.329 122.325 334.862 120.734C334.4 119.142 333.323 117.8 331.872 117.002L331.872 117.002Z" fill="black"></path> <path d="M168.133 414.981C171.158 416.642 174.956 415.539 176.621 412.513L206.846 357.512H206.842C207.649 356.056 207.845 354.343 207.383 352.743C206.925 351.147 205.844 349.8 204.388 348.998C202.931 348.2 201.214 348.013 199.618 348.479C198.022 348.95 196.68 350.031 195.886 351.492L165.665 406.493C164.863 407.949 164.676 409.658 165.138 411.249C165.6 412.84 166.677 414.183 168.133 414.981L168.133 414.981Z" fill="black"></path> <path d="M393.502 351.097C396.357 351.101 398.851 349.166 399.562 346.402C400.272 343.638 399.017 340.743 396.514 339.37L341.513 309.144C340.057 308.338 338.344 308.142 336.744 308.604C335.148 309.066 333.801 310.143 332.999 311.599C332.201 313.055 332.014 314.773 332.48 316.368C332.947 317.964 334.032 319.307 335.493 320.1L390.498 350.325C391.418 350.831 392.451 351.097 393.502 351.097L393.502 351.097Z" fill="black"></path> <path d="M101.014 184.122C100.216 185.574 100.028 187.287 100.491 188.879C100.953 190.47 102.029 191.813 103.481 192.61L158.487 222.836C159.938 223.642 161.656 223.834 163.252 223.376C164.852 222.914 166.199 221.837 166.997 220.377C167.799 218.921 167.986 217.208 167.52 215.612C167.049 214.016 165.968 212.673 164.503 211.88L109.502 181.655C108.05 180.852 106.337 180.661 104.746 181.127C103.15 181.589 101.807 182.666 101.014 184.122L101.014 184.122Z" fill="black"></path> <path d="M308.044 216.499C306.875 215.327 305.284 214.668 303.628 214.668C301.971 214.668 300.38 215.327 299.207 216.499L250.566 265.14L220.184 234.757C217.742 232.32 213.784 232.32 211.347 234.757C208.905 237.198 208.905 241.157 211.347 243.598L246.15 278.402L246.146 278.398C247.319 279.57 248.91 280.229 250.566 280.229C252.223 280.229 253.814 279.57 254.987 278.398L308.048 225.336L308.044 225.341C309.217 224.168 309.875 222.577 309.875 220.92C309.875 219.263 309.217 217.672 308.044 216.499L308.044 216.499Z" fill="black"></path> </svg> 