<?xml version="1.0" encoding="UTF-8"?> <svg xmlns="http://www.w3.org/2000/svg" width="500" height="499" viewBox="0 0 500 499" fill="none"> <path d="M133.725 472.397C126.515 472.397 120.647 478.264 120.647 485.475C120.647 492.686 126.515 498.553 133.725 498.553C140.936 498.553 146.803 492.686 146.803 485.475C146.803 478.264 140.936 472.397 133.725 472.397ZM133.725 495.635C128.124 495.635 123.565 491.073 123.565 485.475C123.565 479.873 128.128 475.315 133.725 475.315C139.327 475.315 143.885 479.878 143.885 485.475C143.889 491.077 139.327 495.635 133.725 495.635Z" fill="black"></path> <path d="M18.7151 131.517L12.926 143.224L0 145.103L9.3555 154.22L7.1524 167.095L18.7144 161.017L30.2764 167.095L28.0733 154.22L37.4288 145.103L24.4948 143.224L18.7151 131.517ZM24.9339 153.205L26.3987 161.767L18.7112 157.732L11.0237 161.767L12.4885 153.205L6.2697 147.139L14.8674 145.889L18.7112 138.099L22.555 145.889L31.1527 147.139L24.9339 153.205Z" fill="black"></path> <path d="M138.085 17.14L134.097 9.05408L130.108 17.14L121.183 18.4408L127.64 24.7338L126.116 33.6166L134.097 29.4213L142.077 33.6166L140.554 24.7338L147.011 18.4408L138.085 17.14ZM138.202 28.288L134.097 26.1278L129.991 28.288L130.772 23.7138L127.448 20.4716L132.046 19.8075L134.101 15.6473L136.155 19.8075L140.753 20.4716L137.429 23.7138L138.202 28.288Z" fill="black"></path> <path d="M477.065 377.327L485.046 381.522L483.523 372.64L489.98 366.347L481.054 365.046L477.065 356.96L473.077 365.046L464.151 366.347L470.608 372.64L469.085 381.522L477.065 377.327ZM470.421 368.374L475.019 367.71L477.073 363.55L479.128 367.71L483.726 368.374L480.402 371.616L481.183 376.19L477.077 374.03L472.972 376.19L473.753 371.616L470.421 368.374Z" fill="black"></path> <path d="M477.065 51.738L471.803 67.937H454.776L468.549 77.953L463.288 94.144L477.065 84.132L490.842 94.144L485.58 77.953L499.353 67.937H482.326L477.065 51.738ZM482.151 76.832L485.295 86.5039L477.065 80.5234L468.834 86.5039L471.979 76.832L463.748 70.8476H473.928L477.073 61.1718L480.217 70.8476H490.397L482.151 76.832Z" fill="black"></path> <path d="M430.655 0C423.444 0 417.577 5.8672 417.577 13.078C417.577 20.2889 423.444 26.156 430.655 26.156C437.866 26.156 443.733 20.2888 443.733 13.078C443.733 5.871 437.87 0 430.655 0V0ZM430.655 23.242C425.054 23.242 420.495 18.6795 420.495 13.082C420.495 7.4804 425.058 2.922 430.655 2.922C436.257 2.922 440.815 7.4845 440.815 13.082C440.815 18.6797 436.26 23.242 430.655 23.242Z" fill="black"></path> <path d="M486.025 244.617C480.279 244.617 475.607 249.289 475.607 255.035C475.607 260.781 480.279 265.453 486.025 265.453C491.771 265.453 496.443 260.781 496.443 255.035C496.443 249.289 491.768 244.617 486.025 244.617ZM486.025 262.535C481.889 262.535 478.525 259.168 478.525 255.035C478.525 250.898 481.893 247.535 486.025 247.535C490.162 247.535 493.525 250.902 493.525 255.035C493.529 259.172 490.162 262.535 486.025 262.535Z" fill="black"></path> <path d="M56.3052 55.574C48.7114 55.574 42.5322 61.7498 42.5322 69.347C42.5322 76.9408 48.708 83.12 56.3052 83.12C63.899 83.12 70.0782 76.9442 70.0782 69.347C70.0782 61.7532 63.9024 55.574 56.3052 55.574ZM56.3052 80.203C50.3208 80.203 45.4502 75.3319 45.4502 69.348C45.4502 63.3636 50.3213 58.493 56.3052 58.493C62.2891 58.493 67.1602 63.3641 67.1602 69.348C67.1602 75.3324 62.2891 80.203 56.3052 80.203Z" fill="black"></path> <path d="M97.2949 485.607C99.1972 486.091 101.115 486.517 103.057 486.908L103.635 484.048C101.74 483.67 99.8652 483.244 98.0097 482.783L97.2949 485.607Z" fill="black"></path> <path d="M24.6455 431.597C26.6221 434.906 28.7939 438.156 31.0869 441.249L33.4307 439.515C31.1963 436.488 29.0791 433.32 27.1495 430.093L24.6455 431.597Z" fill="black"></path> <path d="M75.4648 477.787C78.9492 479.439 82.5586 480.935 86.1878 482.236L87.1722 479.49C83.6331 478.225 80.1136 476.76 76.7112 475.15L75.4648 477.787Z" fill="black"></path> <path d="M9.10547 388.167C9.67188 391.976 10.4336 395.804 11.3672 399.542L14.1953 398.831C13.2812 395.187 12.5312 391.452 11.9844 387.741L9.10547 388.167Z" fill="black"></path> <path d="M55.585 465.837C58.6866 468.146 61.9327 470.321 65.2256 472.302L66.7295 469.798C63.5147 467.868 60.3545 465.743 57.3272 463.493L55.585 465.837Z" fill="black"></path> <path d="M38.4355 450.227C41.0097 453.086 43.7675 455.852 46.6269 458.454L48.5917 456.293C45.8026 453.754 43.1151 451.059 40.5995 448.274L38.4355 450.227Z" fill="black"></path> <path d="M10.7354 370.917C10.7354 369.011 10.7823 367.097 10.876 365.171L7.96582 365.03C7.86816 366.995 7.82129 368.964 7.82129 370.917C7.82129 372.831 7.86816 374.737 7.96191 376.632L10.8721 376.491C10.7823 374.64 10.7354 372.784 10.7354 370.917L10.7354 370.917Z" fill="black"></path> <path d="M14.7354 410.647C16.0323 414.256 17.5244 417.862 19.1806 421.362L21.8174 420.112C20.2002 416.698 18.7432 413.182 17.4815 409.659L14.7354 410.647Z" fill="black"></path> <path d="M13.0049 348.147L10.1455 347.577C9.75876 349.518 9.41501 351.456 9.12988 353.397L12.0127 353.823C12.2978 351.936 12.6299 350.042 13.0049 348.147L13.0049 348.147Z" fill="black"></path> <path d="M489.285 418.347L492.191 418.617C492.371 416.656 492.484 414.679 492.523 412.683L489.605 412.624C489.559 414.55 489.453 416.456 489.285 418.347L489.285 418.347Z" fill="black"></path> <path d="M427.115 488.367L427.721 491.219C431.94 490.32 436.115 489.07 440.151 487.508L439.096 484.789C435.217 486.297 431.178 487.496 427.116 488.367H427.115Z" fill="black"></path> <path d="M483.105 442.527L485.781 443.687C487.504 439.726 488.918 435.597 489.988 431.414L487.156 430.699C486.125 434.731 484.762 438.715 483.105 442.527V442.527Z" fill="black"></path> <path d="M469.665 463.547L471.849 465.484C474.724 462.246 477.356 458.766 479.677 455.141L477.22 453.566C474.978 457.066 472.442 460.426 469.665 463.547V463.547Z" fill="black"></path> <path d="M450.365 479.357L451.834 481.876C455.561 479.701 459.143 477.209 462.486 474.466L460.638 472.208C457.412 474.853 453.955 477.255 450.365 479.357L450.365 479.357Z" fill="black"></path> <path d="M408.945 490.077L408.887 492.995C409.445 493.007 410.008 493.011 410.566 493.011C411.996 493.011 413.414 492.975 414.824 492.901L414.68 489.991C412.777 490.085 410.875 490.12 408.945 490.077H408.945Z" fill="black"></path> <path d="M484.575 134.807H487.493V146.475H484.575V134.807Z" fill="black"></path> <path d="M484.575 158.147H487.493V169.815H484.575V158.147Z" fill="black"></path> <path d="M484.575 204.807H487.493V216.475H484.575V204.807Z" fill="black"></path> <path d="M484.575 181.477H487.493V193.145H484.575V181.477Z" fill="black"></path> <path d="M398.393 418.001C398.152 418.001 397.913 418.001 397.623 417.952L341.141 409.02C327.31 414.973 312.66 418.001 297.531 418.001C236.63 418.001 187.062 368.434 187.062 307.531C187.062 246.63 236.628 197.062 297.531 197.062C358.432 197.062 408 246.628 408 307.531C408 332.604 399.451 356.955 383.842 376.453L402.621 410.89C403.484 412.475 403.39 414.444 402.334 415.934C401.42 417.232 399.931 418.002 398.392 418.002L398.393 418.001ZM297.532 206.671C241.914 206.671 196.672 251.914 196.672 307.531C196.672 363.148 241.915 408.392 297.532 408.392C311.749 408.392 325.581 405.461 338.549 399.65C339.413 399.267 340.327 399.122 341.239 399.315L389.51 406.952L373.853 378.23C372.892 376.5 373.131 374.339 374.429 372.802C389.894 354.599 398.445 331.401 398.445 307.529C398.395 251.911 353.151 206.669 297.535 206.669L297.532 206.671Z" fill="black"></path> <path d="M297.532 312.33C278.992 312.33 263.911 297.248 263.911 278.708C263.911 260.168 278.992 245.087 297.532 245.087C316.072 245.087 331.154 260.168 331.154 278.708C331.154 281.35 328.992 283.511 326.351 283.511C323.71 283.511 321.548 281.35 321.548 278.708C321.548 265.453 310.79 254.692 297.532 254.692C284.277 254.692 273.516 265.451 273.516 278.708C273.516 291.964 284.274 302.725 297.532 302.725C300.173 302.725 302.335 304.886 302.335 307.527C302.335 310.169 300.173 312.33 297.532 312.33L297.532 312.33Z" fill="black"></path> <path d="M297.532 369.969C278.992 369.969 263.911 354.888 263.911 336.348C263.911 333.707 266.072 331.546 268.714 331.546C271.355 331.546 273.517 333.707 273.517 336.348C273.517 349.603 284.275 360.364 297.533 360.364C310.788 360.364 321.549 349.606 321.549 336.348C321.549 323.093 310.79 312.332 297.533 312.332C294.891 312.332 292.73 310.171 292.73 307.529C292.73 304.888 294.891 302.727 297.533 302.727C316.073 302.727 331.154 317.808 331.154 336.348C331.154 354.886 316.073 369.969 297.533 369.969L297.532 369.969Z" fill="black"></path> <path d="M297.532 254.696C294.891 254.696 292.729 252.534 292.729 249.893V235.485C292.729 232.844 294.891 230.682 297.532 230.682C300.174 230.682 302.335 232.844 302.335 235.485V249.893C302.335 252.534 300.174 254.696 297.532 254.696Z" fill="black"></path> <path d="M297.532 384.376C294.891 384.376 292.729 382.215 292.729 379.574V365.166C292.729 362.524 294.891 360.363 297.532 360.363C300.174 360.363 302.335 362.524 302.335 365.166V379.574C302.335 382.215 300.174 384.376 297.532 384.376Z" fill="black"></path> <path d="M177.12 264.305H142.732C130.099 264.305 119.82 254.026 119.82 241.396V179.05L91.5783 127.322C90.7147 125.689 90.8112 123.719 91.916 122.23C92.9725 120.742 94.7986 119.972 96.6222 120.262L119.82 124.15V123.911C119.82 111.279 130.099 101 142.732 101H298.632C311.265 101 321.544 111.279 321.544 123.911V179.289C321.544 180.681 320.919 182.027 319.863 182.938C318.806 183.85 317.414 184.284 316.02 184.043C309.871 183.131 303.677 182.651 297.528 182.651C246.184 182.651 200.7 213.535 181.587 261.275C180.818 263.101 179.088 264.302 177.12 264.302L177.12 264.305ZM104.74 131.357L128.85 175.544C129.236 176.266 129.427 177.035 129.427 177.85V241.394C129.427 248.741 135.383 254.697 142.73 254.697H173.901C195.182 204.989 243.354 173.048 297.53 173.048C302.284 173.048 307.135 173.289 311.938 173.817V123.914C311.938 116.567 305.982 110.611 298.635 110.611H142.734C135.384 110.611 129.428 116.566 129.428 123.914V129.821C129.428 131.213 128.803 132.559 127.747 133.471C126.69 134.383 125.25 134.769 123.856 134.528L104.74 131.357Z" fill="black"></path> </svg> 